# Tiled2Unity generated file. Do not modify by hand.
# Wavefront file for 'centro2_mesh_0003.obj'

# Vertices (Count = 560)
v 0 -1 0
v -1 -1 0
v -1 0 0
v 0 0 0
v -1 -1 0
v -2 -1 0
v -2 0 0
v -1 0 0
v -2 -1 0
v -3 -1 0
v -3 0 0
v -2 0 0
v -12 -1 0
v -13 -1 0
v -13 0 0
v -12 0 0
v -13 -1 0
v -14 -1 0
v -14 0 0
v -13 0 0
v -14 -1 0
v -15 -1 0
v -15 0 0
v -14 0 0
v -24 -1 0
v -25 -1 0
v -25 0 0
v -24 0 0
v -25 -1 0
v -26 -1 0
v -26 0 0
v -25 0 0
v -26 -1 0
v -27 -1 0
v -27 0 0
v -26 0 0
v -27 -1 0
v -28 -1 0
v -28 0 0
v -27 0 0
v 0 -2 0
v -1 -2 0
v -1 -1 0
v 0 -1 0
v -1 -2 0
v -2 -2 0
v -2 -1 0
v -1 -1 0
v -2 -2 0
v -3 -2 0
v -3 -1 0
v -2 -1 0
v -6 -2 0
v -7 -2 0
v -7 -1 0
v -6 -1 0
v -7 -2 0
v -8 -2 0
v -8 -1 0
v -7 -1 0
v -8 -2 0
v -9 -2 0
v -9 -1 0
v -8 -1 0
v -12 -2 0
v -13 -2 0
v -13 -1 0
v -12 -1 0
v -13 -2 0
v -14 -2 0
v -14 -1 0
v -13 -1 0
v -14 -2 0
v -15 -2 0
v -15 -1 0
v -14 -1 0
v -19 -2 0
v -20 -2 0
v -20 -1 0
v -19 -1 0
v -20 -2 0
v -21 -2 0
v -21 -1 0
v -20 -1 0
v -21 -2 0
v -22 -2 0
v -22 -1 0
v -21 -1 0
v -24 -2 0
v -25 -2 0
v -25 -1 0
v -24 -1 0
v -25 -2 0
v -26 -2 0
v -26 -1 0
v -25 -1 0
v -26 -2 0
v -27 -2 0
v -27 -1 0
v -26 -1 0
v -27 -2 0
v -28 -2 0
v -28 -1 0
v -27 -1 0
v 0 -3 0
v -1 -3 0
v -1 -2 0
v 0 -2 0
v -1 -3 0
v -2 -3 0
v -2 -2 0
v -1 -2 0
v -2 -3 0
v -3 -3 0
v -3 -2 0
v -2 -2 0
v -6 -3 0
v -7 -3 0
v -7 -2 0
v -6 -2 0
v -7 -3 0
v -8 -3 0
v -8 -2 0
v -7 -2 0
v -8 -3 0
v -9 -3 0
v -9 -2 0
v -8 -2 0
v -12 -3 0
v -13 -3 0
v -13 -2 0
v -12 -2 0
v -13 -3 0
v -14 -3 0
v -14 -2 0
v -13 -2 0
v -14 -3 0
v -15 -3 0
v -15 -2 0
v -14 -2 0
v -19 -3 0
v -20 -3 0
v -20 -2 0
v -19 -2 0
v -20 -3 0
v -21 -3 0
v -21 -2 0
v -20 -2 0
v -21 -3 0
v -22 -3 0
v -22 -2 0
v -21 -2 0
v -24 -3 0
v -25 -3 0
v -25 -2 0
v -24 -2 0
v -25 -3 0
v -26 -3 0
v -26 -2 0
v -25 -2 0
v -26 -3 0
v -27 -3 0
v -27 -2 0
v -26 -2 0
v -27 -3 0
v -28 -3 0
v -28 -2 0
v -27 -2 0
v 0 -4 0
v -1 -4 0
v -1 -3 0
v 0 -3 0
v -1 -4 0
v -2 -4 0
v -2 -3 0
v -1 -3 0
v -2 -4 0
v -3 -4 0
v -3 -3 0
v -2 -3 0
v -3 -4 0
v -4 -4 0
v -4 -3 0
v -3 -3 0
v -4 -4 0
v -5 -4 0
v -5 -3 0
v -4 -3 0
v -5 -4 0
v -6 -4 0
v -6 -3 0
v -5 -3 0
v -6 -4 0
v -7 -4 0
v -7 -3 0
v -6 -3 0
v -7 -4 0
v -8 -4 0
v -8 -3 0
v -7 -3 0
v -8 -4 0
v -9 -4 0
v -9 -3 0
v -8 -3 0
v -12 -4 0
v -13 -4 0
v -13 -3 0
v -12 -3 0
v -13 -4 0
v -14 -4 0
v -14 -3 0
v -13 -3 0
v -14 -4 0
v -15 -4 0
v -15 -3 0
v -14 -3 0
v -19 -4 0
v -20 -4 0
v -20 -3 0
v -19 -3 0
v -20 -4 0
v -21 -4 0
v -21 -3 0
v -20 -3 0
v -21 -4 0
v -22 -4 0
v -22 -3 0
v -21 -3 0
v -24 -4 0
v -25 -4 0
v -25 -3 0
v -24 -3 0
v -25 -4 0
v -26 -4 0
v -26 -3 0
v -25 -3 0
v -26 -4 0
v -27 -4 0
v -27 -3 0
v -26 -3 0
v -27 -4 0
v -28 -4 0
v -28 -3 0
v -27 -3 0
v -3 -5 0
v -4 -5 0
v -4 -4 0
v -3 -4 0
v -4 -5 0
v -5 -5 0
v -5 -4 0
v -4 -4 0
v -5 -5 0
v -6 -5 0
v -6 -4 0
v -5 -4 0
v -6 -5 0
v -7 -5 0
v -7 -4 0
v -6 -4 0
v -7 -5 0
v -8 -5 0
v -8 -4 0
v -7 -4 0
v -8 -5 0
v -9 -5 0
v -9 -4 0
v -8 -4 0
v -12 -5 0
v -13 -5 0
v -13 -4 0
v -12 -4 0
v -13 -5 0
v -14 -5 0
v -14 -4 0
v -13 -4 0
v -14 -5 0
v -15 -5 0
v -15 -4 0
v -14 -4 0
v -19 -5 0
v -20 -5 0
v -20 -4 0
v -19 -4 0
v -20 -5 0
v -21 -5 0
v -21 -4 0
v -20 -4 0
v -21 -5 0
v -22 -5 0
v -22 -4 0
v -21 -4 0
v -28 -5 0
v -29 -5 0
v -29 -4 0
v -28 -4 0
v -29 -5 0
v -30 -5 0
v -30 -4 0
v -29 -4 0
v -3 -6 0
v -4 -6 0
v -4 -5 0
v -3 -5 0
v -4 -6 0
v -5 -6 0
v -5 -5 0
v -4 -5 0
v -5 -6 0
v -6 -6 0
v -6 -5 0
v -5 -5 0
v -19 -6 0
v -20 -6 0
v -20 -5 0
v -19 -5 0
v -20 -6 0
v -21 -6 0
v -21 -5 0
v -20 -5 0
v -21 -6 0
v -22 -6 0
v -22 -5 0
v -21 -5 0
v -25 -6 0
v -26 -6 0
v -26 -5 0
v -25 -5 0
v -26 -6 0
v -27 -6 0
v -27 -5 0
v -26 -5 0
v -28 -6 0
v -29 -6 0
v -29 -5 0
v -28 -5 0
v -29 -6 0
v -30 -6 0
v -30 -5 0
v -29 -5 0
v -1 -7 0
v -2 -7 0
v -2 -6 0
v -1 -6 0
v -2 -7 0
v -3 -7 0
v -3 -6 0
v -2 -6 0
v -3 -7 0
v -4 -7 0
v -4 -6 0
v -3 -6 0
v -25 -7 0
v -26 -7 0
v -26 -6 0
v -25 -6 0
v -26 -7 0
v -27 -7 0
v -27 -6 0
v -26 -6 0
v -1 -8 0
v -2 -8 0
v -2 -7 0
v -1 -7 0
v -2 -8 0
v -3 -8 0
v -3 -7 0
v -2 -7 0
v -3 -8 0
v -4 -8 0
v -4 -7 0
v -3 -7 0
v -6 -8 0
v -7 -8 0
v -7 -7 0
v -6 -7 0
v -7 -8 0
v -8 -8 0
v -8 -7 0
v -7 -7 0
v -8 -8 0
v -9 -8 0
v -9 -7 0
v -8 -7 0
v -9 -8 0
v -10 -8 0
v -10 -7 0
v -9 -7 0
v -27 -8 0
v -28 -8 0
v -28 -7 0
v -27 -7 0
v -28 -8 0
v -29 -8 0
v -29 -7 0
v -28 -7 0
v -29 -8 0
v -30 -8 0
v -30 -7 0
v -29 -7 0
v -1 -9 0
v -2 -9 0
v -2 -8 0
v -1 -8 0
v -2 -9 0
v -3 -9 0
v -3 -8 0
v -2 -8 0
v -3 -9 0
v -4 -9 0
v -4 -8 0
v -3 -8 0
v -6 -9 0
v -7 -9 0
v -7 -8 0
v -6 -8 0
v -7 -9 0
v -8 -9 0
v -8 -8 0
v -7 -8 0
v -8 -9 0
v -9 -9 0
v -9 -8 0
v -8 -8 0
v -9 -9 0
v -10 -9 0
v -10 -8 0
v -9 -8 0
v -25 -9 0
v -26 -9 0
v -26 -8 0
v -25 -8 0
v -26 -9 0
v -27 -9 0
v -27 -8 0
v -26 -8 0
v -27 -9 0
v -28 -9 0
v -28 -8 0
v -27 -8 0
v -28 -9 0
v -29 -9 0
v -29 -8 0
v -28 -8 0
v -29 -9 0
v -30 -9 0
v -30 -8 0
v -29 -8 0
v -1 -10 0
v -2 -10 0
v -2 -9 0
v -1 -9 0
v -2 -10 0
v -3 -10 0
v -3 -9 0
v -2 -9 0
v -3 -10 0
v -4 -10 0
v -4 -9 0
v -3 -9 0
v -6 -10 0
v -7 -10 0
v -7 -9 0
v -6 -9 0
v -7 -10 0
v -8 -10 0
v -8 -9 0
v -7 -9 0
v -8 -10 0
v -9 -10 0
v -9 -9 0
v -8 -9 0
v -9 -10 0
v -10 -10 0
v -10 -9 0
v -9 -9 0
v -25 -10 0
v -26 -10 0
v -26 -9 0
v -25 -9 0
v -26 -10 0
v -27 -10 0
v -27 -9 0
v -26 -9 0
v -27 -10 0
v -28 -10 0
v -28 -9 0
v -27 -9 0
v -28 -10 0
v -29 -10 0
v -29 -9 0
v -28 -9 0
v -29 -10 0
v -30 -10 0
v -30 -9 0
v -29 -9 0
v -6 -11 0
v -7 -11 0
v -7 -10 0
v -6 -10 0
v -7 -11 0
v -8 -11 0
v -8 -10 0
v -7 -10 0
v -8 -11 0
v -9 -11 0
v -9 -10 0
v -8 -10 0
v -9 -11 0
v -10 -11 0
v -10 -10 0
v -9 -10 0
v -27 -11 0
v -28 -11 0
v -28 -10 0
v -27 -10 0
v -28 -11 0
v -29 -11 0
v -29 -10 0
v -28 -10 0
v -29 -11 0
v -30 -11 0
v -30 -10 0
v -29 -10 0
v -27 -20 0
v -28 -20 0
v -28 -19 0
v -27 -19 0
v -28 -20 0
v -29 -20 0
v -29 -19 0
v -28 -19 0
v -29 -20 0
v -30 -20 0
v -30 -19 0
v -29 -19 0
v -27 -21 0
v -28 -21 0
v -28 -20 0
v -27 -20 0
v -28 -21 0
v -29 -21 0
v -29 -20 0
v -28 -20 0
v -29 -21 0
v -30 -21 0
v -30 -20 0
v -29 -20 0
v -27 -22 0
v -28 -22 0
v -28 -21 0
v -27 -21 0
v -28 -22 0
v -29 -22 0
v -29 -21 0
v -28 -21 0
v -29 -22 0
v -30 -22 0
v -30 -21 0
v -29 -21 0

# Texture cooridinates (Count = 119)
vt 0.4615385 0.9230769
vt 0.5384616 0.9230769
vt 0.5384616 1
vt 0.4615385 1
vt 0.6153846 0.9230769
vt 0.6153846 1
vt 0.6923077 0.9230769
vt 0.6923077 1
vt 0.2307692 0.6153846
vt 0.3076923 0.6153846
vt 0.3076923 0.6923077
vt 0.2307692 0.6923077
vt 0.3846154 0.6153846
vt 0.3846154 0.6923077
vt 0.4615385 0.6153846
vt 0.4615385 0.6923077
vt 0.1538462 0.9230769
vt 0.2307692 0.9230769
vt 0.2307692 1
vt 0.1538462 1
vt 0.3076923 0.9230769
vt 0.3076923 1
vt 0.3846154 0.9230769
vt 0.3846154 1
vt 0.4615385 0.8461539
vt 0.5384616 0.8461539
vt 0.6153846 0.8461539
vt 0.6923077 0.8461539
vt 0.3076923 0.2307692
vt 0.3846154 0.2307692
vt 0.3846154 0.3076923
vt 0.3076923 0.3076923
vt 0.4615385 0.2307692
vt 0.4615385 0.3076923
vt 0.5384616 0.2307692
vt 0.5384616 0.3076923
vt 0.2307692 0.5384616
vt 0.3076923 0.5384616
vt 0.3846154 0.5384616
vt 0.4615385 0.5384616
vt 0.1538462 0.8461539
vt 0.2307692 0.8461539
vt 0.3076923 0.8461539
vt 0.3846154 0.8461539
vt 0.4615385 0.7692308
vt 0.5384616 0.7692308
vt 0.6153846 0.7692308
vt 0.6923077 0.7692308
vt 0.3076923 0.1538461
vt 0.3846154 0.1538461
vt 0.4615385 0.1538461
vt 0.5384616 0.1538461
vt 0.2307692 0.4615384
vt 0.3076923 0.4615384
vt 0.3846154 0.4615384
vt 0.4615385 0.4615384
vt 0.1538462 0.7692308
vt 0.2307692 0.7692308
vt 0.3076923 0.7692308
vt 0.3846154 0.7692308
vt 0.5384616 0.6923077
vt 0.6153846 0.6923077
vt 0.6923077 0.6923077
vt 0 0.4615384
vt 0.07692308 0.4615384
vt 0.07692308 0.5384616
vt 0 0.5384616
vt 0.1538462 0.4615384
vt 0.1538462 0.5384616
vt 0.3076923 0.07692307
vt 0.3846154 0.07692307
vt 0.4615385 0.07692307
vt 0.5384616 0.07692307
vt 0.2307692 0.3846154
vt 0.3076923 0.3846154
vt 0.3846154 0.3846154
vt 0.4615385 0.3846154
vt 0.1538462 0.6923077
vt 0 0.3846154
vt 0.07692308 0.3846154
vt 0.1538462 0.3846154
vt 0.3076923 0
vt 0.3846154 0
vt 0.4615385 0
vt 0.5384616 0
vt 0.2307692 0.3076923
vt 0.8461539 0.7692308
vt 0.9230769 0.7692308
vt 0.9230769 0.8461539
vt 0.8461539 0.8461539
vt 1 0.7692308
vt 1 0.8461539
vt 0 0.3076923
vt 0.07692308 0.3076923
vt 0.1538462 0.3076923
vt 0.8461539 0.6153846
vt 0.9230769 0.6153846
vt 0.9230769 0.6923077
vt 0.8461539 0.6923077
vt 1 0.6153846
vt 1 0.6923077
vt 0.6153846 0.2307692
vt 0.6153846 0.3076923
vt 0.6923077 0.2307692
vt 0.6923077 0.3076923
vt 0.7692308 0.2307692
vt 0.7692308 0.3076923
vt 0.8461539 0.5384616
vt 0.9230769 0.5384616
vt 1 0.5384616
vt 0.6153846 0.1538461
vt 0.6923077 0.1538461
vt 0.7692308 0.1538461
vt 0.6153846 0.07692307
vt 0.6923077 0.07692307
vt 0.7692308 0.07692307
vt 0.6153846 0
vt 0.6923077 0
vt 0.7692308 0

# Normal
vn 0 0 -1

# Mesh description
g centro2_mesh_0003

# Faces
f 1/1/1 2/2/1 3/3/1 4/4/1
f 5/2/1 6/5/1 7/6/1 8/3/1
f 9/5/1 10/7/1 11/8/1 12/6/1
f 13/9/1 14/10/1 15/11/1 16/12/1
f 17/10/1 18/13/1 19/14/1 20/11/1
f 21/13/1 22/15/1 23/16/1 24/14/1
f 25/17/1 26/18/1 27/19/1 28/20/1
f 29/18/1 30/21/1 31/22/1 32/19/1
f 33/21/1 34/23/1 35/24/1 36/22/1
f 37/23/1 38/1/1 39/4/1 40/24/1
f 41/25/1 42/26/1 43/2/1 44/1/1
f 45/26/1 46/27/1 47/5/1 48/2/1
f 49/27/1 50/28/1 51/7/1 52/5/1
f 53/29/1 54/30/1 55/31/1 56/32/1
f 57/30/1 58/33/1 59/34/1 60/31/1
f 61/33/1 62/35/1 63/36/1 64/34/1
f 65/37/1 66/38/1 67/10/1 68/9/1
f 69/38/1 70/39/1 71/13/1 72/10/1
f 73/39/1 74/40/1 75/15/1 76/13/1
f 77/9/1 78/10/1 79/11/1 80/12/1
f 81/10/1 82/13/1 83/14/1 84/11/1
f 85/13/1 86/15/1 87/16/1 88/14/1
f 89/41/1 90/42/1 91/18/1 92/17/1
f 93/42/1 94/43/1 95/21/1 96/18/1
f 97/43/1 98/44/1 99/23/1 100/21/1
f 101/44/1 102/25/1 103/1/1 104/23/1
f 105/45/1 106/46/1 107/26/1 108/25/1
f 109/46/1 110/47/1 111/27/1 112/26/1
f 113/47/1 114/48/1 115/28/1 116/27/1
f 117/49/1 118/50/1 119/30/1 120/29/1
f 121/50/1 122/51/1 123/33/1 124/30/1
f 125/51/1 126/52/1 127/35/1 128/33/1
f 129/53/1 130/54/1 131/38/1 132/37/1
f 133/54/1 134/55/1 135/39/1 136/38/1
f 137/55/1 138/56/1 139/40/1 140/39/1
f 141/37/1 142/38/1 143/10/1 144/9/1
f 145/38/1 146/39/1 147/13/1 148/10/1
f 149/39/1 150/40/1 151/15/1 152/13/1
f 153/57/1 154/58/1 155/42/1 156/41/1
f 157/58/1 158/59/1 159/43/1 160/42/1
f 161/59/1 162/60/1 163/44/1 164/43/1
f 165/60/1 166/45/1 167/25/1 168/44/1
f 169/16/1 170/61/1 171/46/1 172/45/1
f 173/61/1 174/62/1 175/47/1 176/46/1
f 177/62/1 178/63/1 179/48/1 180/47/1
f 181/64/1 182/65/1 183/66/1 184/67/1
f 185/65/1 186/68/1 187/69/1 188/66/1
f 189/68/1 190/53/1 191/37/1 192/69/1
f 193/70/1 194/71/1 195/50/1 196/49/1
f 197/71/1 198/72/1 199/51/1 200/50/1
f 201/72/1 202/73/1 203/52/1 204/51/1
f 205/74/1 206/75/1 207/54/1 208/53/1
f 209/75/1 210/76/1 211/55/1 212/54/1
f 213/76/1 214/77/1 215/56/1 216/55/1
f 217/53/1 218/54/1 219/38/1 220/37/1
f 221/54/1 222/55/1 223/39/1 224/38/1
f 225/55/1 226/56/1 227/40/1 228/39/1
f 229/78/1 230/12/1 231/58/1 232/57/1
f 233/12/1 234/11/1 235/59/1 236/58/1
f 237/11/1 238/14/1 239/60/1 240/59/1
f 241/14/1 242/16/1 243/45/1 244/60/1
f 245/79/1 246/80/1 247/65/1 248/64/1
f 249/80/1 250/81/1 251/68/1 252/65/1
f 253/81/1 254/74/1 255/53/1 256/68/1
f 257/82/1 258/83/1 259/71/1 260/70/1
f 261/83/1 262/84/1 263/72/1 264/71/1
f 265/84/1 266/85/1 267/73/1 268/72/1
f 269/86/1 270/32/1 271/75/1 272/74/1
f 273/32/1 274/31/1 275/76/1 276/75/1
f 277/31/1 278/34/1 279/77/1 280/76/1
f 281/74/1 282/75/1 283/54/1 284/53/1
f 285/75/1 286/76/1 287/55/1 288/54/1
f 289/76/1 290/77/1 291/56/1 292/55/1
f 293/87/1 294/88/1 295/89/1 296/90/1
f 297/88/1 298/91/1 299/92/1 300/89/1
f 301/93/1 302/94/1 303/80/1 304/79/1
f 305/94/1 306/95/1 307/81/1 308/80/1
f 309/95/1 310/86/1 311/74/1 312/81/1
f 313/86/1 314/32/1 315/75/1 316/74/1
f 317/32/1 318/31/1 319/76/1 320/75/1
f 321/31/1 322/34/1 323/77/1 324/76/1
f 325/96/1 326/97/1 327/98/1 328/99/1
f 329/97/1 330/100/1 331/101/1 332/98/1
f 333/99/1 334/98/1 335/88/1 336/87/1
f 337/98/1 338/101/1 339/91/1 340/88/1
f 341/35/1 342/102/1 343/103/1 344/36/1
f 345/102/1 346/104/1 347/105/1 348/103/1
f 349/104/1 350/106/1 351/107/1 352/105/1
f 353/108/1 354/109/1 355/97/1 356/96/1
f 357/109/1 358/110/1 359/100/1 360/97/1
f 361/52/1 362/111/1 363/102/1 364/35/1
f 365/111/1 366/112/1 367/104/1 368/102/1
f 369/112/1 370/113/1 371/106/1 372/104/1
f 373/17/1 374/18/1 375/19/1 376/20/1
f 377/18/1 378/21/1 379/22/1 380/19/1
f 381/21/1 382/23/1 383/24/1 384/22/1
f 385/23/1 386/1/1 387/4/1 388/24/1
f 389/1/1 390/2/1 391/3/1 392/4/1
f 393/2/1 394/5/1 395/6/1 396/3/1
f 397/5/1 398/7/1 399/8/1 400/6/1
f 401/73/1 402/114/1 403/111/1 404/52/1
f 405/114/1 406/115/1 407/112/1 408/111/1
f 409/115/1 410/116/1 411/113/1 412/112/1
f 413/41/1 414/42/1 415/18/1 416/17/1
f 417/42/1 418/43/1 419/21/1 420/18/1
f 421/43/1 422/44/1 423/23/1 424/21/1
f 425/44/1 426/25/1 427/1/1 428/23/1
f 429/96/1 430/97/1 431/98/1 432/99/1
f 433/97/1 434/100/1 435/101/1 436/98/1
f 437/25/1 438/26/1 439/2/1 440/1/1
f 441/26/1 442/27/1 443/5/1 444/2/1
f 445/27/1 446/28/1 447/7/1 448/5/1
f 449/85/1 450/117/1 451/114/1 452/73/1
f 453/117/1 454/118/1 455/115/1 456/114/1
f 457/118/1 458/119/1 459/116/1 460/115/1
f 461/57/1 462/58/1 463/42/1 464/41/1
f 465/58/1 466/59/1 467/43/1 468/42/1
f 469/59/1 470/60/1 471/44/1 472/43/1
f 473/60/1 474/45/1 475/25/1 476/44/1
f 477/108/1 478/109/1 479/97/1 480/96/1
f 481/109/1 482/110/1 483/100/1 484/97/1
f 485/45/1 486/46/1 487/26/1 488/25/1
f 489/46/1 490/47/1 491/27/1 492/26/1
f 493/47/1 494/48/1 495/28/1 496/27/1
f 497/78/1 498/12/1 499/58/1 500/57/1
f 501/12/1 502/11/1 503/59/1 504/58/1
f 505/11/1 506/14/1 507/60/1 508/59/1
f 509/14/1 510/16/1 511/45/1 512/60/1
f 513/16/1 514/61/1 515/46/1 516/45/1
f 517/61/1 518/62/1 519/47/1 520/46/1
f 521/62/1 522/63/1 523/48/1 524/47/1
f 525/64/1 526/65/1 527/66/1 528/67/1
f 529/65/1 530/68/1 531/69/1 532/66/1
f 533/68/1 534/53/1 535/37/1 536/69/1
f 537/79/1 538/80/1 539/65/1 540/64/1
f 541/80/1 542/81/1 543/68/1 544/65/1
f 545/81/1 546/74/1 547/53/1 548/68/1
f 549/93/1 550/94/1 551/80/1 552/79/1
f 553/94/1 554/95/1 555/81/1 556/80/1
f 557/95/1 558/86/1 559/74/1 560/81/1

