# Tiled2Unity generated file. Do not modify by hand.
# Wavefront file for 'Tutorial_mesh_0012.obj'

# Vertices (Count = 88)
v -12 -8 0
v -13 -8 0
v -13 -7 0
v -12 -7 0
v -13 -8 0
v -14 -8 0
v -14 -7 0
v -13 -7 0
v -14 -8 0
v -15 -8 0
v -15 -7 0
v -14 -7 0
v -20 -9 0
v -21 -9 0
v -21 -8 0
v -20 -8 0
v -21 -9 0
v -22 -9 0
v -22 -8 0
v -21 -8 0
v -12 -10 0
v -13 -10 0
v -13 -9 0
v -12 -9 0
v -13 -10 0
v -14 -10 0
v -14 -9 0
v -13 -9 0
v -14 -10 0
v -15 -10 0
v -15 -9 0
v -14 -9 0
v -20 -10 0
v -21 -10 0
v -21 -9 0
v -20 -9 0
v -21 -10 0
v -22 -10 0
v -22 -9 0
v -21 -9 0
v -12 -11 0
v -13 -11 0
v -13 -10 0
v -12 -10 0
v -13 -11 0
v -14 -11 0
v -14 -10 0
v -13 -10 0
v -14 -11 0
v -15 -11 0
v -15 -10 0
v -14 -10 0
v -5 -15 0
v -6 -15 0
v -6 -14 0
v -5 -14 0
v -6 -15 0
v -7 -15 0
v -7 -14 0
v -6 -14 0
v -5 -16 0
v -6 -16 0
v -6 -15 0
v -5 -15 0
v -6 -16 0
v -7 -16 0
v -7 -15 0
v -6 -15 0
v -5 -17 0
v -6 -17 0
v -6 -16 0
v -5 -16 0
v -6 -17 0
v -7 -17 0
v -7 -16 0
v -6 -16 0
v -7 -17 0
v -8 -17 0
v -8 -16 0
v -7 -16 0
v -6 -18 0
v -7 -18 0
v -7 -17 0
v -6 -17 0
v -7 -18 0
v -8 -18 0
v -8 -17 0
v -7 -17 0

# Texture cooridinates (Count = 33)
vt 0.125 0.8055556
vt 0.15 0.8055556
vt 0.15 0.8333333
vt 0.125 0.8333333
vt 0.175 0.8055556
vt 0.175 0.8333333
vt 0.2 0.8055556
vt 0.2 0.8333333
vt 0.075 0.7777778
vt 0.1 0.7777778
vt 0.1 0.8055556
vt 0.075 0.8055556
vt 0.125 0.7777778
vt 0.15 0.7777778
vt 0.175 0.7777778
vt 0.2 0.7777778
vt 0.125 0.75
vt 0.15 0.75
vt 0.175 0.75
vt 0.2 0.75
vt 0.125 0.5277778
vt 0.15 0.5277778
vt 0.15 0.5555556
vt 0.125 0.5555556
vt 0.175 0.5277778
vt 0.175 0.5555556
vt 0.15 0.4722222
vt 0.175 0.4722222
vt 0.175 0.5
vt 0.15 0.5
vt 0.2 0.4722222
vt 0.2 0.5
vt 0.125 0.5

# Normal
vn 0 0 -1

# Mesh description
g Tutorial_mesh_0012

# Faces
f 1/1/1 2/2/1 3/3/1 4/4/1
f 5/2/1 6/5/1 7/6/1 8/3/1
f 9/5/1 10/7/1 11/8/1 12/6/1
f 13/9/1 14/10/1 15/11/1 16/12/1
f 17/9/1 18/10/1 19/11/1 20/12/1
f 21/13/1 22/14/1 23/2/1 24/1/1
f 25/9/1 26/10/1 27/11/1 28/12/1
f 29/15/1 30/16/1 31/7/1 32/5/1
f 33/9/1 34/10/1 35/11/1 36/12/1
f 37/9/1 38/10/1 39/11/1 40/12/1
f 41/17/1 42/18/1 43/14/1 44/13/1
f 45/18/1 46/19/1 47/15/1 48/14/1
f 49/19/1 50/20/1 51/16/1 52/15/1
f 53/21/1 54/22/1 55/23/1 56/24/1
f 57/22/1 58/25/1 59/26/1 60/23/1
f 61/27/1 62/28/1 63/29/1 64/30/1
f 65/28/1 66/31/1 67/32/1 68/29/1
f 69/33/1 70/30/1 71/22/1 72/21/1
f 73/27/1 74/28/1 75/29/1 76/30/1
f 77/22/1 78/25/1 79/26/1 80/23/1
f 81/27/1 82/28/1 83/29/1 84/30/1
f 85/28/1 86/31/1 87/32/1 88/29/1

