# Tiled2Unity generated file. Do not modify by hand.
# Wavefront file for 'Tutorial_mesh_0004.obj'

# Vertices (Count = 32)
v -3 -8 0
v -4 -8 0
v -4 -7 0
v -3 -7 0
v -4 -8 0
v -5 -8 0
v -5 -7 0
v -4 -7 0
v -3 -9 0
v -4 -9 0
v -4 -8 0
v -3 -8 0
v -4 -9 0
v -5 -9 0
v -5 -8 0
v -4 -8 0
v -3 -10 0
v -4 -10 0
v -4 -9 0
v -3 -9 0
v -4 -10 0
v -5 -10 0
v -5 -9 0
v -4 -9 0
v -3 -11 0
v -4 -11 0
v -4 -10 0
v -3 -10 0
v -4 -11 0
v -5 -11 0
v -5 -10 0
v -4 -10 0

# Texture cooridinates (Count = 9)
vt 0.225 0.6666666
vt 0.25 0.6666666
vt 0.25 0.6944444
vt 0.225 0.6944444
vt 0.275 0.6666666
vt 0.275 0.6944444
vt 0.225 0.6388889
vt 0.25 0.6388889
vt 0.275 0.6388889

# Normal
vn 0 0 -1

# Mesh description
g Tutorial_mesh_0004

# Faces
f 1/1/1 2/2/1 3/3/1 4/4/1
f 5/2/1 6/5/1 7/6/1 8/3/1
f 9/7/1 10/8/1 11/2/1 12/1/1
f 13/8/1 14/9/1 15/5/1 16/2/1
f 17/1/1 18/2/1 19/3/1 20/4/1
f 21/2/1 22/5/1 23/6/1 24/3/1
f 25/7/1 26/8/1 27/2/1 28/1/1
f 29/8/1 30/9/1 31/5/1 32/2/1

