# Tiled2Unity generated file. Do not modify by hand.
# Wavefront file for 'Tutorial_mesh_0009.obj'

# Vertices (Count = 644)
v -4 -4 0
v -5 -4 0
v -5 -3 0
v -4 -3 0
v -5 -4 0
v -6 -4 0
v -6 -3 0
v -5 -3 0
v -6 -4 0
v -7 -4 0
v -7 -3 0
v -6 -3 0
v -4 -5 0
v -5 -5 0
v -5 -4 0
v -4 -4 0
v -5 -5 0
v -6 -5 0
v -6 -4 0
v -5 -4 0
v -6 -5 0
v -7 -5 0
v -7 -4 0
v -6 -4 0
v -4 -6 0
v -5 -6 0
v -5 -5 0
v -4 -5 0
v -5 -6 0
v -6 -6 0
v -6 -5 0
v -5 -5 0
v -6 -6 0
v -7 -6 0
v -7 -5 0
v -6 -5 0
v -4 -7 0
v -5 -7 0
v -5 -6 0
v -4 -6 0
v -5 -7 0
v -6 -7 0
v -6 -6 0
v -5 -6 0
v -6 -7 0
v -7 -7 0
v -7 -6 0
v -6 -6 0
v -3 -11 0
v -4 -11 0
v -4 -10 0
v -3 -10 0
v -4 -11 0
v -5 -11 0
v -5 -10 0
v -4 -10 0
v -5 -11 0
v -6 -11 0
v -6 -10 0
v -5 -10 0
v -6 -11 0
v -7 -11 0
v -7 -10 0
v -6 -10 0
v -3 -12 0
v -4 -12 0
v -4 -11 0
v -3 -11 0
v -4 -12 0
v -5 -12 0
v -5 -11 0
v -4 -11 0
v -5 -12 0
v -6 -12 0
v -6 -11 0
v -5 -11 0
v -6 -12 0
v -7 -12 0
v -7 -11 0
v -6 -11 0
v -3 -13 0
v -4 -13 0
v -4 -12 0
v -3 -12 0
v -4 -13 0
v -5 -13 0
v -5 -12 0
v -4 -12 0
v -5 -13 0
v -6 -13 0
v -6 -12 0
v -5 -12 0
v -6 -13 0
v -7 -13 0
v -7 -12 0
v -6 -12 0
v -22 -13 0
v -23 -13 0
v -23 -12 0
v -22 -12 0
v -23 -13 0
v -24 -13 0
v -24 -12 0
v -23 -12 0
v -24 -13 0
v -25 -13 0
v -25 -12 0
v -24 -12 0
v -3 -14 0
v -4 -14 0
v -4 -13 0
v -3 -13 0
v -4 -14 0
v -5 -14 0
v -5 -13 0
v -4 -13 0
v -5 -14 0
v -6 -14 0
v -6 -13 0
v -5 -13 0
v -6 -14 0
v -7 -14 0
v -7 -13 0
v -6 -13 0
v -22 -14 0
v -23 -14 0
v -23 -13 0
v -22 -13 0
v -23 -14 0
v -24 -14 0
v -24 -13 0
v -23 -13 0
v -24 -14 0
v -25 -14 0
v -25 -13 0
v -24 -13 0
v -22 -15 0
v -23 -15 0
v -23 -14 0
v -22 -14 0
v -23 -15 0
v -24 -15 0
v -24 -14 0
v -23 -14 0
v -24 -15 0
v -25 -15 0
v -25 -14 0
v -24 -14 0
v -22 -16 0
v -23 -16 0
v -23 -15 0
v -22 -15 0
v -23 -16 0
v -24 -16 0
v -24 -15 0
v -23 -15 0
v -24 -16 0
v -25 -16 0
v -25 -15 0
v -24 -15 0
v -11 -20 0
v -12 -20 0
v -12 -19 0
v -11 -19 0
v -12 -20 0
v -13 -20 0
v -13 -19 0
v -12 -19 0
v -13 -20 0
v -14 -20 0
v -14 -19 0
v -13 -19 0
v -1 -21 0
v -2 -21 0
v -2 -20 0
v -1 -20 0
v -2 -21 0
v -3 -21 0
v -3 -20 0
v -2 -20 0
v -3 -21 0
v -4 -21 0
v -4 -20 0
v -3 -20 0
v -11 -21 0
v -12 -21 0
v -12 -20 0
v -11 -20 0
v -12 -21 0
v -13 -21 0
v -13 -20 0
v -12 -20 0
v -13 -21 0
v -14 -21 0
v -14 -20 0
v -13 -20 0
v -17 -21 0
v -18 -21 0
v -18 -20 0
v -17 -20 0
v -18 -21 0
v -19 -21 0
v -19 -20 0
v -18 -20 0
v -19 -21 0
v -20 -21 0
v -20 -20 0
v -19 -20 0
v -1 -22 0
v -2 -22 0
v -2 -21 0
v -1 -21 0
v -2 -22 0
v -3 -22 0
v -3 -21 0
v -2 -21 0
v -3 -22 0
v -4 -22 0
v -4 -21 0
v -3 -21 0
v -11 -22 0
v -12 -22 0
v -12 -21 0
v -11 -21 0
v -12 -22 0
v -13 -22 0
v -13 -21 0
v -12 -21 0
v -13 -22 0
v -14 -22 0
v -14 -21 0
v -13 -21 0
v -17 -22 0
v -18 -22 0
v -18 -21 0
v -17 -21 0
v -18 -22 0
v -19 -22 0
v -19 -21 0
v -18 -21 0
v -19 -22 0
v -20 -22 0
v -20 -21 0
v -19 -21 0
v -1 -23 0
v -2 -23 0
v -2 -22 0
v -1 -22 0
v -2 -23 0
v -3 -23 0
v -3 -22 0
v -2 -22 0
v -3 -23 0
v -4 -23 0
v -4 -22 0
v -3 -22 0
v -5 -23 0
v -6 -23 0
v -6 -22 0
v -5 -22 0
v -6 -23 0
v -7 -23 0
v -7 -22 0
v -6 -22 0
v -7 -23 0
v -8 -23 0
v -8 -22 0
v -7 -22 0
v -11 -23 0
v -12 -23 0
v -12 -22 0
v -11 -22 0
v -12 -23 0
v -13 -23 0
v -13 -22 0
v -12 -22 0
v -13 -23 0
v -14 -23 0
v -14 -22 0
v -13 -22 0
v -17 -23 0
v -18 -23 0
v -18 -22 0
v -17 -22 0
v -18 -23 0
v -19 -23 0
v -19 -22 0
v -18 -22 0
v -19 -23 0
v -20 -23 0
v -20 -22 0
v -19 -22 0
v -27 -23 0
v -28 -23 0
v -28 -22 0
v -27 -22 0
v -1 -24 0
v -2 -24 0
v -2 -23 0
v -1 -23 0
v -2 -24 0
v -3 -24 0
v -3 -23 0
v -2 -23 0
v -3 -24 0
v -4 -24 0
v -4 -23 0
v -3 -23 0
v -5 -24 0
v -6 -24 0
v -6 -23 0
v -5 -23 0
v -6 -24 0
v -7 -24 0
v -7 -23 0
v -6 -23 0
v -7 -24 0
v -8 -24 0
v -8 -23 0
v -7 -23 0
v -11 -24 0
v -12 -24 0
v -12 -23 0
v -11 -23 0
v -12 -24 0
v -13 -24 0
v -13 -23 0
v -12 -23 0
v -13 -24 0
v -14 -24 0
v -14 -23 0
v -13 -23 0
v -14 -24 0
v -15 -24 0
v -15 -23 0
v -14 -23 0
v -15 -24 0
v -16 -24 0
v -16 -23 0
v -15 -23 0
v -16 -24 0
v -17 -24 0
v -17 -23 0
v -16 -23 0
v -17 -24 0
v -18 -24 0
v -18 -23 0
v -17 -23 0
v -18 -24 0
v -19 -24 0
v -19 -23 0
v -18 -23 0
v -19 -24 0
v -20 -24 0
v -20 -23 0
v -19 -23 0
v -1 -25 0
v -2 -25 0
v -2 -24 0
v -1 -24 0
v -2 -25 0
v -3 -25 0
v -3 -24 0
v -2 -24 0
v -3 -25 0
v -4 -25 0
v -4 -24 0
v -3 -24 0
v -5 -25 0
v -6 -25 0
v -6 -24 0
v -5 -24 0
v -6 -25 0
v -7 -25 0
v -7 -24 0
v -6 -24 0
v -7 -25 0
v -8 -25 0
v -8 -24 0
v -7 -24 0
v -9 -25 0
v -10 -25 0
v -10 -24 0
v -9 -24 0
v -10 -25 0
v -11 -25 0
v -11 -24 0
v -10 -24 0
v -11 -25 0
v -12 -25 0
v -12 -24 0
v -11 -24 0
v -14 -25 0
v -15 -25 0
v -15 -24 0
v -14 -24 0
v -15 -25 0
v -16 -25 0
v -16 -24 0
v -15 -24 0
v -16 -25 0
v -17 -25 0
v -17 -24 0
v -16 -24 0
v -17 -25 0
v -18 -25 0
v -18 -24 0
v -17 -24 0
v -18 -25 0
v -19 -25 0
v -19 -24 0
v -18 -24 0
v -19 -25 0
v -20 -25 0
v -20 -24 0
v -19 -24 0
v -20 -25 0
v -21 -25 0
v -21 -24 0
v -20 -24 0
v -21 -25 0
v -22 -25 0
v -22 -24 0
v -21 -24 0
v -22 -25 0
v -23 -25 0
v -23 -24 0
v -22 -24 0
v -25 -25 0
v -26 -25 0
v -26 -24 0
v -25 -24 0
v -26 -25 0
v -27 -25 0
v -27 -24 0
v -26 -24 0
v -27 -25 0
v -28 -25 0
v -28 -24 0
v -27 -24 0
v -5 -26 0
v -6 -26 0
v -6 -25 0
v -5 -25 0
v -6 -26 0
v -7 -26 0
v -7 -25 0
v -6 -25 0
v -7 -26 0
v -8 -26 0
v -8 -25 0
v -7 -25 0
v -9 -26 0
v -10 -26 0
v -10 -25 0
v -9 -25 0
v -10 -26 0
v -11 -26 0
v -11 -25 0
v -10 -25 0
v -11 -26 0
v -12 -26 0
v -12 -25 0
v -11 -25 0
v -14 -26 0
v -15 -26 0
v -15 -25 0
v -14 -25 0
v -15 -26 0
v -16 -26 0
v -16 -25 0
v -15 -25 0
v -16 -26 0
v -17 -26 0
v -17 -25 0
v -16 -25 0
v -20 -26 0
v -21 -26 0
v -21 -25 0
v -20 -25 0
v -21 -26 0
v -22 -26 0
v -22 -25 0
v -21 -25 0
v -22 -26 0
v -23 -26 0
v -23 -25 0
v -22 -25 0
v -25 -26 0
v -26 -26 0
v -26 -25 0
v -25 -25 0
v -26 -26 0
v -27 -26 0
v -27 -25 0
v -26 -25 0
v -27 -26 0
v -28 -26 0
v -28 -25 0
v -27 -25 0
v -5 -27 0
v -6 -27 0
v -6 -26 0
v -5 -26 0
v -6 -27 0
v -7 -27 0
v -7 -26 0
v -6 -26 0
v -7 -27 0
v -8 -27 0
v -8 -26 0
v -7 -26 0
v -9 -27 0
v -10 -27 0
v -10 -26 0
v -9 -26 0
v -10 -27 0
v -11 -27 0
v -11 -26 0
v -10 -26 0
v -11 -27 0
v -12 -27 0
v -12 -26 0
v -11 -26 0
v -14 -27 0
v -15 -27 0
v -15 -26 0
v -14 -26 0
v -15 -27 0
v -16 -27 0
v -16 -26 0
v -15 -26 0
v -16 -27 0
v -17 -27 0
v -17 -26 0
v -16 -26 0
v -20 -27 0
v -21 -27 0
v -21 -26 0
v -20 -26 0
v -21 -27 0
v -22 -27 0
v -22 -26 0
v -21 -26 0
v -22 -27 0
v -23 -27 0
v -23 -26 0
v -22 -26 0
v -25 -27 0
v -26 -27 0
v -26 -26 0
v -25 -26 0
v -26 -27 0
v -27 -27 0
v -27 -26 0
v -26 -26 0
v -27 -27 0
v -28 -27 0
v -28 -26 0
v -27 -26 0
v -9 -28 0
v -10 -28 0
v -10 -27 0
v -9 -27 0
v -10 -28 0
v -11 -28 0
v -11 -27 0
v -10 -27 0
v -11 -28 0
v -12 -28 0
v -12 -27 0
v -11 -27 0
v -14 -28 0
v -15 -28 0
v -15 -27 0
v -14 -27 0
v -15 -28 0
v -16 -28 0
v -16 -27 0
v -15 -27 0
v -16 -28 0
v -17 -28 0
v -17 -27 0
v -16 -27 0
v -20 -28 0
v -21 -28 0
v -21 -27 0
v -20 -27 0
v -21 -28 0
v -22 -28 0
v -22 -27 0
v -21 -27 0
v -22 -28 0
v -23 -28 0
v -23 -27 0
v -22 -27 0
v -25 -28 0
v -26 -28 0
v -26 -27 0
v -25 -27 0
v -26 -28 0
v -27 -28 0
v -27 -27 0
v -26 -27 0
v -27 -28 0
v -28 -28 0
v -28 -27 0
v -27 -27 0
v -9 -29 0
v -10 -29 0
v -10 -28 0
v -9 -28 0
v -10 -29 0
v -11 -29 0
v -11 -28 0
v -10 -28 0
v -11 -29 0
v -12 -29 0
v -12 -28 0
v -11 -28 0
v -20 -29 0
v -21 -29 0
v -21 -28 0
v -20 -28 0
v -21 -29 0
v -22 -29 0
v -22 -28 0
v -21 -28 0
v -22 -29 0
v -23 -29 0
v -23 -28 0
v -22 -28 0
v -25 -29 0
v -26 -29 0
v -26 -28 0
v -25 -28 0
v -26 -29 0
v -27 -29 0
v -27 -28 0
v -26 -28 0
v -27 -29 0
v -28 -29 0
v -28 -28 0
v -27 -28 0

# Texture cooridinates (Count = 60)
vt 0.4615385 0.9230769
vt 0.5384616 0.9230769
vt 0.5384616 1
vt 0.4615385 1
vt 0.6153846 0.9230769
vt 0.6153846 1
vt 0.6923077 0.9230769
vt 0.6923077 1
vt 0.4615385 0.8461539
vt 0.5384616 0.8461539
vt 0.6153846 0.8461539
vt 0.6923077 0.8461539
vt 0.4615385 0.7692308
vt 0.5384616 0.7692308
vt 0.6153846 0.7692308
vt 0.6923077 0.7692308
vt 0.4615385 0.6923077
vt 0.5384616 0.6923077
vt 0.6153846 0.6923077
vt 0.6923077 0.6923077
vt 0.1538462 0.9230769
vt 0.2307692 0.9230769
vt 0.2307692 1
vt 0.1538462 1
vt 0.3076923 0.9230769
vt 0.3076923 1
vt 0.3846154 0.9230769
vt 0.3846154 1
vt 0.1538462 0.8461539
vt 0.2307692 0.8461539
vt 0.3076923 0.8461539
vt 0.3846154 0.8461539
vt 0.1538462 0.7692308
vt 0.2307692 0.7692308
vt 0.3076923 0.7692308
vt 0.3846154 0.7692308
vt 0.1538462 0.6923077
vt 0.2307692 0.6923077
vt 0.3076923 0.6923077
vt 0.3846154 0.6923077
vt 0.2307692 0.6153846
vt 0.3076923 0.6153846
vt 0.3846154 0.6153846
vt 0.4615385 0.6153846
vt 0.2307692 0.5384616
vt 0.3076923 0.5384616
vt 0.3846154 0.5384616
vt 0.4615385 0.5384616
vt 0.2307692 0.4615384
vt 0.3076923 0.4615384
vt 0.3846154 0.4615384
vt 0.4615385 0.4615384
vt 0.2307692 0.3846154
vt 0.3076923 0.3846154
vt 0.3846154 0.3846154
vt 0.4615385 0.3846154
vt 0.2307692 0.3076923
vt 0.3076923 0.3076923
vt 0.3846154 0.3076923
vt 0.4615385 0.3076923

# Normal
vn 0 0 -1

# Mesh description
g Tutorial_mesh_0009

# Faces
f 1/1/1 2/2/1 3/3/1 4/4/1
f 5/2/1 6/5/1 7/6/1 8/3/1
f 9/5/1 10/7/1 11/8/1 12/6/1
f 13/9/1 14/10/1 15/2/1 16/1/1
f 17/10/1 18/11/1 19/5/1 20/2/1
f 21/11/1 22/12/1 23/7/1 24/5/1
f 25/13/1 26/14/1 27/10/1 28/9/1
f 29/14/1 30/15/1 31/11/1 32/10/1
f 33/15/1 34/16/1 35/12/1 36/11/1
f 37/17/1 38/18/1 39/14/1 40/13/1
f 41/18/1 42/19/1 43/15/1 44/14/1
f 45/19/1 46/20/1 47/16/1 48/15/1
f 49/21/1 50/22/1 51/23/1 52/24/1
f 53/22/1 54/25/1 55/26/1 56/23/1
f 57/25/1 58/27/1 59/28/1 60/26/1
f 61/27/1 62/1/1 63/4/1 64/28/1
f 65/29/1 66/30/1 67/22/1 68/21/1
f 69/30/1 70/31/1 71/25/1 72/22/1
f 73/31/1 74/32/1 75/27/1 76/25/1
f 77/32/1 78/9/1 79/1/1 80/27/1
f 81/33/1 82/34/1 83/30/1 84/29/1
f 85/34/1 86/35/1 87/31/1 88/30/1
f 89/35/1 90/36/1 91/32/1 92/31/1
f 93/36/1 94/13/1 95/9/1 96/32/1
f 97/1/1 98/2/1 99/3/1 100/4/1
f 101/2/1 102/5/1 103/6/1 104/3/1
f 105/5/1 106/7/1 107/8/1 108/6/1
f 109/37/1 110/38/1 111/34/1 112/33/1
f 113/38/1 114/39/1 115/35/1 116/34/1
f 117/39/1 118/40/1 119/36/1 120/35/1
f 121/40/1 122/17/1 123/13/1 124/36/1
f 125/9/1 126/10/1 127/2/1 128/1/1
f 129/10/1 130/11/1 131/5/1 132/2/1
f 133/11/1 134/12/1 135/7/1 136/5/1
f 137/13/1 138/14/1 139/10/1 140/9/1
f 141/14/1 142/15/1 143/11/1 144/10/1
f 145/15/1 146/16/1 147/12/1 148/11/1
f 149/17/1 150/18/1 151/14/1 152/13/1
f 153/18/1 154/19/1 155/15/1 156/14/1
f 157/19/1 158/20/1 159/16/1 160/15/1
f 161/41/1 162/42/1 163/39/1 164/38/1
f 165/42/1 166/43/1 167/40/1 168/39/1
f 169/43/1 170/44/1 171/17/1 172/40/1
f 173/41/1 174/42/1 175/39/1 176/38/1
f 177/42/1 178/43/1 179/40/1 180/39/1
f 181/43/1 182/44/1 183/17/1 184/40/1
f 185/45/1 186/46/1 187/42/1 188/41/1
f 189/46/1 190/47/1 191/43/1 192/42/1
f 193/47/1 194/48/1 195/44/1 196/43/1
f 197/41/1 198/42/1 199/39/1 200/38/1
f 201/42/1 202/43/1 203/40/1 204/39/1
f 205/43/1 206/44/1 207/17/1 208/40/1
f 209/45/1 210/46/1 211/42/1 212/41/1
f 213/46/1 214/47/1 215/43/1 216/42/1
f 217/47/1 218/48/1 219/44/1 220/43/1
f 221/49/1 222/50/1 223/46/1 224/45/1
f 225/50/1 226/51/1 227/47/1 228/46/1
f 229/51/1 230/52/1 231/48/1 232/47/1
f 233/45/1 234/46/1 235/42/1 236/41/1
f 237/46/1 238/47/1 239/43/1 240/42/1
f 241/47/1 242/48/1 243/44/1 244/43/1
f 245/49/1 246/50/1 247/46/1 248/45/1
f 249/50/1 250/51/1 251/47/1 252/46/1
f 253/51/1 254/52/1 255/48/1 256/47/1
f 257/41/1 258/42/1 259/39/1 260/38/1
f 261/42/1 262/43/1 263/40/1 264/39/1
f 265/43/1 266/44/1 267/17/1 268/40/1
f 269/53/1 270/54/1 271/50/1 272/49/1
f 273/54/1 274/55/1 275/51/1 276/50/1
f 277/55/1 278/56/1 279/52/1 280/51/1
f 281/49/1 282/50/1 283/46/1 284/45/1
f 285/50/1 286/51/1 287/47/1 288/46/1
f 289/51/1 290/52/1 291/48/1 292/47/1
f 293/41/1 294/42/1 295/39/1 296/38/1
f 297/53/1 298/54/1 299/50/1 300/49/1
f 301/54/1 302/55/1 303/51/1 304/50/1
f 305/55/1 306/56/1 307/52/1 308/51/1
f 309/45/1 310/46/1 311/42/1 312/41/1
f 313/46/1 314/47/1 315/43/1 316/42/1
f 317/47/1 318/48/1 319/44/1 320/43/1
f 321/57/1 322/58/1 323/54/1 324/53/1
f 325/58/1 326/59/1 327/55/1 328/54/1
f 329/59/1 330/60/1 331/56/1 332/55/1
f 333/41/1 334/42/1 335/39/1 336/38/1
f 337/42/1 338/43/1 339/40/1 340/39/1
f 341/43/1 342/44/1 343/17/1 344/40/1
f 345/53/1 346/54/1 347/50/1 348/49/1
f 349/54/1 350/55/1 351/51/1 352/50/1
f 353/55/1 354/56/1 355/52/1 356/51/1
f 357/57/1 358/58/1 359/54/1 360/53/1
f 361/58/1 362/59/1 363/55/1 364/54/1
f 365/59/1 366/60/1 367/56/1 368/55/1
f 369/49/1 370/50/1 371/46/1 372/45/1
f 373/50/1 374/51/1 375/47/1 376/46/1
f 377/51/1 378/52/1 379/48/1 380/47/1
f 381/41/1 382/42/1 383/39/1 384/38/1
f 385/42/1 386/43/1 387/40/1 388/39/1
f 389/43/1 390/44/1 391/17/1 392/40/1
f 393/45/1 394/46/1 395/42/1 396/41/1
f 397/46/1 398/47/1 399/43/1 400/42/1
f 401/47/1 402/48/1 403/44/1 404/43/1
f 405/57/1 406/58/1 407/54/1 408/53/1
f 409/58/1 410/59/1 411/55/1 412/54/1
f 413/59/1 414/60/1 415/56/1 416/55/1
f 417/41/1 418/42/1 419/39/1 420/38/1
f 421/42/1 422/43/1 423/40/1 424/39/1
f 425/43/1 426/44/1 427/17/1 428/40/1
f 429/41/1 430/42/1 431/39/1 432/38/1
f 433/42/1 434/43/1 435/40/1 436/39/1
f 437/43/1 438/44/1 439/17/1 440/40/1
f 441/53/1 442/54/1 443/50/1 444/49/1
f 445/54/1 446/55/1 447/51/1 448/50/1
f 449/55/1 450/56/1 451/52/1 452/51/1
f 453/45/1 454/46/1 455/42/1 456/41/1
f 457/46/1 458/47/1 459/43/1 460/42/1
f 461/47/1 462/48/1 463/44/1 464/43/1
f 465/49/1 466/50/1 467/46/1 468/45/1
f 469/50/1 470/51/1 471/47/1 472/46/1
f 473/51/1 474/52/1 475/48/1 476/47/1
f 477/45/1 478/46/1 479/42/1 480/41/1
f 481/46/1 482/47/1 483/43/1 484/42/1
f 485/47/1 486/48/1 487/44/1 488/43/1
f 489/45/1 490/46/1 491/42/1 492/41/1
f 493/46/1 494/47/1 495/43/1 496/42/1
f 497/47/1 498/48/1 499/44/1 500/43/1
f 501/57/1 502/58/1 503/54/1 504/53/1
f 505/58/1 506/59/1 507/55/1 508/54/1
f 509/59/1 510/60/1 511/56/1 512/55/1
f 513/49/1 514/50/1 515/46/1 516/45/1
f 517/50/1 518/51/1 519/47/1 520/46/1
f 521/51/1 522/52/1 523/48/1 524/47/1
f 525/53/1 526/54/1 527/50/1 528/49/1
f 529/54/1 530/55/1 531/51/1 532/50/1
f 533/55/1 534/56/1 535/52/1 536/51/1
f 537/49/1 538/50/1 539/46/1 540/45/1
f 541/50/1 542/51/1 543/47/1 544/46/1
f 545/51/1 546/52/1 547/48/1 548/47/1
f 549/49/1 550/50/1 551/46/1 552/45/1
f 553/50/1 554/51/1 555/47/1 556/46/1
f 557/51/1 558/52/1 559/48/1 560/47/1
f 561/53/1 562/54/1 563/50/1 564/49/1
f 565/54/1 566/55/1 567/51/1 568/50/1
f 569/55/1 570/56/1 571/52/1 572/51/1
f 573/57/1 574/58/1 575/54/1 576/53/1
f 577/58/1 578/59/1 579/55/1 580/54/1
f 581/59/1 582/60/1 583/56/1 584/55/1
f 585/53/1 586/54/1 587/50/1 588/49/1
f 589/54/1 590/55/1 591/51/1 592/50/1
f 593/55/1 594/56/1 595/52/1 596/51/1
f 597/53/1 598/54/1 599/50/1 600/49/1
f 601/54/1 602/55/1 603/51/1 604/50/1
f 605/55/1 606/56/1 607/52/1 608/51/1
f 609/57/1 610/58/1 611/54/1 612/53/1
f 613/58/1 614/59/1 615/55/1 616/54/1
f 617/59/1 618/60/1 619/56/1 620/55/1
f 621/57/1 622/58/1 623/54/1 624/53/1
f 625/58/1 626/59/1 627/55/1 628/54/1
f 629/59/1 630/60/1 631/56/1 632/55/1
f 633/57/1 634/58/1 635/54/1 636/53/1
f 637/58/1 638/59/1 639/55/1 640/54/1
f 641/59/1 642/60/1 643/56/1 644/55/1

