# Tiled2Unity generated file. Do not modify by hand.
# Wavefront file for 'Tutorial_mesh_0002.obj'

# Vertices (Count = 280)
v -7 -1 0
v -8 -1 0
v -8 0 0
v -7 0 0
v -8 -1 0
v -9 -1 0
v -9 0 0
v -8 0 0
v -18 -1 0
v -19 -1 0
v -19 0 0
v -18 0 0
v -19 -1 0
v -20 -1 0
v -20 0 0
v -19 0 0
v -6 -2 0
v -7 -2 0
v -7 -1 0
v -6 -1 0
v -7 -2 0
v -8 -2 0
v -8 -1 0
v -7 -1 0
v -8 -2 0
v -9 -2 0
v -9 -1 0
v -8 -1 0
v -18 -2 0
v -19 -2 0
v -19 -1 0
v -18 -1 0
v -19 -2 0
v -20 -2 0
v -20 -1 0
v -19 -1 0
v -20 -2 0
v -21 -2 0
v -21 -1 0
v -20 -1 0
v -21 -2 0
v -22 -2 0
v -22 -1 0
v -21 -1 0
v -6 -3 0
v -7 -3 0
v -7 -2 0
v -6 -2 0
v -7 -3 0
v -8 -3 0
v -8 -2 0
v -7 -2 0
v -18 -3 0
v -19 -3 0
v -19 -2 0
v -18 -2 0
v -19 -3 0
v -20 -3 0
v -20 -2 0
v -19 -2 0
v -20 -3 0
v -21 -3 0
v -21 -2 0
v -20 -2 0
v -21 -3 0
v -22 -3 0
v -22 -2 0
v -21 -2 0
v -5 -4 0
v -6 -4 0
v -6 -3 0
v -5 -3 0
v -6 -4 0
v -7 -4 0
v -7 -3 0
v -6 -3 0
v -7 -4 0
v -8 -4 0
v -8 -3 0
v -7 -3 0
v -20 -4 0
v -21 -4 0
v -21 -3 0
v -20 -3 0
v -21 -4 0
v -22 -4 0
v -22 -3 0
v -21 -3 0
v -5 -5 0
v -6 -5 0
v -6 -4 0
v -5 -4 0
v -6 -5 0
v -7 -5 0
v -7 -4 0
v -6 -4 0
v -20 -5 0
v -21 -5 0
v -21 -4 0
v -20 -4 0
v -21 -5 0
v -22 -5 0
v -22 -4 0
v -21 -4 0
v -20 -6 0
v -21 -6 0
v -21 -5 0
v -20 -5 0
v -21 -6 0
v -22 -6 0
v -22 -5 0
v -21 -5 0
v -22 -6 0
v -23 -6 0
v -23 -5 0
v -22 -5 0
v -21 -7 0
v -22 -7 0
v -22 -6 0
v -21 -6 0
v -22 -7 0
v -23 -7 0
v -23 -6 0
v -22 -6 0
v -21 -8 0
v -22 -8 0
v -22 -7 0
v -21 -7 0
v -22 -8 0
v -23 -8 0
v -23 -7 0
v -22 -7 0
v -22 -11 0
v -23 -11 0
v -23 -10 0
v -22 -10 0
v -23 -11 0
v -24 -11 0
v -24 -10 0
v -23 -10 0
v -22 -12 0
v -23 -12 0
v -23 -11 0
v -22 -11 0
v -23 -12 0
v -24 -12 0
v -24 -11 0
v -23 -11 0
v -21 -13 0
v -22 -13 0
v -22 -12 0
v -21 -12 0
v -22 -13 0
v -23 -13 0
v -23 -12 0
v -22 -12 0
v -21 -14 0
v -22 -14 0
v -22 -13 0
v -21 -13 0
v -22 -14 0
v -23 -14 0
v -23 -13 0
v -22 -13 0
v -21 -15 0
v -22 -15 0
v -22 -14 0
v -21 -14 0
v -22 -15 0
v -23 -15 0
v -23 -14 0
v -22 -14 0
v -11 -16 0
v -12 -16 0
v -12 -15 0
v -11 -15 0
v -12 -16 0
v -13 -16 0
v -13 -15 0
v -12 -15 0
v -13 -16 0
v -14 -16 0
v -14 -15 0
v -13 -15 0
v -14 -16 0
v -15 -16 0
v -15 -15 0
v -14 -15 0
v -21 -16 0
v -22 -16 0
v -22 -15 0
v -21 -15 0
v -22 -16 0
v -23 -16 0
v -23 -15 0
v -22 -15 0
v -11 -17 0
v -12 -17 0
v -12 -16 0
v -11 -16 0
v -12 -17 0
v -13 -17 0
v -13 -16 0
v -12 -16 0
v -13 -17 0
v -14 -17 0
v -14 -16 0
v -13 -16 0
v -14 -17 0
v -15 -17 0
v -15 -16 0
v -14 -16 0
v -21 -17 0
v -22 -17 0
v -22 -16 0
v -21 -16 0
v -22 -17 0
v -23 -17 0
v -23 -16 0
v -22 -16 0
v -6 -18 0
v -7 -18 0
v -7 -17 0
v -6 -17 0
v -7 -18 0
v -8 -18 0
v -8 -17 0
v -7 -17 0
v -11 -18 0
v -12 -18 0
v -12 -17 0
v -11 -17 0
v -12 -18 0
v -13 -18 0
v -13 -17 0
v -12 -17 0
v -13 -18 0
v -14 -18 0
v -14 -17 0
v -13 -17 0
v -14 -18 0
v -15 -18 0
v -15 -17 0
v -14 -17 0
v -21 -18 0
v -22 -18 0
v -22 -17 0
v -21 -17 0
v -22 -18 0
v -23 -18 0
v -23 -17 0
v -22 -17 0
v -6 -19 0
v -7 -19 0
v -7 -18 0
v -6 -18 0
v -7 -19 0
v -8 -19 0
v -8 -18 0
v -7 -18 0
v -20 -19 0
v -21 -19 0
v -21 -18 0
v -20 -18 0
v -21 -19 0
v -22 -19 0
v -22 -18 0
v -21 -18 0
v -22 -19 0
v -23 -19 0
v -23 -18 0
v -22 -18 0
v -20 -20 0
v -21 -20 0
v -21 -19 0
v -20 -19 0
v -21 -20 0
v -22 -20 0
v -22 -19 0
v -21 -19 0

# Texture cooridinates (Count = 35)
vt 0.125 0.5277778
vt 0.15 0.5277778
vt 0.15 0.5555556
vt 0.125 0.5555556
vt 0.175 0.5277778
vt 0.175 0.5555556
vt 0.1 0.4444444
vt 0.125 0.4444444
vt 0.125 0.4722222
vt 0.1 0.4722222
vt 0.15 0.5
vt 0.175 0.5
vt 0.15 0.4722222
vt 0.175 0.4722222
vt 0.2 0.4722222
vt 0.2 0.5
vt 0.125 0.5
vt 0.075 0.4444444
vt 0.075 0.4722222
vt 0.35 0.1666667
vt 0.375 0.1666667
vt 0.375 0.1944444
vt 0.35 0.1944444
vt 0.4 0.1666667
vt 0.4 0.1944444
vt 0.425 0.1666667
vt 0.425 0.1944444
vt 0.35 0.1388889
vt 0.375 0.1388889
vt 0.4 0.1388889
vt 0.425 0.1388889
vt 0.35 0.1111111
vt 0.375 0.1111111
vt 0.4 0.1111111
vt 0.425 0.1111111

# Normal
vn 0 0 -1

# Mesh description
g Tutorial_mesh_0002

# Faces
f 1/1/1 2/2/1 3/3/1 4/4/1
f 5/2/1 6/5/1 7/6/1 8/3/1
f 9/1/1 10/2/1 11/3/1 12/4/1
f 13/2/1 14/5/1 15/6/1 16/3/1
f 17/1/1 18/2/1 19/3/1 20/4/1
f 21/7/1 22/8/1 23/9/1 24/10/1
f 25/11/1 26/12/1 27/5/1 28/2/1
f 29/13/1 30/14/1 31/12/1 32/11/1
f 33/14/1 34/15/1 35/16/1 36/12/1
f 37/1/1 38/2/1 39/3/1 40/4/1
f 41/2/1 42/5/1 43/6/1 44/3/1
f 45/13/1 46/14/1 47/12/1 48/11/1
f 49/14/1 50/15/1 51/16/1 52/12/1
f 53/17/1 54/11/1 55/2/1 56/1/1
f 57/11/1 58/12/1 59/5/1 60/2/1
f 61/13/1 62/14/1 63/12/1 64/11/1
f 65/14/1 66/15/1 67/16/1 68/12/1
f 69/1/1 70/2/1 71/3/1 72/4/1
f 73/18/1 74/7/1 75/10/1 76/19/1
f 77/11/1 78/12/1 79/5/1 80/2/1
f 81/13/1 82/14/1 83/12/1 84/11/1
f 85/14/1 86/15/1 87/16/1 88/12/1
f 89/17/1 90/11/1 91/2/1 92/1/1
f 93/11/1 94/12/1 95/5/1 96/2/1
f 97/13/1 98/14/1 99/12/1 100/11/1
f 101/14/1 102/15/1 103/16/1 104/12/1
f 105/17/1 106/11/1 107/2/1 108/1/1
f 109/13/1 110/14/1 111/12/1 112/11/1
f 113/2/1 114/5/1 115/6/1 116/3/1
f 117/13/1 118/14/1 119/12/1 120/11/1
f 121/14/1 122/15/1 123/16/1 124/12/1
f 125/17/1 126/11/1 127/2/1 128/1/1
f 129/11/1 130/12/1 131/5/1 132/2/1
f 133/1/1 134/2/1 135/3/1 136/4/1
f 137/2/1 138/5/1 139/6/1 140/3/1
f 141/13/1 142/14/1 143/12/1 144/11/1
f 145/7/1 146/8/1 147/9/1 148/10/1
f 149/1/1 150/2/1 151/3/1 152/4/1
f 153/14/1 154/15/1 155/16/1 156/12/1
f 157/13/1 158/14/1 159/12/1 160/11/1
f 161/14/1 162/15/1 163/16/1 164/12/1
f 165/13/1 166/14/1 167/12/1 168/11/1
f 169/14/1 170/15/1 171/16/1 172/12/1
f 173/20/1 174/21/1 175/22/1 176/23/1
f 177/21/1 178/24/1 179/25/1 180/22/1
f 181/21/1 182/24/1 183/25/1 184/22/1
f 185/24/1 186/26/1 187/27/1 188/25/1
f 189/13/1 190/14/1 191/12/1 192/11/1
f 193/14/1 194/15/1 195/16/1 196/12/1
f 197/28/1 198/29/1 199/21/1 200/20/1
f 201/29/1 202/30/1 203/24/1 204/21/1
f 205/29/1 206/30/1 207/24/1 208/21/1
f 209/30/1 210/31/1 211/26/1 212/24/1
f 213/13/1 214/14/1 215/12/1 216/11/1
f 217/14/1 218/15/1 219/16/1 220/12/1
f 221/1/1 222/2/1 223/3/1 224/4/1
f 225/2/1 226/5/1 227/6/1 228/3/1
f 229/32/1 230/33/1 231/29/1 232/28/1
f 233/33/1 234/34/1 235/30/1 236/29/1
f 237/33/1 238/34/1 239/30/1 240/29/1
f 241/34/1 242/35/1 243/31/1 244/30/1
f 245/13/1 246/14/1 247/12/1 248/11/1
f 249/14/1 250/15/1 251/16/1 252/12/1
f 253/17/1 254/11/1 255/2/1 256/1/1
f 257/11/1 258/12/1 259/5/1 260/2/1
f 261/1/1 262/2/1 263/3/1 264/4/1
f 265/7/1 266/8/1 267/9/1 268/10/1
f 269/11/1 270/12/1 271/5/1 272/2/1
f 273/17/1 274/11/1 275/2/1 276/1/1
f 277/11/1 278/12/1 279/5/1 280/2/1

