# Tiled2Unity generated file. Do not modify by hand.
# Wavefront file for 'mapa3_mesh_0006.obj'

# Vertices (Count = 96)
v -23 -7 0
v -24 -7 0
v -24 -6 0
v -23 -6 0
v -1 -8 0
v -2 -8 0
v -2 -7 0
v -1 -7 0
v -10 -8 0
v -11 -8 0
v -11 -7 0
v -10 -7 0
v -11 -8 0
v -12 -8 0
v -12 -7 0
v -11 -7 0
v -10 -9 0
v -11 -9 0
v -11 -8 0
v -10 -8 0
v -11 -9 0
v -12 -9 0
v -12 -8 0
v -11 -8 0
v -5 -11 0
v -6 -11 0
v -6 -10 0
v -5 -10 0
v -26 -11 0
v -27 -11 0
v -27 -10 0
v -26 -10 0
v -18 -14 0
v -19 -14 0
v -19 -13 0
v -18 -13 0
v -19 -14 0
v -20 -14 0
v -20 -13 0
v -19 -13 0
v -6 -15 0
v -7 -15 0
v -7 -14 0
v -6 -14 0
v -18 -15 0
v -19 -15 0
v -19 -14 0
v -18 -14 0
v -19 -15 0
v -20 -15 0
v -20 -14 0
v -19 -14 0
v -23 -18 0
v -24 -18 0
v -24 -17 0
v -23 -17 0
v -3 -20 0
v -4 -20 0
v -4 -19 0
v -3 -19 0
v -10 -22 0
v -11 -22 0
v -11 -21 0
v -10 -21 0
v -11 -22 0
v -12 -22 0
v -12 -21 0
v -11 -21 0
v -10 -23 0
v -11 -23 0
v -11 -22 0
v -10 -22 0
v -11 -23 0
v -12 -23 0
v -12 -22 0
v -11 -22 0
v -25 -23 0
v -26 -23 0
v -26 -22 0
v -25 -22 0
v -6 -24 0
v -7 -24 0
v -7 -23 0
v -6 -23 0
v -28 -27 0
v -29 -27 0
v -29 -26 0
v -28 -26 0
v -1 -28 0
v -2 -28 0
v -2 -27 0
v -1 -27 0
v -22 -29 0
v -23 -29 0
v -23 -28 0
v -22 -28 0

# Texture cooridinates (Count = 19)
vt 0.075 0.6388889
vt 0.1 0.6388889
vt 0.1 0.6666666
vt 0.075 0.6666666
vt 0.35 0.2222222
vt 0.375 0.2222222
vt 0.375 0.25
vt 0.35 0.25
vt 0.4 0.2222222
vt 0.4 0.25
vt 0.35 0.1944444
vt 0.375 0.1944444
vt 0.4 0.1944444
vt 0.425 0.2222222
vt 0.425 0.25
vt 0.45 0.2222222
vt 0.45 0.25
vt 0.425 0.1944444
vt 0.45 0.1944444

# Normal
vn 0 0 -1

# Mesh description
g mapa3_mesh_0006

# Faces
f 1/1/1 2/2/1 3/3/1 4/4/1
f 5/1/1 6/2/1 7/3/1 8/4/1
f 9/5/1 10/6/1 11/7/1 12/8/1
f 13/6/1 14/9/1 15/10/1 16/7/1
f 17/11/1 18/12/1 19/6/1 20/5/1
f 21/12/1 22/13/1 23/9/1 24/6/1
f 25/1/1 26/2/1 27/3/1 28/4/1
f 29/1/1 30/2/1 31/3/1 32/4/1
f 33/9/1 34/14/1 35/15/1 36/10/1
f 37/14/1 38/16/1 39/17/1 40/15/1
f 41/1/1 42/2/1 43/3/1 44/4/1
f 45/13/1 46/18/1 47/14/1 48/9/1
f 49/18/1 50/19/1 51/16/1 52/14/1
f 53/1/1 54/2/1 55/3/1 56/4/1
f 57/1/1 58/2/1 59/3/1 60/4/1
f 61/5/1 62/6/1 63/7/1 64/8/1
f 65/6/1 66/9/1 67/10/1 68/7/1
f 69/11/1 70/12/1 71/6/1 72/5/1
f 73/12/1 74/13/1 75/9/1 76/6/1
f 77/1/1 78/2/1 79/3/1 80/4/1
f 81/1/1 82/2/1 83/3/1 84/4/1
f 85/1/1 86/2/1 87/3/1 88/4/1
f 89/1/1 90/2/1 91/3/1 92/4/1
f 93/1/1 94/2/1 95/3/1 96/4/1

