# Tiled2Unity generated file. Do not modify by hand.
# Wavefront file for 'mapa3_mesh_0002.obj'

# Vertices (Count = 632)
v 0 -1 0
v -1 -1 0
v -1 0 0
v 0 0 0
v -1 -1 0
v -2 -1 0
v -2 0 0
v -1 0 0
v -2 -1 0
v -3 -1 0
v -3 0 0
v -2 0 0
v -3 -1 0
v -4 -1 0
v -4 0 0
v -3 0 0
v -4 -1 0
v -5 -1 0
v -5 0 0
v -4 0 0
v -5 -1 0
v -6 -1 0
v -6 0 0
v -5 0 0
v -6 -1 0
v -7 -1 0
v -7 0 0
v -6 0 0
v -7 -1 0
v -8 -1 0
v -8 0 0
v -7 0 0
v -8 -1 0
v -9 -1 0
v -9 0 0
v -8 0 0
v -9 -1 0
v -10 -1 0
v -10 0 0
v -9 0 0
v -10 -1 0
v -11 -1 0
v -11 0 0
v -10 0 0
v -11 -1 0
v -12 -1 0
v -12 0 0
v -11 0 0
v -12 -1 0
v -13 -1 0
v -13 0 0
v -12 0 0
v -13 -1 0
v -14 -1 0
v -14 0 0
v -13 0 0
v -14 -1 0
v -15 -1 0
v -15 0 0
v -14 0 0
v -15 -1 0
v -16 -1 0
v -16 0 0
v -15 0 0
v -16 -1 0
v -17 -1 0
v -17 0 0
v -16 0 0
v -17 -1 0
v -18 -1 0
v -18 0 0
v -17 0 0
v -18 -1 0
v -19 -1 0
v -19 0 0
v -18 0 0
v -19 -1 0
v -20 -1 0
v -20 0 0
v -19 0 0
v -20 -1 0
v -21 -1 0
v -21 0 0
v -20 0 0
v -21 -1 0
v -22 -1 0
v -22 0 0
v -21 0 0
v -22 -1 0
v -23 -1 0
v -23 0 0
v -22 0 0
v -23 -1 0
v -24 -1 0
v -24 0 0
v -23 0 0
v -24 -1 0
v -25 -1 0
v -25 0 0
v -24 0 0
v -25 -1 0
v -26 -1 0
v -26 0 0
v -25 0 0
v -26 -1 0
v -27 -1 0
v -27 0 0
v -26 0 0
v -27 -1 0
v -28 -1 0
v -28 0 0
v -27 0 0
v -28 -1 0
v -29 -1 0
v -29 0 0
v -28 0 0
v -29 -1 0
v -30 -1 0
v -30 0 0
v -29 0 0
v 0 -2 0
v -1 -2 0
v -1 -1 0
v 0 -1 0
v -1 -2 0
v -2 -2 0
v -2 -1 0
v -1 -1 0
v -2 -2 0
v -3 -2 0
v -3 -1 0
v -2 -1 0
v -3 -2 0
v -4 -2 0
v -4 -1 0
v -3 -1 0
v -4 -2 0
v -5 -2 0
v -5 -1 0
v -4 -1 0
v -5 -2 0
v -6 -2 0
v -6 -1 0
v -5 -1 0
v -6 -2 0
v -7 -2 0
v -7 -1 0
v -6 -1 0
v -7 -2 0
v -8 -2 0
v -8 -1 0
v -7 -1 0
v -8 -2 0
v -9 -2 0
v -9 -1 0
v -8 -1 0
v -9 -2 0
v -10 -2 0
v -10 -1 0
v -9 -1 0
v -10 -2 0
v -11 -2 0
v -11 -1 0
v -10 -1 0
v -11 -2 0
v -12 -2 0
v -12 -1 0
v -11 -1 0
v -12 -2 0
v -13 -2 0
v -13 -1 0
v -12 -1 0
v -13 -2 0
v -14 -2 0
v -14 -1 0
v -13 -1 0
v -14 -2 0
v -15 -2 0
v -15 -1 0
v -14 -1 0
v -15 -2 0
v -16 -2 0
v -16 -1 0
v -15 -1 0
v -16 -2 0
v -17 -2 0
v -17 -1 0
v -16 -1 0
v -17 -2 0
v -18 -2 0
v -18 -1 0
v -17 -1 0
v -18 -2 0
v -19 -2 0
v -19 -1 0
v -18 -1 0
v -19 -2 0
v -20 -2 0
v -20 -1 0
v -19 -1 0
v -20 -2 0
v -21 -2 0
v -21 -1 0
v -20 -1 0
v -21 -2 0
v -22 -2 0
v -22 -1 0
v -21 -1 0
v -22 -2 0
v -23 -2 0
v -23 -1 0
v -22 -1 0
v -23 -2 0
v -24 -2 0
v -24 -1 0
v -23 -1 0
v -24 -2 0
v -25 -2 0
v -25 -1 0
v -24 -1 0
v -25 -2 0
v -26 -2 0
v -26 -1 0
v -25 -1 0
v -26 -2 0
v -27 -2 0
v -27 -1 0
v -26 -1 0
v -27 -2 0
v -28 -2 0
v -28 -1 0
v -27 -1 0
v -28 -2 0
v -29 -2 0
v -29 -1 0
v -28 -1 0
v -29 -2 0
v -30 -2 0
v -30 -1 0
v -29 -1 0
v 0 -3 0
v -1 -3 0
v -1 -2 0
v 0 -2 0
v -1 -3 0
v -2 -3 0
v -2 -2 0
v -1 -2 0
v -2 -3 0
v -3 -3 0
v -3 -2 0
v -2 -2 0
v -3 -3 0
v -4 -3 0
v -4 -2 0
v -3 -2 0
v -4 -3 0
v -5 -3 0
v -5 -2 0
v -4 -2 0
v -5 -3 0
v -6 -3 0
v -6 -2 0
v -5 -2 0
v -6 -3 0
v -7 -3 0
v -7 -2 0
v -6 -2 0
v -7 -3 0
v -8 -3 0
v -8 -2 0
v -7 -2 0
v -8 -3 0
v -9 -3 0
v -9 -2 0
v -8 -2 0
v -9 -3 0
v -10 -3 0
v -10 -2 0
v -9 -2 0
v -10 -3 0
v -11 -3 0
v -11 -2 0
v -10 -2 0
v -11 -3 0
v -12 -3 0
v -12 -2 0
v -11 -2 0
v -12 -3 0
v -13 -3 0
v -13 -2 0
v -12 -2 0
v -13 -3 0
v -14 -3 0
v -14 -2 0
v -13 -2 0
v -14 -3 0
v -15 -3 0
v -15 -2 0
v -14 -2 0
v -15 -3 0
v -16 -3 0
v -16 -2 0
v -15 -2 0
v -16 -3 0
v -17 -3 0
v -17 -2 0
v -16 -2 0
v -17 -3 0
v -18 -3 0
v -18 -2 0
v -17 -2 0
v -18 -3 0
v -19 -3 0
v -19 -2 0
v -18 -2 0
v -19 -3 0
v -20 -3 0
v -20 -2 0
v -19 -2 0
v -20 -3 0
v -21 -3 0
v -21 -2 0
v -20 -2 0
v -21 -3 0
v -22 -3 0
v -22 -2 0
v -21 -2 0
v -22 -3 0
v -23 -3 0
v -23 -2 0
v -22 -2 0
v -23 -3 0
v -24 -3 0
v -24 -2 0
v -23 -2 0
v -24 -3 0
v -25 -3 0
v -25 -2 0
v -24 -2 0
v -25 -3 0
v -26 -3 0
v -26 -2 0
v -25 -2 0
v -26 -3 0
v -27 -3 0
v -27 -2 0
v -26 -2 0
v -27 -3 0
v -28 -3 0
v -28 -2 0
v -27 -2 0
v -28 -3 0
v -29 -3 0
v -29 -2 0
v -28 -2 0
v -29 -3 0
v -30 -3 0
v -30 -2 0
v -29 -2 0
v 0 -4 0
v -1 -4 0
v -1 -3 0
v 0 -3 0
v -1 -4 0
v -2 -4 0
v -2 -3 0
v -1 -3 0
v -2 -4 0
v -3 -4 0
v -3 -3 0
v -2 -3 0
v -3 -4 0
v -4 -4 0
v -4 -3 0
v -3 -3 0
v -4 -4 0
v -5 -4 0
v -5 -3 0
v -4 -3 0
v -5 -4 0
v -6 -4 0
v -6 -3 0
v -5 -3 0
v -6 -4 0
v -7 -4 0
v -7 -3 0
v -6 -3 0
v -7 -4 0
v -8 -4 0
v -8 -3 0
v -7 -3 0
v -8 -4 0
v -9 -4 0
v -9 -3 0
v -8 -3 0
v -9 -4 0
v -10 -4 0
v -10 -3 0
v -9 -3 0
v -10 -4 0
v -11 -4 0
v -11 -3 0
v -10 -3 0
v -11 -4 0
v -12 -4 0
v -12 -3 0
v -11 -3 0
v -12 -4 0
v -13 -4 0
v -13 -3 0
v -12 -3 0
v -13 -4 0
v -14 -4 0
v -14 -3 0
v -13 -3 0
v -14 -4 0
v -15 -4 0
v -15 -3 0
v -14 -3 0
v -15 -4 0
v -16 -4 0
v -16 -3 0
v -15 -3 0
v -16 -4 0
v -17 -4 0
v -17 -3 0
v -16 -3 0
v -17 -4 0
v -18 -4 0
v -18 -3 0
v -17 -3 0
v -18 -4 0
v -19 -4 0
v -19 -3 0
v -18 -3 0
v -19 -4 0
v -20 -4 0
v -20 -3 0
v -19 -3 0
v -20 -4 0
v -21 -4 0
v -21 -3 0
v -20 -3 0
v -21 -4 0
v -22 -4 0
v -22 -3 0
v -21 -3 0
v -22 -4 0
v -23 -4 0
v -23 -3 0
v -22 -3 0
v -23 -4 0
v -24 -4 0
v -24 -3 0
v -23 -3 0
v -24 -4 0
v -25 -4 0
v -25 -3 0
v -24 -3 0
v -25 -4 0
v -26 -4 0
v -26 -3 0
v -25 -3 0
v -26 -4 0
v -27 -4 0
v -27 -3 0
v -26 -3 0
v -27 -4 0
v -28 -4 0
v -28 -3 0
v -27 -3 0
v -28 -4 0
v -29 -4 0
v -29 -3 0
v -28 -3 0
v -29 -4 0
v -30 -4 0
v -30 -3 0
v -29 -3 0
v 0 -5 0
v -1 -5 0
v -1 -4 0
v 0 -4 0
v -1 -5 0
v -2 -5 0
v -2 -4 0
v -1 -4 0
v -2 -5 0
v -3 -5 0
v -3 -4 0
v -2 -4 0
v -3 -5 0
v -4 -5 0
v -4 -4 0
v -3 -4 0
v -4 -5 0
v -5 -5 0
v -5 -4 0
v -4 -4 0
v -5 -5 0
v -6 -5 0
v -6 -4 0
v -5 -4 0
v -6 -5 0
v -7 -5 0
v -7 -4 0
v -6 -4 0
v -7 -5 0
v -8 -5 0
v -8 -4 0
v -7 -4 0
v -8 -5 0
v -9 -5 0
v -9 -4 0
v -8 -4 0
v -9 -5 0
v -10 -5 0
v -10 -4 0
v -9 -4 0
v -10 -5 0
v -11 -5 0
v -11 -4 0
v -10 -4 0
v -11 -5 0
v -12 -5 0
v -12 -4 0
v -11 -4 0
v -12 -5 0
v -13 -5 0
v -13 -4 0
v -12 -4 0
v -13 -5 0
v -14 -5 0
v -14 -4 0
v -13 -4 0
v -14 -5 0
v -15 -5 0
v -15 -4 0
v -14 -4 0
v -15 -5 0
v -16 -5 0
v -16 -4 0
v -15 -4 0
v -16 -5 0
v -17 -5 0
v -17 -4 0
v -16 -4 0
v -17 -5 0
v -18 -5 0
v -18 -4 0
v -17 -4 0
v -18 -5 0
v -19 -5 0
v -19 -4 0
v -18 -4 0
v -19 -5 0
v -20 -5 0
v -20 -4 0
v -19 -4 0
v -20 -5 0
v -21 -5 0
v -21 -4 0
v -20 -4 0
v -21 -5 0
v -22 -5 0
v -22 -4 0
v -21 -4 0
v -22 -5 0
v -23 -5 0
v -23 -4 0
v -22 -4 0
v -23 -5 0
v -24 -5 0
v -24 -4 0
v -23 -4 0
v -24 -5 0
v -25 -5 0
v -25 -4 0
v -24 -4 0
v -25 -5 0
v -26 -5 0
v -26 -4 0
v -25 -4 0
v -26 -5 0
v -27 -5 0
v -27 -4 0
v -26 -4 0
v -27 -5 0
v -28 -5 0
v -28 -4 0
v -27 -4 0
v -28 -5 0
v -29 -5 0
v -29 -4 0
v -28 -4 0
v -29 -5 0
v -30 -5 0
v -30 -4 0
v -29 -4 0
v -29 -7 0
v -30 -7 0
v -30 -6 0
v -29 -6 0
v -4 -9 0
v -5 -9 0
v -5 -8 0
v -4 -8 0
v -22 -15 0
v -23 -15 0
v -23 -14 0
v -22 -14 0
v 0 -17 0
v -1 -17 0
v -1 -16 0
v 0 -16 0
v -5 -19 0
v -6 -19 0
v -6 -18 0
v -5 -18 0
v -13 -19 0
v -14 -19 0
v -14 -18 0
v -13 -18 0
v 0 -27 0
v -1 -27 0
v -1 -26 0
v 0 -26 0
v -29 -30 0
v -30 -30 0
v -30 -29 0
v -29 -29 0

# Texture cooridinates (Count = 24)
vt 0.1 0.6944444
vt 0.125 0.6944444
vt 0.125 0.7222222
vt 0.1 0.7222222
vt 0.15 0.6944444
vt 0.15 0.7222222
vt 0.675 0.8888889
vt 0.7 0.8888889
vt 0.7 0.9166667
vt 0.675 0.9166667
vt 0.1 0.6666666
vt 0.125 0.6666666
vt 0.15 0.6666666
vt 0.1 0.6388889
vt 0.125 0.6388889
vt 0.15 0.6388889
vt 0.1 0.6111111
vt 0.125 0.6111111
vt 0.15 0.6111111
vt 0.175 0.6111111
vt 0.175 0.6388889
vt 0.725 0.9166667
vt 0.725 0.9444444
vt 0.7 0.9444444

# Normal
vn 0 0 -1

# Mesh description
g mapa3_mesh_0002

# Faces
f 1/1/1 2/2/1 3/3/1 4/4/1
f 5/2/1 6/5/1 7/6/1 8/3/1
f 9/2/1 10/5/1 11/6/1 12/3/1
f 13/2/1 14/5/1 15/6/1 16/3/1
f 17/2/1 18/5/1 19/6/1 20/3/1
f 21/2/1 22/5/1 23/6/1 24/3/1
f 25/2/1 26/5/1 27/6/1 28/3/1
f 29/2/1 30/5/1 31/6/1 32/3/1
f 33/2/1 34/5/1 35/6/1 36/3/1
f 37/2/1 38/5/1 39/6/1 40/3/1
f 41/2/1 42/5/1 43/6/1 44/3/1
f 45/2/1 46/5/1 47/6/1 48/3/1
f 49/2/1 50/5/1 51/6/1 52/3/1
f 53/2/1 54/5/1 55/6/1 56/3/1
f 57/2/1 58/5/1 59/6/1 60/3/1
f 61/2/1 62/5/1 63/6/1 64/3/1
f 65/2/1 66/5/1 67/6/1 68/3/1
f 69/2/1 70/5/1 71/6/1 72/3/1
f 73/2/1 74/5/1 75/6/1 76/3/1
f 77/2/1 78/5/1 79/6/1 80/3/1
f 81/2/1 82/5/1 83/6/1 84/3/1
f 85/2/1 86/5/1 87/6/1 88/3/1
f 89/2/1 90/5/1 91/6/1 92/3/1
f 93/2/1 94/5/1 95/6/1 96/3/1
f 97/2/1 98/5/1 99/6/1 100/3/1
f 101/7/1 102/8/1 103/9/1 104/10/1
f 105/2/1 106/5/1 107/6/1 108/3/1
f 109/2/1 110/5/1 111/6/1 112/3/1
f 113/2/1 114/5/1 115/6/1 116/3/1
f 117/2/1 118/5/1 119/6/1 120/3/1
f 121/11/1 122/12/1 123/2/1 124/1/1
f 125/12/1 126/13/1 127/5/1 128/2/1
f 129/12/1 130/13/1 131/5/1 132/2/1
f 133/12/1 134/13/1 135/5/1 136/2/1
f 137/7/1 138/8/1 139/9/1 140/10/1
f 141/12/1 142/13/1 143/5/1 144/2/1
f 145/12/1 146/13/1 147/5/1 148/2/1
f 149/12/1 150/13/1 151/5/1 152/2/1
f 153/12/1 154/13/1 155/5/1 156/2/1
f 157/12/1 158/13/1 159/5/1 160/2/1
f 161/12/1 162/13/1 163/5/1 164/2/1
f 165/12/1 166/13/1 167/5/1 168/2/1
f 169/12/1 170/13/1 171/5/1 172/2/1
f 173/12/1 174/13/1 175/5/1 176/2/1
f 177/12/1 178/13/1 179/5/1 180/2/1
f 181/12/1 182/13/1 183/5/1 184/2/1
f 185/12/1 186/13/1 187/5/1 188/2/1
f 189/12/1 190/13/1 191/5/1 192/2/1
f 193/12/1 194/13/1 195/5/1 196/2/1
f 197/12/1 198/13/1 199/5/1 200/2/1
f 201/12/1 202/13/1 203/5/1 204/2/1
f 205/12/1 206/13/1 207/5/1 208/2/1
f 209/12/1 210/13/1 211/5/1 212/2/1
f 213/12/1 214/13/1 215/5/1 216/2/1
f 217/12/1 218/13/1 219/5/1 220/2/1
f 221/12/1 222/13/1 223/5/1 224/2/1
f 225/12/1 226/13/1 227/5/1 228/2/1
f 229/12/1 230/13/1 231/5/1 232/2/1
f 233/12/1 234/13/1 235/5/1 236/2/1
f 237/12/1 238/13/1 239/5/1 240/2/1
f 241/14/1 242/15/1 243/12/1 244/11/1
f 245/15/1 246/16/1 247/13/1 248/12/1
f 249/15/1 250/16/1 251/13/1 252/12/1
f 253/15/1 254/16/1 255/13/1 256/12/1
f 257/15/1 258/16/1 259/13/1 260/12/1
f 261/15/1 262/16/1 263/13/1 264/12/1
f 265/15/1 266/16/1 267/13/1 268/12/1
f 269/15/1 270/16/1 271/13/1 272/12/1
f 273/15/1 274/16/1 275/13/1 276/12/1
f 277/15/1 278/16/1 279/13/1 280/12/1
f 281/15/1 282/16/1 283/13/1 284/12/1
f 285/15/1 286/16/1 287/13/1 288/12/1
f 289/15/1 290/16/1 291/13/1 292/12/1
f 293/15/1 294/16/1 295/13/1 296/12/1
f 297/15/1 298/16/1 299/13/1 300/12/1
f 301/15/1 302/16/1 303/13/1 304/12/1
f 305/15/1 306/16/1 307/13/1 308/12/1
f 309/15/1 310/16/1 311/13/1 312/12/1
f 313/15/1 314/16/1 315/13/1 316/12/1
f 317/15/1 318/16/1 319/13/1 320/12/1
f 321/15/1 322/16/1 323/13/1 324/12/1
f 325/15/1 326/16/1 327/13/1 328/12/1
f 329/15/1 330/16/1 331/13/1 332/12/1
f 333/15/1 334/16/1 335/13/1 336/12/1
f 337/15/1 338/16/1 339/13/1 340/12/1
f 341/15/1 342/16/1 343/13/1 344/12/1
f 345/15/1 346/16/1 347/13/1 348/12/1
f 349/15/1 350/16/1 351/13/1 352/12/1
f 353/15/1 354/16/1 355/13/1 356/12/1
f 357/15/1 358/16/1 359/13/1 360/12/1
f 361/17/1 362/18/1 363/15/1 364/14/1
f 365/18/1 366/19/1 367/16/1 368/15/1
f 369/18/1 370/19/1 371/16/1 372/15/1
f 373/18/1 374/19/1 375/16/1 376/15/1
f 377/18/1 378/19/1 379/16/1 380/15/1
f 381/18/1 382/19/1 383/16/1 384/15/1
f 385/18/1 386/19/1 387/16/1 388/15/1
f 389/18/1 390/19/1 391/16/1 392/15/1
f 393/18/1 394/19/1 395/16/1 396/15/1
f 397/18/1 398/19/1 399/16/1 400/15/1
f 401/18/1 402/19/1 403/16/1 404/15/1
f 405/18/1 406/19/1 407/16/1 408/15/1
f 409/18/1 410/19/1 411/16/1 412/15/1
f 413/18/1 414/19/1 415/16/1 416/15/1
f 417/18/1 418/19/1 419/16/1 420/15/1
f 421/18/1 422/19/1 423/16/1 424/15/1
f 425/18/1 426/19/1 427/16/1 428/15/1
f 429/18/1 430/19/1 431/16/1 432/15/1
f 433/18/1 434/19/1 435/16/1 436/15/1
f 437/18/1 438/19/1 439/16/1 440/15/1
f 441/18/1 442/19/1 443/16/1 444/15/1
f 445/18/1 446/19/1 447/16/1 448/15/1
f 449/18/1 450/19/1 451/16/1 452/15/1
f 453/18/1 454/19/1 455/16/1 456/15/1
f 457/18/1 458/19/1 459/16/1 460/15/1
f 461/18/1 462/19/1 463/16/1 464/15/1
f 465/18/1 466/19/1 467/16/1 468/15/1
f 469/18/1 470/19/1 471/16/1 472/15/1
f 473/18/1 474/19/1 475/16/1 476/15/1
f 477/18/1 478/19/1 479/16/1 480/15/1
f 481/17/1 482/18/1 483/15/1 484/14/1
f 485/18/1 486/19/1 487/16/1 488/15/1
f 489/18/1 490/19/1 491/16/1 492/15/1
f 493/18/1 494/19/1 495/16/1 496/15/1
f 497/18/1 498/19/1 499/16/1 500/15/1
f 501/18/1 502/19/1 503/16/1 504/15/1
f 505/18/1 506/19/1 507/16/1 508/15/1
f 509/18/1 510/19/1 511/16/1 512/15/1
f 513/18/1 514/19/1 515/16/1 516/15/1
f 517/18/1 518/19/1 519/16/1 520/15/1
f 521/18/1 522/19/1 523/16/1 524/15/1
f 525/18/1 526/19/1 527/16/1 528/15/1
f 529/18/1 530/19/1 531/16/1 532/15/1
f 533/18/1 534/19/1 535/16/1 536/15/1
f 537/18/1 538/19/1 539/16/1 540/15/1
f 541/18/1 542/19/1 543/16/1 544/15/1
f 545/18/1 546/19/1 547/16/1 548/15/1
f 549/18/1 550/19/1 551/16/1 552/15/1
f 553/18/1 554/19/1 555/16/1 556/15/1
f 557/18/1 558/19/1 559/16/1 560/15/1
f 561/18/1 562/19/1 563/16/1 564/15/1
f 565/18/1 566/19/1 567/16/1 568/15/1
f 569/18/1 570/19/1 571/16/1 572/15/1
f 573/18/1 574/19/1 575/16/1 576/15/1
f 577/18/1 578/19/1 579/16/1 580/15/1
f 581/18/1 582/19/1 583/16/1 584/15/1
f 585/18/1 586/19/1 587/16/1 588/15/1
f 589/18/1 590/19/1 591/16/1 592/15/1
f 593/18/1 594/19/1 595/16/1 596/15/1
f 597/19/1 598/20/1 599/21/1 600/16/1
f 601/7/1 602/8/1 603/9/1 604/10/1
f 605/9/1 606/22/1 607/23/1 608/24/1
f 609/7/1 610/8/1 611/9/1 612/10/1
f 613/7/1 614/8/1 615/9/1 616/10/1
f 617/7/1 618/8/1 619/9/1 620/10/1
f 621/9/1 622/22/1 623/23/1 624/24/1
f 625/7/1 626/8/1 627/9/1 628/10/1
f 629/7/1 630/8/1 631/9/1 632/10/1

