# Tiled2Unity generated file. Do not modify by hand.
# Wavefront file for 'islas_mesh_0003.obj'

# Vertices (Count = 732)
v -8 -5 0
v -9 -5 0
v -9 -4 0
v -8 -4 0
v -9 -5 0
v -10 -5 0
v -10 -4 0
v -9 -4 0
v -10 -5 0
v -11 -5 0
v -11 -4 0
v -10 -4 0
v -11 -5 0
v -12 -5 0
v -12 -4 0
v -11 -4 0
v -12 -5 0
v -13 -5 0
v -13 -4 0
v -12 -4 0
v -33 -5 0
v -34 -5 0
v -34 -4 0
v -33 -4 0
v -34 -5 0
v -35 -5 0
v -35 -4 0
v -34 -4 0
v -35 -5 0
v -36 -5 0
v -36 -4 0
v -35 -4 0
v -8 -6 0
v -9 -6 0
v -9 -5 0
v -8 -5 0
v -9 -6 0
v -10 -6 0
v -10 -5 0
v -9 -5 0
v -10 -6 0
v -11 -6 0
v -11 -5 0
v -10 -5 0
v -11 -6 0
v -12 -6 0
v -12 -5 0
v -11 -5 0
v -12 -6 0
v -13 -6 0
v -13 -5 0
v -12 -5 0
v -18 -6 0
v -19 -6 0
v -19 -5 0
v -18 -5 0
v -19 -6 0
v -20 -6 0
v -20 -5 0
v -19 -5 0
v -20 -6 0
v -21 -6 0
v -21 -5 0
v -20 -5 0
v -33 -6 0
v -34 -6 0
v -34 -5 0
v -33 -5 0
v -34 -6 0
v -35 -6 0
v -35 -5 0
v -34 -5 0
v -35 -6 0
v -36 -6 0
v -36 -5 0
v -35 -5 0
v -8 -7 0
v -9 -7 0
v -9 -6 0
v -8 -6 0
v -9 -7 0
v -10 -7 0
v -10 -6 0
v -9 -6 0
v -10 -7 0
v -11 -7 0
v -11 -6 0
v -10 -6 0
v -11 -7 0
v -12 -7 0
v -12 -6 0
v -11 -6 0
v -12 -7 0
v -13 -7 0
v -13 -6 0
v -12 -6 0
v -18 -7 0
v -19 -7 0
v -19 -6 0
v -18 -6 0
v -19 -7 0
v -20 -7 0
v -20 -6 0
v -19 -6 0
v -20 -7 0
v -21 -7 0
v -21 -6 0
v -20 -6 0
v -33 -7 0
v -34 -7 0
v -34 -6 0
v -33 -6 0
v -34 -7 0
v -35 -7 0
v -35 -6 0
v -34 -6 0
v -35 -7 0
v -36 -7 0
v -36 -6 0
v -35 -6 0
v -18 -8 0
v -19 -8 0
v -19 -7 0
v -18 -7 0
v -19 -8 0
v -20 -8 0
v -20 -7 0
v -19 -7 0
v -20 -8 0
v -21 -8 0
v -21 -7 0
v -20 -7 0
v -33 -8 0
v -34 -8 0
v -34 -7 0
v -33 -7 0
v -34 -8 0
v -35 -8 0
v -35 -7 0
v -34 -7 0
v -35 -8 0
v -36 -8 0
v -36 -7 0
v -35 -7 0
v -18 -9 0
v -19 -9 0
v -19 -8 0
v -18 -8 0
v -19 -9 0
v -20 -9 0
v -20 -8 0
v -19 -8 0
v -20 -9 0
v -21 -9 0
v -21 -8 0
v -20 -8 0
v -33 -9 0
v -34 -9 0
v -34 -8 0
v -33 -8 0
v -34 -9 0
v -35 -9 0
v -35 -8 0
v -34 -8 0
v -35 -9 0
v -36 -9 0
v -36 -8 0
v -35 -8 0
v -18 -10 0
v -19 -10 0
v -19 -9 0
v -18 -9 0
v -19 -10 0
v -20 -10 0
v -20 -9 0
v -19 -9 0
v -20 -10 0
v -21 -10 0
v -21 -9 0
v -20 -9 0
v -33 -10 0
v -34 -10 0
v -34 -9 0
v -33 -9 0
v -34 -10 0
v -35 -10 0
v -35 -9 0
v -34 -9 0
v -35 -10 0
v -36 -10 0
v -36 -9 0
v -35 -9 0
v -18 -11 0
v -19 -11 0
v -19 -10 0
v -18 -10 0
v -19 -11 0
v -20 -11 0
v -20 -10 0
v -19 -10 0
v -20 -11 0
v -21 -11 0
v -21 -10 0
v -20 -10 0
v -33 -11 0
v -34 -11 0
v -34 -10 0
v -33 -10 0
v -34 -11 0
v -35 -11 0
v -35 -10 0
v -34 -10 0
v -35 -11 0
v -36 -11 0
v -36 -10 0
v -35 -10 0
v -18 -12 0
v -19 -12 0
v -19 -11 0
v -18 -11 0
v -19 -12 0
v -20 -12 0
v -20 -11 0
v -19 -11 0
v -20 -12 0
v -21 -12 0
v -21 -11 0
v -20 -11 0
v -33 -12 0
v -34 -12 0
v -34 -11 0
v -33 -11 0
v -34 -12 0
v -35 -12 0
v -35 -11 0
v -34 -11 0
v -35 -12 0
v -36 -12 0
v -36 -11 0
v -35 -11 0
v -1 -13 0
v -2 -13 0
v -2 -12 0
v -1 -12 0
v -2 -13 0
v -3 -13 0
v -3 -12 0
v -2 -12 0
v -3 -13 0
v -4 -13 0
v -4 -12 0
v -3 -12 0
v -18 -13 0
v -19 -13 0
v -19 -12 0
v -18 -12 0
v -19 -13 0
v -20 -13 0
v -20 -12 0
v -19 -12 0
v -20 -13 0
v -21 -13 0
v -21 -12 0
v -20 -12 0
v -33 -13 0
v -34 -13 0
v -34 -12 0
v -33 -12 0
v -34 -13 0
v -35 -13 0
v -35 -12 0
v -34 -12 0
v -35 -13 0
v -36 -13 0
v -36 -12 0
v -35 -12 0
v -1 -14 0
v -2 -14 0
v -2 -13 0
v -1 -13 0
v -2 -14 0
v -3 -14 0
v -3 -13 0
v -2 -13 0
v -3 -14 0
v -4 -14 0
v -4 -13 0
v -3 -13 0
v -11 -14 0
v -12 -14 0
v -12 -13 0
v -11 -13 0
v -12 -14 0
v -13 -14 0
v -13 -13 0
v -12 -13 0
v -13 -14 0
v -14 -14 0
v -14 -13 0
v -13 -13 0
v -14 -14 0
v -15 -14 0
v -15 -13 0
v -14 -13 0
v -15 -14 0
v -16 -14 0
v -16 -13 0
v -15 -13 0
v -16 -14 0
v -17 -14 0
v -17 -13 0
v -16 -13 0
v -17 -14 0
v -18 -14 0
v -18 -13 0
v -17 -13 0
v -1 -15 0
v -2 -15 0
v -2 -14 0
v -1 -14 0
v -2 -15 0
v -3 -15 0
v -3 -14 0
v -2 -14 0
v -3 -15 0
v -4 -15 0
v -4 -14 0
v -3 -14 0
v -11 -15 0
v -12 -15 0
v -12 -14 0
v -11 -14 0
v -12 -15 0
v -13 -15 0
v -13 -14 0
v -12 -14 0
v -13 -15 0
v -14 -15 0
v -14 -14 0
v -13 -14 0
v -14 -15 0
v -15 -15 0
v -15 -14 0
v -14 -14 0
v -15 -15 0
v -16 -15 0
v -16 -14 0
v -15 -14 0
v -16 -15 0
v -17 -15 0
v -17 -14 0
v -16 -14 0
v -17 -15 0
v -18 -15 0
v -18 -14 0
v -17 -14 0
v -33 -15 0
v -34 -15 0
v -34 -14 0
v -33 -14 0
v -34 -15 0
v -35 -15 0
v -35 -14 0
v -34 -14 0
v -35 -15 0
v -36 -15 0
v -36 -14 0
v -35 -14 0
v -1 -16 0
v -2 -16 0
v -2 -15 0
v -1 -15 0
v -2 -16 0
v -3 -16 0
v -3 -15 0
v -2 -15 0
v -3 -16 0
v -4 -16 0
v -4 -15 0
v -3 -15 0
v -11 -16 0
v -12 -16 0
v -12 -15 0
v -11 -15 0
v -12 -16 0
v -13 -16 0
v -13 -15 0
v -12 -15 0
v -13 -16 0
v -14 -16 0
v -14 -15 0
v -13 -15 0
v -14 -16 0
v -15 -16 0
v -15 -15 0
v -14 -15 0
v -15 -16 0
v -16 -16 0
v -16 -15 0
v -15 -15 0
v -16 -16 0
v -17 -16 0
v -17 -15 0
v -16 -15 0
v -17 -16 0
v -18 -16 0
v -18 -15 0
v -17 -15 0
v -33 -16 0
v -34 -16 0
v -34 -15 0
v -33 -15 0
v -34 -16 0
v -35 -16 0
v -35 -15 0
v -34 -15 0
v -35 -16 0
v -36 -16 0
v -36 -15 0
v -35 -15 0
v -1 -17 0
v -2 -17 0
v -2 -16 0
v -1 -16 0
v -2 -17 0
v -3 -17 0
v -3 -16 0
v -2 -16 0
v -3 -17 0
v -4 -17 0
v -4 -16 0
v -3 -16 0
v -33 -17 0
v -34 -17 0
v -34 -16 0
v -33 -16 0
v -34 -17 0
v -35 -17 0
v -35 -16 0
v -34 -16 0
v -35 -17 0
v -36 -17 0
v -36 -16 0
v -35 -16 0
v -1 -18 0
v -2 -18 0
v -2 -17 0
v -1 -17 0
v -2 -18 0
v -3 -18 0
v -3 -17 0
v -2 -17 0
v -3 -18 0
v -4 -18 0
v -4 -17 0
v -3 -17 0
v -33 -18 0
v -34 -18 0
v -34 -17 0
v -33 -17 0
v -34 -18 0
v -35 -18 0
v -35 -17 0
v -34 -17 0
v -35 -18 0
v -36 -18 0
v -36 -17 0
v -35 -17 0
v -33 -19 0
v -34 -19 0
v -34 -18 0
v -33 -18 0
v -34 -19 0
v -35 -19 0
v -35 -18 0
v -34 -18 0
v -35 -19 0
v -36 -19 0
v -36 -18 0
v -35 -18 0
v -33 -20 0
v -34 -20 0
v -34 -19 0
v -33 -19 0
v -34 -20 0
v -35 -20 0
v -35 -19 0
v -34 -19 0
v -35 -20 0
v -36 -20 0
v -36 -19 0
v -35 -19 0
v -33 -21 0
v -34 -21 0
v -34 -20 0
v -33 -20 0
v -34 -21 0
v -35 -21 0
v -35 -20 0
v -34 -20 0
v -35 -21 0
v -36 -21 0
v -36 -20 0
v -35 -20 0
v -3 -22 0
v -4 -22 0
v -4 -21 0
v -3 -21 0
v -4 -22 0
v -5 -22 0
v -5 -21 0
v -4 -21 0
v -5 -22 0
v -6 -22 0
v -6 -21 0
v -5 -21 0
v -6 -22 0
v -7 -22 0
v -7 -21 0
v -6 -21 0
v -26 -22 0
v -27 -22 0
v -27 -21 0
v -26 -21 0
v -27 -22 0
v -28 -22 0
v -28 -21 0
v -27 -21 0
v -28 -22 0
v -29 -22 0
v -29 -21 0
v -28 -21 0
v -29 -22 0
v -30 -22 0
v -30 -21 0
v -29 -21 0
v -30 -22 0
v -31 -22 0
v -31 -21 0
v -30 -21 0
v -31 -22 0
v -32 -22 0
v -32 -21 0
v -31 -21 0
v -32 -22 0
v -33 -22 0
v -33 -21 0
v -32 -21 0
v -33 -22 0
v -34 -22 0
v -34 -21 0
v -33 -21 0
v -34 -22 0
v -35 -22 0
v -35 -21 0
v -34 -21 0
v -35 -22 0
v -36 -22 0
v -36 -21 0
v -35 -21 0
v -3 -23 0
v -4 -23 0
v -4 -22 0
v -3 -22 0
v -4 -23 0
v -5 -23 0
v -5 -22 0
v -4 -22 0
v -5 -23 0
v -6 -23 0
v -6 -22 0
v -5 -22 0
v -6 -23 0
v -7 -23 0
v -7 -22 0
v -6 -22 0
v -8 -23 0
v -9 -23 0
v -9 -22 0
v -8 -22 0
v -9 -23 0
v -10 -23 0
v -10 -22 0
v -9 -22 0
v -10 -23 0
v -11 -23 0
v -11 -22 0
v -10 -22 0
v -11 -23 0
v -12 -23 0
v -12 -22 0
v -11 -22 0
v -12 -23 0
v -13 -23 0
v -13 -22 0
v -12 -22 0
v -13 -23 0
v -14 -23 0
v -14 -22 0
v -13 -22 0
v -14 -23 0
v -15 -23 0
v -15 -22 0
v -14 -22 0
v -26 -23 0
v -27 -23 0
v -27 -22 0
v -26 -22 0
v -27 -23 0
v -28 -23 0
v -28 -22 0
v -27 -22 0
v -28 -23 0
v -29 -23 0
v -29 -22 0
v -28 -22 0
v -29 -23 0
v -30 -23 0
v -30 -22 0
v -29 -22 0
v -30 -23 0
v -31 -23 0
v -31 -22 0
v -30 -22 0
v -31 -23 0
v -32 -23 0
v -32 -22 0
v -31 -22 0
v -32 -23 0
v -33 -23 0
v -33 -22 0
v -32 -22 0
v -3 -24 0
v -4 -24 0
v -4 -23 0
v -3 -23 0
v -4 -24 0
v -5 -24 0
v -5 -23 0
v -4 -23 0
v -5 -24 0
v -6 -24 0
v -6 -23 0
v -5 -23 0
v -6 -24 0
v -7 -24 0
v -7 -23 0
v -6 -23 0
v -8 -24 0
v -9 -24 0
v -9 -23 0
v -8 -23 0
v -9 -24 0
v -10 -24 0
v -10 -23 0
v -9 -23 0
v -10 -24 0
v -11 -24 0
v -11 -23 0
v -10 -23 0
v -11 -24 0
v -12 -24 0
v -12 -23 0
v -11 -23 0
v -12 -24 0
v -13 -24 0
v -13 -23 0
v -12 -23 0
v -13 -24 0
v -14 -24 0
v -14 -23 0
v -13 -23 0
v -14 -24 0
v -15 -24 0
v -15 -23 0
v -14 -23 0
v -26 -24 0
v -27 -24 0
v -27 -23 0
v -26 -23 0
v -27 -24 0
v -28 -24 0
v -28 -23 0
v -27 -23 0
v -28 -24 0
v -29 -24 0
v -29 -23 0
v -28 -23 0
v -29 -24 0
v -30 -24 0
v -30 -23 0
v -29 -23 0
v -30 -24 0
v -31 -24 0
v -31 -23 0
v -30 -23 0
v -31 -24 0
v -32 -24 0
v -32 -23 0
v -31 -23 0
v -32 -24 0
v -33 -24 0
v -33 -23 0
v -32 -23 0
v -8 -25 0
v -9 -25 0
v -9 -24 0
v -8 -24 0
v -9 -25 0
v -10 -25 0
v -10 -24 0
v -9 -24 0
v -10 -25 0
v -11 -25 0
v -11 -24 0
v -10 -24 0
v -11 -25 0
v -12 -25 0
v -12 -24 0
v -11 -24 0
v -12 -25 0
v -13 -25 0
v -13 -24 0
v -12 -24 0
v -13 -25 0
v -14 -25 0
v -14 -24 0
v -13 -24 0
v -14 -25 0
v -15 -25 0
v -15 -24 0
v -14 -24 0

# Texture cooridinates (Count = 28)
vt 0.2 0.8055556
vt 0.225 0.8055556
vt 0.225 0.8333333
vt 0.2 0.8333333
vt 0.25 0.8055556
vt 0.25 0.8333333
vt 0.275 0.8055556
vt 0.275 0.8333333
vt 0.125 0.8055556
vt 0.15 0.8055556
vt 0.15 0.8333333
vt 0.125 0.8333333
vt 0.175 0.8055556
vt 0.175 0.8333333
vt 0.2 0.7777778
vt 0.225 0.7777778
vt 0.25 0.7777778
vt 0.275 0.7777778
vt 0.125 0.7777778
vt 0.15 0.7777778
vt 0.175 0.7777778
vt 0.2 0.75
vt 0.225 0.75
vt 0.25 0.75
vt 0.275 0.75
vt 0.125 0.75
vt 0.15 0.75
vt 0.175 0.75

# Normal
vn 0 0 -1

# Mesh description
g islas_mesh_0003

# Faces
f 1/1/1 2/2/1 3/3/1 4/4/1
f 5/2/1 6/5/1 7/6/1 8/3/1
f 9/2/1 10/5/1 11/6/1 12/3/1
f 13/2/1 14/5/1 15/6/1 16/3/1
f 17/5/1 18/7/1 19/8/1 20/6/1
f 21/9/1 22/10/1 23/11/1 24/12/1
f 25/10/1 26/13/1 27/14/1 28/11/1
f 29/13/1 30/1/1 31/4/1 32/14/1
f 33/15/1 34/16/1 35/2/1 36/1/1
f 37/16/1 38/17/1 39/5/1 40/2/1
f 41/16/1 42/17/1 43/5/1 44/2/1
f 45/16/1 46/17/1 47/5/1 48/2/1
f 49/17/1 50/18/1 51/7/1 52/5/1
f 53/9/1 54/10/1 55/11/1 56/12/1
f 57/10/1 58/13/1 59/14/1 60/11/1
f 61/13/1 62/1/1 63/4/1 64/14/1
f 65/19/1 66/20/1 67/10/1 68/9/1
f 69/20/1 70/21/1 71/13/1 72/10/1
f 73/21/1 74/15/1 75/1/1 76/13/1
f 77/22/1 78/23/1 79/16/1 80/15/1
f 81/23/1 82/24/1 83/17/1 84/16/1
f 85/23/1 86/24/1 87/17/1 88/16/1
f 89/23/1 90/24/1 91/17/1 92/16/1
f 93/24/1 94/25/1 95/18/1 96/17/1
f 97/19/1 98/20/1 99/10/1 100/9/1
f 101/20/1 102/21/1 103/13/1 104/10/1
f 105/21/1 106/15/1 107/1/1 108/13/1
f 109/19/1 110/20/1 111/10/1 112/9/1
f 113/20/1 114/21/1 115/13/1 116/10/1
f 117/21/1 118/15/1 119/1/1 120/13/1
f 121/19/1 122/20/1 123/10/1 124/9/1
f 125/20/1 126/21/1 127/13/1 128/10/1
f 129/21/1 130/15/1 131/1/1 132/13/1
f 133/19/1 134/20/1 135/10/1 136/9/1
f 137/20/1 138/21/1 139/13/1 140/10/1
f 141/21/1 142/15/1 143/1/1 144/13/1
f 145/19/1 146/20/1 147/10/1 148/9/1
f 149/20/1 150/21/1 151/13/1 152/10/1
f 153/21/1 154/15/1 155/1/1 156/13/1
f 157/19/1 158/20/1 159/10/1 160/9/1
f 161/20/1 162/21/1 163/13/1 164/10/1
f 165/21/1 166/15/1 167/1/1 168/13/1
f 169/19/1 170/20/1 171/10/1 172/9/1
f 173/20/1 174/21/1 175/13/1 176/10/1
f 177/21/1 178/15/1 179/1/1 180/13/1
f 181/19/1 182/20/1 183/10/1 184/9/1
f 185/20/1 186/21/1 187/13/1 188/10/1
f 189/21/1 190/15/1 191/1/1 192/13/1
f 193/19/1 194/20/1 195/10/1 196/9/1
f 197/20/1 198/21/1 199/13/1 200/10/1
f 201/21/1 202/15/1 203/1/1 204/13/1
f 205/19/1 206/20/1 207/10/1 208/9/1
f 209/20/1 210/21/1 211/13/1 212/10/1
f 213/21/1 214/15/1 215/1/1 216/13/1
f 217/19/1 218/20/1 219/10/1 220/9/1
f 221/20/1 222/21/1 223/13/1 224/10/1
f 225/21/1 226/15/1 227/1/1 228/13/1
f 229/19/1 230/20/1 231/10/1 232/9/1
f 233/20/1 234/21/1 235/13/1 236/10/1
f 237/21/1 238/15/1 239/1/1 240/13/1
f 241/9/1 242/10/1 243/11/1 244/12/1
f 245/10/1 246/13/1 247/14/1 248/11/1
f 249/13/1 250/1/1 251/4/1 252/14/1
f 253/26/1 254/27/1 255/20/1 256/19/1
f 257/27/1 258/28/1 259/21/1 260/20/1
f 261/28/1 262/22/1 263/15/1 264/21/1
f 265/26/1 266/27/1 267/20/1 268/19/1
f 269/27/1 270/28/1 271/21/1 272/20/1
f 273/28/1 274/22/1 275/15/1 276/21/1
f 277/19/1 278/20/1 279/10/1 280/9/1
f 281/20/1 282/21/1 283/13/1 284/10/1
f 285/21/1 286/15/1 287/1/1 288/13/1
f 289/1/1 290/2/1 291/3/1 292/4/1
f 293/2/1 294/5/1 295/6/1 296/3/1
f 297/2/1 298/5/1 299/6/1 300/3/1
f 301/2/1 302/5/1 303/6/1 304/3/1
f 305/2/1 306/5/1 307/6/1 308/3/1
f 309/2/1 310/5/1 311/6/1 312/3/1
f 313/5/1 314/7/1 315/8/1 316/6/1
f 317/19/1 318/20/1 319/10/1 320/9/1
f 321/20/1 322/21/1 323/13/1 324/10/1
f 325/21/1 326/15/1 327/1/1 328/13/1
f 329/15/1 330/16/1 331/2/1 332/1/1
f 333/16/1 334/17/1 335/5/1 336/2/1
f 337/16/1 338/17/1 339/5/1 340/2/1
f 341/16/1 342/17/1 343/5/1 344/2/1
f 345/16/1 346/17/1 347/5/1 348/2/1
f 349/16/1 350/17/1 351/5/1 352/2/1
f 353/17/1 354/18/1 355/7/1 356/5/1
f 357/9/1 358/10/1 359/11/1 360/12/1
f 361/10/1 362/13/1 363/14/1 364/11/1
f 365/13/1 366/1/1 367/4/1 368/14/1
f 369/19/1 370/20/1 371/10/1 372/9/1
f 373/20/1 374/21/1 375/13/1 376/10/1
f 377/21/1 378/15/1 379/1/1 380/13/1
f 381/22/1 382/23/1 383/16/1 384/15/1
f 385/23/1 386/24/1 387/17/1 388/16/1
f 389/23/1 390/24/1 391/17/1 392/16/1
f 393/23/1 394/24/1 395/17/1 396/16/1
f 397/23/1 398/24/1 399/17/1 400/16/1
f 401/23/1 402/24/1 403/17/1 404/16/1
f 405/24/1 406/25/1 407/18/1 408/17/1
f 409/19/1 410/20/1 411/10/1 412/9/1
f 413/20/1 414/21/1 415/13/1 416/10/1
f 417/21/1 418/15/1 419/1/1 420/13/1
f 421/19/1 422/20/1 423/10/1 424/9/1
f 425/20/1 426/21/1 427/13/1 428/10/1
f 429/21/1 430/15/1 431/1/1 432/13/1
f 433/19/1 434/20/1 435/10/1 436/9/1
f 437/20/1 438/21/1 439/13/1 440/10/1
f 441/21/1 442/15/1 443/1/1 444/13/1
f 445/26/1 446/27/1 447/20/1 448/19/1
f 449/27/1 450/28/1 451/21/1 452/20/1
f 453/28/1 454/22/1 455/15/1 456/21/1
f 457/19/1 458/20/1 459/10/1 460/9/1
f 461/20/1 462/21/1 463/13/1 464/10/1
f 465/21/1 466/15/1 467/1/1 468/13/1
f 469/19/1 470/20/1 471/10/1 472/9/1
f 473/20/1 474/21/1 475/13/1 476/10/1
f 477/21/1 478/15/1 479/1/1 480/13/1
f 481/19/1 482/20/1 483/10/1 484/9/1
f 485/20/1 486/21/1 487/13/1 488/10/1
f 489/21/1 490/15/1 491/1/1 492/13/1
f 493/19/1 494/20/1 495/10/1 496/9/1
f 497/20/1 498/21/1 499/13/1 500/10/1
f 501/21/1 502/15/1 503/1/1 504/13/1
f 505/1/1 506/2/1 507/3/1 508/4/1
f 509/2/1 510/5/1 511/6/1 512/3/1
f 513/2/1 514/5/1 515/6/1 516/3/1
f 517/5/1 518/7/1 519/8/1 520/6/1
f 521/1/1 522/2/1 523/3/1 524/4/1
f 525/2/1 526/5/1 527/6/1 528/3/1
f 529/2/1 530/5/1 531/6/1 532/3/1
f 533/2/1 534/5/1 535/6/1 536/3/1
f 537/2/1 538/5/1 539/6/1 540/3/1
f 541/2/1 542/5/1 543/6/1 544/3/1
f 545/5/1 546/7/1 547/8/1 548/6/1
f 549/26/1 550/27/1 551/20/1 552/19/1
f 553/27/1 554/28/1 555/21/1 556/20/1
f 557/28/1 558/22/1 559/15/1 560/21/1
f 561/15/1 562/16/1 563/2/1 564/1/1
f 565/16/1 566/17/1 567/5/1 568/2/1
f 569/16/1 570/17/1 571/5/1 572/2/1
f 573/17/1 574/18/1 575/7/1 576/5/1
f 577/1/1 578/2/1 579/3/1 580/4/1
f 581/2/1 582/5/1 583/6/1 584/3/1
f 585/2/1 586/5/1 587/6/1 588/3/1
f 589/2/1 590/5/1 591/6/1 592/3/1
f 593/2/1 594/5/1 595/6/1 596/3/1
f 597/2/1 598/5/1 599/6/1 600/3/1
f 601/5/1 602/7/1 603/8/1 604/6/1
f 605/15/1 606/16/1 607/2/1 608/1/1
f 609/16/1 610/17/1 611/5/1 612/2/1
f 613/16/1 614/17/1 615/5/1 616/2/1
f 617/16/1 618/17/1 619/5/1 620/2/1
f 621/16/1 622/17/1 623/5/1 624/2/1
f 625/16/1 626/17/1 627/5/1 628/2/1
f 629/17/1 630/18/1 631/7/1 632/5/1
f 633/22/1 634/23/1 635/16/1 636/15/1
f 637/23/1 638/24/1 639/17/1 640/16/1
f 641/23/1 642/24/1 643/17/1 644/16/1
f 645/24/1 646/25/1 647/18/1 648/17/1
f 649/15/1 650/16/1 651/2/1 652/1/1
f 653/16/1 654/17/1 655/5/1 656/2/1
f 657/16/1 658/17/1 659/5/1 660/2/1
f 661/16/1 662/17/1 663/5/1 664/2/1
f 665/16/1 666/17/1 667/5/1 668/2/1
f 669/16/1 670/17/1 671/5/1 672/2/1
f 673/17/1 674/18/1 675/7/1 676/5/1
f 677/22/1 678/23/1 679/16/1 680/15/1
f 681/23/1 682/24/1 683/17/1 684/16/1
f 685/23/1 686/24/1 687/17/1 688/16/1
f 689/23/1 690/24/1 691/17/1 692/16/1
f 693/23/1 694/24/1 695/17/1 696/16/1
f 697/23/1 698/24/1 699/17/1 700/16/1
f 701/24/1 702/25/1 703/18/1 704/17/1
f 705/22/1 706/23/1 707/16/1 708/15/1
f 709/23/1 710/24/1 711/17/1 712/16/1
f 713/23/1 714/24/1 715/17/1 716/16/1
f 717/23/1 718/24/1 719/17/1 720/16/1
f 721/23/1 722/24/1 723/17/1 724/16/1
f 725/23/1 726/24/1 727/17/1 728/16/1
f 729/24/1 730/25/1 731/18/1 732/17/1

