# Tiled2Unity generated file. Do not modify by hand.
# Wavefront file for 'mapaU_mesh_0002.obj'

# Vertices (Count = 588)
v 0 -1 0
v -1 -1 0
v -1 0 0
v 0 0 0
v -9 -1 0
v -10 -1 0
v -10 0 0
v -9 0 0
v -29 -1 0
v -30 -1 0
v -30 0 0
v -29 0 0
v 0 -2 0
v -1 -2 0
v -1 -1 0
v 0 -1 0
v -4 -2 0
v -5 -2 0
v -5 -1 0
v -4 -1 0
v -5 -2 0
v -6 -2 0
v -6 -1 0
v -5 -1 0
v -6 -2 0
v -7 -2 0
v -7 -1 0
v -6 -1 0
v -7 -2 0
v -8 -2 0
v -8 -1 0
v -7 -1 0
v -8 -2 0
v -9 -2 0
v -9 -1 0
v -8 -1 0
v -9 -2 0
v -10 -2 0
v -10 -1 0
v -9 -1 0
v -20 -2 0
v -21 -2 0
v -21 -1 0
v -20 -1 0
v -21 -2 0
v -22 -2 0
v -22 -1 0
v -21 -1 0
v -22 -2 0
v -23 -2 0
v -23 -1 0
v -22 -1 0
v -23 -2 0
v -24 -2 0
v -24 -1 0
v -23 -1 0
v -24 -2 0
v -25 -2 0
v -25 -1 0
v -24 -1 0
v -25 -2 0
v -26 -2 0
v -26 -1 0
v -25 -1 0
v -29 -2 0
v -30 -2 0
v -30 -1 0
v -29 -1 0
v 0 -3 0
v -1 -3 0
v -1 -2 0
v 0 -2 0
v -4 -3 0
v -5 -3 0
v -5 -2 0
v -4 -2 0
v -5 -3 0
v -6 -3 0
v -6 -2 0
v -5 -2 0
v -6 -3 0
v -7 -3 0
v -7 -2 0
v -6 -2 0
v -7 -3 0
v -8 -3 0
v -8 -2 0
v -7 -2 0
v -8 -3 0
v -9 -3 0
v -9 -2 0
v -8 -2 0
v -9 -3 0
v -10 -3 0
v -10 -2 0
v -9 -2 0
v -20 -3 0
v -21 -3 0
v -21 -2 0
v -20 -2 0
v -21 -3 0
v -22 -3 0
v -22 -2 0
v -21 -2 0
v -22 -3 0
v -23 -3 0
v -23 -2 0
v -22 -2 0
v -23 -3 0
v -24 -3 0
v -24 -2 0
v -23 -2 0
v -24 -3 0
v -25 -3 0
v -25 -2 0
v -24 -2 0
v -25 -3 0
v -26 -3 0
v -26 -2 0
v -25 -2 0
v -29 -3 0
v -30 -3 0
v -30 -2 0
v -29 -2 0
v 0 -4 0
v -1 -4 0
v -1 -3 0
v 0 -3 0
v -3 -4 0
v -4 -4 0
v -4 -3 0
v -3 -3 0
v -6 -4 0
v -7 -4 0
v -7 -3 0
v -6 -3 0
v -9 -4 0
v -10 -4 0
v -10 -3 0
v -9 -3 0
v -29 -4 0
v -30 -4 0
v -30 -3 0
v -29 -3 0
v 0 -5 0
v -1 -5 0
v -1 -4 0
v 0 -4 0
v -29 -5 0
v -30 -5 0
v -30 -4 0
v -29 -4 0
v 0 -6 0
v -1 -6 0
v -1 -5 0
v 0 -5 0
v -1 -6 0
v -2 -6 0
v -2 -5 0
v -1 -5 0
v -2 -6 0
v -3 -6 0
v -3 -5 0
v -2 -5 0
v -19 -6 0
v -20 -6 0
v -20 -5 0
v -19 -5 0
v -22 -6 0
v -23 -6 0
v -23 -5 0
v -22 -5 0
v -28 -6 0
v -29 -6 0
v -29 -5 0
v -28 -5 0
v -29 -6 0
v -30 -6 0
v -30 -5 0
v -29 -5 0
v 0 -7 0
v -1 -7 0
v -1 -6 0
v 0 -6 0
v -1 -7 0
v -2 -7 0
v -2 -6 0
v -1 -6 0
v -2 -7 0
v -3 -7 0
v -3 -6 0
v -2 -6 0
v -3 -7 0
v -4 -7 0
v -4 -6 0
v -3 -6 0
v -29 -7 0
v -30 -7 0
v -30 -6 0
v -29 -6 0
v 0 -8 0
v -1 -8 0
v -1 -7 0
v 0 -7 0
v -28 -8 0
v -29 -8 0
v -29 -7 0
v -28 -7 0
v -29 -8 0
v -30 -8 0
v -30 -7 0
v -29 -7 0
v 0 -9 0
v -1 -9 0
v -1 -8 0
v 0 -8 0
v -29 -9 0
v -30 -9 0
v -30 -8 0
v -29 -8 0
v 0 -10 0
v -1 -10 0
v -1 -9 0
v 0 -9 0
v -2 -10 0
v -3 -10 0
v -3 -9 0
v -2 -9 0
v -29 -10 0
v -30 -10 0
v -30 -9 0
v -29 -9 0
v 0 -11 0
v -1 -11 0
v -1 -10 0
v 0 -10 0
v -29 -11 0
v -30 -11 0
v -30 -10 0
v -29 -10 0
v 0 -12 0
v -1 -12 0
v -1 -11 0
v 0 -11 0
v -4 -12 0
v -5 -12 0
v -5 -11 0
v -4 -11 0
v -29 -12 0
v -30 -12 0
v -30 -11 0
v -29 -11 0
v 0 -13 0
v -1 -13 0
v -1 -12 0
v 0 -12 0
v -19 -13 0
v -20 -13 0
v -20 -12 0
v -19 -12 0
v -22 -13 0
v -23 -13 0
v -23 -12 0
v -22 -12 0
v -29 -13 0
v -30 -13 0
v -30 -12 0
v -29 -12 0
v 0 -14 0
v -1 -14 0
v -1 -13 0
v 0 -13 0
v -29 -14 0
v -30 -14 0
v -30 -13 0
v -29 -13 0
v 0 -15 0
v -1 -15 0
v -1 -14 0
v 0 -14 0
v -23 -15 0
v -24 -15 0
v -24 -14 0
v -23 -14 0
v -29 -15 0
v -30 -15 0
v -30 -14 0
v -29 -14 0
v 0 -16 0
v -1 -16 0
v -1 -15 0
v 0 -15 0
v -9 -16 0
v -10 -16 0
v -10 -15 0
v -9 -15 0
v -27 -16 0
v -28 -16 0
v -28 -15 0
v -27 -15 0
v -28 -16 0
v -29 -16 0
v -29 -15 0
v -28 -15 0
v -29 -16 0
v -30 -16 0
v -30 -15 0
v -29 -15 0
v 0 -17 0
v -1 -17 0
v -1 -16 0
v 0 -16 0
v -26 -17 0
v -27 -17 0
v -27 -16 0
v -26 -16 0
v -27 -17 0
v -28 -17 0
v -28 -16 0
v -27 -16 0
v -28 -17 0
v -29 -17 0
v -29 -16 0
v -28 -16 0
v -29 -17 0
v -30 -17 0
v -30 -16 0
v -29 -16 0
v 0 -18 0
v -1 -18 0
v -1 -17 0
v 0 -17 0
v -4 -18 0
v -5 -18 0
v -5 -17 0
v -4 -17 0
v -29 -18 0
v -30 -18 0
v -30 -17 0
v -29 -17 0
v 0 -19 0
v -1 -19 0
v -1 -18 0
v 0 -18 0
v -29 -19 0
v -30 -19 0
v -30 -18 0
v -29 -18 0
v 0 -20 0
v -1 -20 0
v -1 -19 0
v 0 -19 0
v -28 -20 0
v -29 -20 0
v -29 -19 0
v -28 -19 0
v -29 -20 0
v -30 -20 0
v -30 -19 0
v -29 -19 0
v 0 -21 0
v -1 -21 0
v -1 -20 0
v 0 -20 0
v -29 -21 0
v -30 -21 0
v -30 -20 0
v -29 -20 0
v 0 -22 0
v -1 -22 0
v -1 -21 0
v 0 -21 0
v -20 -22 0
v -21 -22 0
v -21 -21 0
v -20 -21 0
v -29 -22 0
v -30 -22 0
v -30 -21 0
v -29 -21 0
v 0 -23 0
v -1 -23 0
v -1 -22 0
v 0 -22 0
v -3 -23 0
v -4 -23 0
v -4 -22 0
v -3 -22 0
v -29 -23 0
v -30 -23 0
v -30 -22 0
v -29 -22 0
v 0 -24 0
v -1 -24 0
v -1 -23 0
v 0 -23 0
v -1 -24 0
v -2 -24 0
v -2 -23 0
v -1 -23 0
v -2 -24 0
v -3 -24 0
v -3 -23 0
v -2 -23 0
v -7 -24 0
v -8 -24 0
v -8 -23 0
v -7 -23 0
v -29 -24 0
v -30 -24 0
v -30 -23 0
v -29 -23 0
v 0 -25 0
v -1 -25 0
v -1 -24 0
v 0 -24 0
v -1 -25 0
v -2 -25 0
v -2 -24 0
v -1 -24 0
v -2 -25 0
v -3 -25 0
v -3 -24 0
v -2 -24 0
v -29 -25 0
v -30 -25 0
v -30 -24 0
v -29 -24 0
v 0 -26 0
v -1 -26 0
v -1 -25 0
v 0 -25 0
v 0 -27 0
v -1 -27 0
v -1 -26 0
v 0 -26 0
v -1 -27 0
v -2 -27 0
v -2 -26 0
v -1 -26 0
v -2 -27 0
v -3 -27 0
v -3 -26 0
v -2 -26 0
v -12 -27 0
v -13 -27 0
v -13 -26 0
v -12 -26 0
v -23 -27 0
v -24 -27 0
v -24 -26 0
v -23 -26 0
v 0 -28 0
v -1 -28 0
v -1 -27 0
v 0 -27 0
v -1 -28 0
v -2 -28 0
v -2 -27 0
v -1 -27 0
v -2 -28 0
v -3 -28 0
v -3 -27 0
v -2 -27 0
v -27 -28 0
v -28 -28 0
v -28 -27 0
v -27 -27 0
v 0 -29 0
v -1 -29 0
v -1 -28 0
v 0 -28 0
v -1 -29 0
v -2 -29 0
v -2 -28 0
v -1 -28 0
v -2 -29 0
v -3 -29 0
v -3 -28 0
v -2 -28 0
v -3 -29 0
v -4 -29 0
v -4 -28 0
v -3 -28 0
v -4 -29 0
v -5 -29 0
v -5 -28 0
v -4 -28 0
v -5 -29 0
v -6 -29 0
v -6 -28 0
v -5 -28 0
v -6 -29 0
v -7 -29 0
v -7 -28 0
v -6 -28 0
v -7 -29 0
v -8 -29 0
v -8 -28 0
v -7 -28 0
v -8 -29 0
v -9 -29 0
v -9 -28 0
v -8 -28 0
v -9 -29 0
v -10 -29 0
v -10 -28 0
v -9 -28 0
v -10 -29 0
v -11 -29 0
v -11 -28 0
v -10 -28 0
v -11 -29 0
v -12 -29 0
v -12 -28 0
v -11 -28 0
v -12 -29 0
v -13 -29 0
v -13 -28 0
v -12 -28 0
v -13 -29 0
v -14 -29 0
v -14 -28 0
v -13 -28 0
v -14 -29 0
v -15 -29 0
v -15 -28 0
v -14 -28 0
v -15 -29 0
v -16 -29 0
v -16 -28 0
v -15 -28 0
v -16 -29 0
v -17 -29 0
v -17 -28 0
v -16 -28 0
v -17 -29 0
v -18 -29 0
v -18 -28 0
v -17 -28 0
v -18 -29 0
v -19 -29 0
v -19 -28 0
v -18 -28 0
v -19 -29 0
v -20 -29 0
v -20 -28 0
v -19 -28 0
v -20 -29 0
v -21 -29 0
v -21 -28 0
v -20 -28 0
v -21 -29 0
v -22 -29 0
v -22 -28 0
v -21 -28 0
v -22 -29 0
v -23 -29 0
v -23 -28 0
v -22 -28 0
v -23 -29 0
v -24 -29 0
v -24 -28 0
v -23 -28 0
v -24 -29 0
v -25 -29 0
v -25 -28 0
v -24 -28 0
v -25 -29 0
v -26 -29 0
v -26 -28 0
v -25 -28 0
v -26 -29 0
v -27 -29 0
v -27 -28 0
v -26 -28 0
v -27 -29 0
v -28 -29 0
v -28 -28 0
v -27 -28 0
v -28 -29 0
v -29 -29 0
v -29 -28 0
v -28 -28 0
v -29 -29 0
v -30 -29 0
v -30 -28 0
v -29 -28 0

# Texture cooridinates (Count = 52)
vt 0.025 0.6111111
vt 0.05 0.6111111
vt 0.05 0.6388889
vt 0.025 0.6388889
vt 0.7 0.9166667
vt 0.725 0.9166667
vt 0.725 0.9444444
vt 0.7 0.9444444
vt 0.075 0.6111111
vt 0.1 0.6111111
vt 0.1 0.6388889
vt 0.075 0.6388889
vt 0.025 0.5833334
vt 0.05 0.5833334
vt 0.875 0.8333333
vt 0.9 0.8333333
vt 0.9 0.8611111
vt 0.875 0.8611111
vt 0.925 0.8333333
vt 0.925 0.8611111
vt 0.075 0.5833334
vt 0.1 0.5833334
vt 0.875 0.8055556
vt 0.9 0.8055556
vt 0.925 0.8055556
vt 0.675 0.8888889
vt 0.7 0.8888889
vt 0.675 0.9166667
vt 0.1 0.6666666
vt 0.075 0.6666666
vt 0.775 0.8888889
vt 0.8 0.8888889
vt 0.8 0.9166667
vt 0.775 0.9166667
vt 0.825 0.8888889
vt 0.825 0.9166667
vt 0.775 0.8611111
vt 0.8 0.8611111
vt 0.825 0.8611111
vt 0.1 0.9444444
vt 0.125 0.9444444
vt 0.125 0.9722222
vt 0.1 0.9722222
vt 0.15 0.9444444
vt 0.15 0.9722222
vt 0.1 0.9166667
vt 0.125 0.9166667
vt 0.15 0.9166667
vt 0.025 0.5555556
vt 0.05 0.5555556
vt 0.075 0.5555556
vt 0.1 0.5555556

# Normal
vn 0 0 -1

# Mesh description
g mapaU_mesh_0002

# Faces
f 1/1/1 2/2/1 3/3/1 4/4/1
f 5/5/1 6/6/1 7/7/1 8/8/1
f 9/9/1 10/10/1 11/11/1 12/12/1
f 13/13/1 14/14/1 15/2/1 16/1/1
f 17/15/1 18/16/1 19/17/1 20/18/1
f 21/16/1 22/19/1 23/20/1 24/17/1
f 25/15/1 26/16/1 27/17/1 28/18/1
f 29/16/1 30/19/1 31/20/1 32/17/1
f 33/15/1 34/16/1 35/17/1 36/18/1
f 37/16/1 38/19/1 39/20/1 40/17/1
f 41/15/1 42/16/1 43/17/1 44/18/1
f 45/16/1 46/19/1 47/20/1 48/17/1
f 49/15/1 50/16/1 51/17/1 52/18/1
f 53/16/1 54/19/1 55/20/1 56/17/1
f 57/15/1 58/16/1 59/17/1 60/18/1
f 61/16/1 62/19/1 63/20/1 64/17/1
f 65/21/1 66/22/1 67/10/1 68/9/1
f 69/13/1 70/14/1 71/2/1 72/1/1
f 73/23/1 74/24/1 75/16/1 76/15/1
f 77/24/1 78/25/1 79/19/1 80/16/1
f 81/23/1 82/24/1 83/16/1 84/15/1
f 85/24/1 86/25/1 87/19/1 88/16/1
f 89/23/1 90/24/1 91/16/1 92/15/1
f 93/24/1 94/25/1 95/19/1 96/16/1
f 97/23/1 98/24/1 99/16/1 100/15/1
f 101/24/1 102/25/1 103/19/1 104/16/1
f 105/23/1 106/24/1 107/16/1 108/15/1
f 109/24/1 110/25/1 111/19/1 112/16/1
f 113/23/1 114/24/1 115/16/1 116/15/1
f 117/24/1 118/25/1 119/19/1 120/16/1
f 121/21/1 122/22/1 123/10/1 124/9/1
f 125/13/1 126/14/1 127/2/1 128/1/1
f 129/26/1 130/27/1 131/5/1 132/28/1
f 133/12/1 134/11/1 135/29/1 136/30/1
f 137/26/1 138/27/1 139/5/1 140/28/1
f 141/21/1 142/22/1 143/10/1 144/9/1
f 145/13/1 146/14/1 147/2/1 148/1/1
f 149/21/1 150/22/1 151/10/1 152/9/1
f 153/13/1 154/14/1 155/2/1 156/1/1
f 157/31/1 158/32/1 159/33/1 160/34/1
f 161/32/1 162/35/1 163/36/1 164/33/1
f 165/26/1 166/27/1 167/5/1 168/28/1
f 169/12/1 170/11/1 171/29/1 172/30/1
f 173/12/1 174/11/1 175/29/1 176/30/1
f 177/21/1 178/22/1 179/10/1 180/9/1
f 181/13/1 182/14/1 183/2/1 184/1/1
f 185/37/1 186/38/1 187/32/1 188/31/1
f 189/38/1 190/39/1 191/35/1 192/32/1
f 193/12/1 194/11/1 195/29/1 196/30/1
f 197/21/1 198/22/1 199/10/1 200/9/1
f 201/13/1 202/14/1 203/2/1 204/1/1
f 205/26/1 206/27/1 207/5/1 208/28/1
f 209/21/1 210/22/1 211/10/1 212/9/1
f 213/13/1 214/14/1 215/2/1 216/1/1
f 217/21/1 218/22/1 219/10/1 220/9/1
f 221/13/1 222/14/1 223/2/1 224/1/1
f 225/26/1 226/27/1 227/5/1 228/28/1
f 229/21/1 230/22/1 231/10/1 232/9/1
f 233/13/1 234/14/1 235/2/1 236/1/1
f 237/21/1 238/22/1 239/10/1 240/9/1
f 241/13/1 242/14/1 243/2/1 244/1/1
f 245/12/1 246/11/1 247/29/1 248/30/1
f 249/21/1 250/22/1 251/10/1 252/9/1
f 253/13/1 254/14/1 255/2/1 256/1/1
f 257/26/1 258/27/1 259/5/1 260/28/1
f 261/12/1 262/11/1 263/29/1 264/30/1
f 265/21/1 266/22/1 267/10/1 268/9/1
f 269/13/1 270/14/1 271/2/1 272/1/1
f 273/21/1 274/22/1 275/10/1 276/9/1
f 277/13/1 278/14/1 279/2/1 280/1/1
f 281/26/1 282/27/1 283/5/1 284/28/1
f 285/21/1 286/22/1 287/10/1 288/9/1
f 289/13/1 290/14/1 291/2/1 292/1/1
f 293/26/1 294/27/1 295/5/1 296/28/1
f 297/31/1 298/32/1 299/33/1 300/34/1
f 301/32/1 302/35/1 303/36/1 304/33/1
f 305/21/1 306/22/1 307/10/1 308/9/1
f 309/13/1 310/14/1 311/2/1 312/1/1
f 313/12/1 314/11/1 315/29/1 316/30/1
f 317/37/1 318/38/1 319/32/1 320/31/1
f 321/38/1 322/39/1 323/35/1 324/32/1
f 325/21/1 326/22/1 327/10/1 328/9/1
f 329/13/1 330/14/1 331/2/1 332/1/1
f 333/26/1 334/27/1 335/5/1 336/28/1
f 337/21/1 338/22/1 339/10/1 340/9/1
f 341/13/1 342/14/1 343/2/1 344/1/1
f 345/21/1 346/22/1 347/10/1 348/9/1
f 349/13/1 350/14/1 351/2/1 352/1/1
f 353/26/1 354/27/1 355/5/1 356/28/1
f 357/21/1 358/22/1 359/10/1 360/9/1
f 361/13/1 362/14/1 363/2/1 364/1/1
f 365/21/1 366/22/1 367/10/1 368/9/1
f 369/13/1 370/14/1 371/2/1 372/1/1
f 373/26/1 374/27/1 375/5/1 376/28/1
f 377/21/1 378/22/1 379/10/1 380/9/1
f 381/13/1 382/14/1 383/2/1 384/1/1
f 385/12/1 386/11/1 387/29/1 388/30/1
f 389/21/1 390/22/1 391/10/1 392/9/1
f 393/13/1 394/14/1 395/2/1 396/1/1
f 397/31/1 398/32/1 399/33/1 400/34/1
f 401/32/1 402/35/1 403/36/1 404/33/1
f 405/26/1 406/27/1 407/5/1 408/28/1
f 409/21/1 410/22/1 411/10/1 412/9/1
f 413/13/1 414/14/1 415/2/1 416/1/1
f 417/37/1 418/38/1 419/32/1 420/31/1
f 421/38/1 422/39/1 423/35/1 424/32/1
f 425/21/1 426/22/1 427/10/1 428/9/1
f 429/13/1 430/14/1 431/2/1 432/1/1
f 433/13/1 434/14/1 435/2/1 436/1/1
f 437/40/1 438/41/1 439/42/1 440/43/1
f 441/41/1 442/44/1 443/45/1 444/42/1
f 445/26/1 446/27/1 447/5/1 448/28/1
f 449/12/1 450/11/1 451/29/1 452/30/1
f 453/13/1 454/14/1 455/2/1 456/1/1
f 457/46/1 458/47/1 459/41/1 460/40/1
f 461/47/1 462/48/1 463/44/1 464/41/1
f 465/26/1 466/27/1 467/5/1 468/28/1
f 469/49/1 470/50/1 471/14/1 472/13/1
f 473/50/1 474/51/1 475/21/1 476/14/1
f 477/50/1 478/51/1 479/21/1 480/14/1
f 481/50/1 482/51/1 483/21/1 484/14/1
f 485/50/1 486/51/1 487/21/1 488/14/1
f 489/50/1 490/51/1 491/21/1 492/14/1
f 493/50/1 494/51/1 495/21/1 496/14/1
f 497/50/1 498/51/1 499/21/1 500/14/1
f 501/50/1 502/51/1 503/21/1 504/14/1
f 505/50/1 506/51/1 507/21/1 508/14/1
f 509/50/1 510/51/1 511/21/1 512/14/1
f 513/50/1 514/51/1 515/21/1 516/14/1
f 517/50/1 518/51/1 519/21/1 520/14/1
f 521/50/1 522/51/1 523/21/1 524/14/1
f 525/50/1 526/51/1 527/21/1 528/14/1
f 529/50/1 530/51/1 531/21/1 532/14/1
f 533/50/1 534/51/1 535/21/1 536/14/1
f 537/50/1 538/51/1 539/21/1 540/14/1
f 541/50/1 542/51/1 543/21/1 544/14/1
f 545/50/1 546/51/1 547/21/1 548/14/1
f 549/50/1 550/51/1 551/21/1 552/14/1
f 553/50/1 554/51/1 555/21/1 556/14/1
f 557/50/1 558/51/1 559/21/1 560/14/1
f 561/50/1 562/51/1 563/21/1 564/14/1
f 565/50/1 566/51/1 567/21/1 568/14/1
f 569/50/1 570/51/1 571/21/1 572/14/1
f 573/50/1 574/51/1 575/21/1 576/14/1
f 577/50/1 578/51/1 579/21/1 580/14/1
f 581/50/1 582/51/1 583/21/1 584/14/1
f 585/51/1 586/52/1 587/22/1 588/21/1

