# Tiled2Unity generated file. Do not modify by hand.
# Wavefront file for 'mapaNormal_mesh_0003.obj'

# Vertices (Count = 92)
v -1 -6 0
v -2 -6 0
v -2 -5 0
v -1 -5 0
v -4 -6 0
v -5 -6 0
v -5 -5 0
v -4 -5 0
v -8 -6 0
v -9 -6 0
v -9 -5 0
v -8 -5 0
v -9 -6 0
v -10 -6 0
v -10 -5 0
v -9 -5 0
v -21 -6 0
v -22 -6 0
v -22 -5 0
v -21 -5 0
v -29 -6 0
v -30 -6 0
v -30 -5 0
v -29 -5 0
v -8 -8 0
v -9 -8 0
v -9 -7 0
v -8 -7 0
v -29 -8 0
v -30 -8 0
v -30 -7 0
v -29 -7 0
v 0 -9 0
v -1 -9 0
v -1 -8 0
v 0 -8 0
v -4 -9 0
v -5 -9 0
v -5 -8 0
v -4 -8 0
v -24 -9 0
v -25 -9 0
v -25 -8 0
v -24 -8 0
v -27 -9 0
v -28 -9 0
v -28 -8 0
v -27 -8 0
v -29 -12 0
v -30 -12 0
v -30 -11 0
v -29 -11 0
v -1 -14 0
v -2 -14 0
v -2 -13 0
v -1 -13 0
v -11 -14 0
v -12 -14 0
v -12 -13 0
v -11 -13 0
v -19 -14 0
v -20 -14 0
v -20 -13 0
v -19 -13 0
v -10 -18 0
v -11 -18 0
v -11 -17 0
v -10 -17 0
v -4 -20 0
v -5 -20 0
v -5 -19 0
v -4 -19 0
v -26 -21 0
v -27 -21 0
v -27 -20 0
v -26 -20 0
v -20 -24 0
v -21 -24 0
v -21 -23 0
v -20 -23 0
v -1 -28 0
v -2 -28 0
v -2 -27 0
v -1 -27 0
v 0 -30 0
v -1 -30 0
v -1 -29 0
v 0 -29 0
v -29 -30 0
v -30 -30 0
v -30 -29 0
v -29 -29 0

# Texture cooridinates (Count = 17)
vt 0.675 0.8888889
vt 0.7 0.8888889
vt 0.7 0.9166667
vt 0.675 0.9166667
vt 0.725 0.9166667
vt 0.725 0.9444444
vt 0.7 0.9444444
vt 0.75 0.9166667
vt 0.75 0.9444444
vt 0 0.75
vt 0.025 0.75
vt 0.025 0.7777778
vt 0 0.7777778
vt 0.075 0.9722222
vt 0.1 0.9722222
vt 0.1 1
vt 0.075 1

# Normal
vn 0 0 -1

# Mesh description
g mapaNormal_mesh_0003

# Faces
f 1/1/1 2/2/1 3/3/1 4/4/1
f 5/1/1 6/2/1 7/3/1 8/4/1
f 9/3/1 10/5/1 11/6/1 12/7/1
f 13/5/1 14/8/1 15/9/1 16/6/1
f 17/1/1 18/2/1 19/3/1 20/4/1
f 21/1/1 22/2/1 23/3/1 24/4/1
f 25/10/1 26/11/1 27/12/1 28/13/1
f 29/10/1 30/11/1 31/12/1 32/13/1
f 33/10/1 34/11/1 35/12/1 36/13/1
f 37/5/1 38/8/1 39/9/1 40/6/1
f 41/5/1 42/8/1 43/9/1 44/6/1
f 45/10/1 46/11/1 47/12/1 48/13/1
f 49/10/1 50/11/1 51/12/1 52/13/1
f 53/10/1 54/11/1 55/12/1 56/13/1
f 57/14/1 58/15/1 59/16/1 60/17/1
f 61/14/1 62/15/1 63/16/1 64/17/1
f 65/14/1 66/15/1 67/16/1 68/17/1
f 69/10/1 70/11/1 71/12/1 72/13/1
f 73/10/1 74/11/1 75/12/1 76/13/1
f 77/14/1 78/15/1 79/16/1 80/17/1
f 81/10/1 82/11/1 83/12/1 84/13/1
f 85/10/1 86/11/1 87/12/1 88/13/1
f 89/10/1 90/11/1 91/12/1 92/13/1

