# Tiled2Unity generated file. Do not modify by hand.
# Wavefront file for 'mapaNormal_mesh_0014.obj'

# Vertices (Count = 816)
v -4 -1 0
v -5 -1 0
v -5 0 0
v -4 0 0
v -5 -1 0
v -6 -1 0
v -6 0 0
v -5 0 0
v -6 -1 0
v -7 -1 0
v -7 0 0
v -6 0 0
v -20 -1 0
v -21 -1 0
v -21 0 0
v -20 0 0
v -21 -1 0
v -22 -1 0
v -22 0 0
v -21 0 0
v -22 -1 0
v -23 -1 0
v -23 0 0
v -22 0 0
v -1 -2 0
v -2 -2 0
v -2 -1 0
v -1 -1 0
v -2 -2 0
v -3 -2 0
v -3 -1 0
v -2 -1 0
v -3 -2 0
v -4 -2 0
v -4 -1 0
v -3 -1 0
v -4 -2 0
v -5 -2 0
v -5 -1 0
v -4 -1 0
v -5 -2 0
v -6 -2 0
v -6 -1 0
v -5 -1 0
v -6 -2 0
v -7 -2 0
v -7 -1 0
v -6 -1 0
v -8 -2 0
v -9 -2 0
v -9 -1 0
v -8 -1 0
v -9 -2 0
v -10 -2 0
v -10 -1 0
v -9 -1 0
v -10 -2 0
v -11 -2 0
v -11 -1 0
v -10 -1 0
v -20 -2 0
v -21 -2 0
v -21 -1 0
v -20 -1 0
v -21 -2 0
v -22 -2 0
v -22 -1 0
v -21 -1 0
v -22 -2 0
v -23 -2 0
v -23 -1 0
v -22 -1 0
v -23 -2 0
v -24 -2 0
v -24 -1 0
v -23 -1 0
v -24 -2 0
v -25 -2 0
v -25 -1 0
v -24 -1 0
v -25 -2 0
v -26 -2 0
v -26 -1 0
v -25 -1 0
v -1 -3 0
v -2 -3 0
v -2 -2 0
v -1 -2 0
v -2 -3 0
v -3 -3 0
v -3 -2 0
v -2 -2 0
v -3 -3 0
v -4 -3 0
v -4 -2 0
v -3 -2 0
v -4 -3 0
v -5 -3 0
v -5 -2 0
v -4 -2 0
v -5 -3 0
v -6 -3 0
v -6 -2 0
v -5 -2 0
v -6 -3 0
v -7 -3 0
v -7 -2 0
v -6 -2 0
v -8 -3 0
v -9 -3 0
v -9 -2 0
v -8 -2 0
v -9 -3 0
v -10 -3 0
v -10 -2 0
v -9 -2 0
v -10 -3 0
v -11 -3 0
v -11 -2 0
v -10 -2 0
v -20 -3 0
v -21 -3 0
v -21 -2 0
v -20 -2 0
v -21 -3 0
v -22 -3 0
v -22 -2 0
v -21 -2 0
v -22 -3 0
v -23 -3 0
v -23 -2 0
v -22 -2 0
v -23 -3 0
v -24 -3 0
v -24 -2 0
v -23 -2 0
v -24 -3 0
v -25 -3 0
v -25 -2 0
v -24 -2 0
v -25 -3 0
v -26 -3 0
v -26 -2 0
v -25 -2 0
v -1 -4 0
v -2 -4 0
v -2 -3 0
v -1 -3 0
v -2 -4 0
v -3 -4 0
v -3 -3 0
v -2 -3 0
v -3 -4 0
v -4 -4 0
v -4 -3 0
v -3 -3 0
v -4 -4 0
v -5 -4 0
v -5 -3 0
v -4 -3 0
v -5 -4 0
v -6 -4 0
v -6 -3 0
v -5 -3 0
v -6 -4 0
v -7 -4 0
v -7 -3 0
v -6 -3 0
v -8 -4 0
v -9 -4 0
v -9 -3 0
v -8 -3 0
v -9 -4 0
v -10 -4 0
v -10 -3 0
v -9 -3 0
v -10 -4 0
v -11 -4 0
v -11 -3 0
v -10 -3 0
v -20 -4 0
v -21 -4 0
v -21 -3 0
v -20 -3 0
v -21 -4 0
v -22 -4 0
v -22 -3 0
v -21 -3 0
v -22 -4 0
v -23 -4 0
v -23 -3 0
v -22 -3 0
v -23 -4 0
v -24 -4 0
v -24 -3 0
v -23 -3 0
v -24 -4 0
v -25 -4 0
v -25 -3 0
v -24 -3 0
v -25 -4 0
v -26 -4 0
v -26 -3 0
v -25 -3 0
v -27 -4 0
v -28 -4 0
v -28 -3 0
v -27 -3 0
v -28 -4 0
v -29 -4 0
v -29 -3 0
v -28 -3 0
v -29 -4 0
v -30 -4 0
v -30 -3 0
v -29 -3 0
v -1 -5 0
v -2 -5 0
v -2 -4 0
v -1 -4 0
v -2 -5 0
v -3 -5 0
v -3 -4 0
v -2 -4 0
v -3 -5 0
v -4 -5 0
v -4 -4 0
v -3 -4 0
v -8 -5 0
v -9 -5 0
v -9 -4 0
v -8 -4 0
v -9 -5 0
v -10 -5 0
v -10 -4 0
v -9 -4 0
v -10 -5 0
v -11 -5 0
v -11 -4 0
v -10 -4 0
v -23 -5 0
v -24 -5 0
v -24 -4 0
v -23 -4 0
v -24 -5 0
v -25 -5 0
v -25 -4 0
v -24 -4 0
v -25 -5 0
v -26 -5 0
v -26 -4 0
v -25 -4 0
v -27 -5 0
v -28 -5 0
v -28 -4 0
v -27 -4 0
v -28 -5 0
v -29 -5 0
v -29 -4 0
v -28 -4 0
v -29 -5 0
v -30 -5 0
v -30 -4 0
v -29 -4 0
v -27 -6 0
v -28 -6 0
v -28 -5 0
v -27 -5 0
v -28 -6 0
v -29 -6 0
v -29 -5 0
v -28 -5 0
v -29 -6 0
v -30 -6 0
v -30 -5 0
v -29 -5 0
v -27 -20 0
v -28 -20 0
v -28 -19 0
v -27 -19 0
v -28 -20 0
v -29 -20 0
v -29 -19 0
v -28 -19 0
v -29 -20 0
v -30 -20 0
v -30 -19 0
v -29 -19 0
v -27 -21 0
v -28 -21 0
v -28 -20 0
v -27 -20 0
v -28 -21 0
v -29 -21 0
v -29 -20 0
v -28 -20 0
v -29 -21 0
v -30 -21 0
v -30 -20 0
v -29 -20 0
v -27 -22 0
v -28 -22 0
v -28 -21 0
v -27 -21 0
v -28 -22 0
v -29 -22 0
v -29 -21 0
v -28 -21 0
v -29 -22 0
v -30 -22 0
v -30 -21 0
v -29 -21 0
v -27 -23 0
v -28 -23 0
v -28 -22 0
v -27 -22 0
v -28 -23 0
v -29 -23 0
v -29 -22 0
v -28 -22 0
v -29 -23 0
v -30 -23 0
v -30 -22 0
v -29 -22 0
v -27 -24 0
v -28 -24 0
v -28 -23 0
v -27 -23 0
v -28 -24 0
v -29 -24 0
v -29 -23 0
v -28 -23 0
v -29 -24 0
v -30 -24 0
v -30 -23 0
v -29 -23 0
v 0 -26 0
v -1 -26 0
v -1 -25 0
v 0 -25 0
v -1 -26 0
v -2 -26 0
v -2 -25 0
v -1 -25 0
v -2 -26 0
v -3 -26 0
v -3 -25 0
v -2 -25 0
v -3 -26 0
v -4 -26 0
v -4 -25 0
v -3 -25 0
v -4 -26 0
v -5 -26 0
v -5 -25 0
v -4 -25 0
v -5 -26 0
v -6 -26 0
v -6 -25 0
v -5 -25 0
v -6 -26 0
v -7 -26 0
v -7 -25 0
v -6 -25 0
v -7 -26 0
v -8 -26 0
v -8 -25 0
v -7 -25 0
v -8 -26 0
v -9 -26 0
v -9 -25 0
v -8 -25 0
v -9 -26 0
v -10 -26 0
v -10 -25 0
v -9 -25 0
v -10 -26 0
v -11 -26 0
v -11 -25 0
v -10 -25 0
v -11 -26 0
v -12 -26 0
v -12 -25 0
v -11 -25 0
v -18 -26 0
v -19 -26 0
v -19 -25 0
v -18 -25 0
v -19 -26 0
v -20 -26 0
v -20 -25 0
v -19 -25 0
v -20 -26 0
v -21 -26 0
v -21 -25 0
v -20 -25 0
v -21 -26 0
v -22 -26 0
v -22 -25 0
v -21 -25 0
v -22 -26 0
v -23 -26 0
v -23 -25 0
v -22 -25 0
v -23 -26 0
v -24 -26 0
v -24 -25 0
v -23 -25 0
v -24 -26 0
v -25 -26 0
v -25 -25 0
v -24 -25 0
v -25 -26 0
v -26 -26 0
v -26 -25 0
v -25 -25 0
v -26 -26 0
v -27 -26 0
v -27 -25 0
v -26 -25 0
v -27 -26 0
v -28 -26 0
v -28 -25 0
v -27 -25 0
v -28 -26 0
v -29 -26 0
v -29 -25 0
v -28 -25 0
v -29 -26 0
v -30 -26 0
v -30 -25 0
v -29 -25 0
v 0 -27 0
v -1 -27 0
v -1 -26 0
v 0 -26 0
v -1 -27 0
v -2 -27 0
v -2 -26 0
v -1 -26 0
v -2 -27 0
v -3 -27 0
v -3 -26 0
v -2 -26 0
v -3 -27 0
v -4 -27 0
v -4 -26 0
v -3 -26 0
v -4 -27 0
v -5 -27 0
v -5 -26 0
v -4 -26 0
v -5 -27 0
v -6 -27 0
v -6 -26 0
v -5 -26 0
v -6 -27 0
v -7 -27 0
v -7 -26 0
v -6 -26 0
v -7 -27 0
v -8 -27 0
v -8 -26 0
v -7 -26 0
v -8 -27 0
v -9 -27 0
v -9 -26 0
v -8 -26 0
v -9 -27 0
v -10 -27 0
v -10 -26 0
v -9 -26 0
v -10 -27 0
v -11 -27 0
v -11 -26 0
v -10 -26 0
v -11 -27 0
v -12 -27 0
v -12 -26 0
v -11 -26 0
v -18 -27 0
v -19 -27 0
v -19 -26 0
v -18 -26 0
v -19 -27 0
v -20 -27 0
v -20 -26 0
v -19 -26 0
v -20 -27 0
v -21 -27 0
v -21 -26 0
v -20 -26 0
v -21 -27 0
v -22 -27 0
v -22 -26 0
v -21 -26 0
v -22 -27 0
v -23 -27 0
v -23 -26 0
v -22 -26 0
v -23 -27 0
v -24 -27 0
v -24 -26 0
v -23 -26 0
v -24 -27 0
v -25 -27 0
v -25 -26 0
v -24 -26 0
v -25 -27 0
v -26 -27 0
v -26 -26 0
v -25 -26 0
v -26 -27 0
v -27 -27 0
v -27 -26 0
v -26 -26 0
v -27 -27 0
v -28 -27 0
v -28 -26 0
v -27 -26 0
v -28 -27 0
v -29 -27 0
v -29 -26 0
v -28 -26 0
v -29 -27 0
v -30 -27 0
v -30 -26 0
v -29 -26 0
v 0 -28 0
v -1 -28 0
v -1 -27 0
v 0 -27 0
v -1 -28 0
v -2 -28 0
v -2 -27 0
v -1 -27 0
v -2 -28 0
v -3 -28 0
v -3 -27 0
v -2 -27 0
v -3 -28 0
v -4 -28 0
v -4 -27 0
v -3 -27 0
v -4 -28 0
v -5 -28 0
v -5 -27 0
v -4 -27 0
v -5 -28 0
v -6 -28 0
v -6 -27 0
v -5 -27 0
v -6 -28 0
v -7 -28 0
v -7 -27 0
v -6 -27 0
v -7 -28 0
v -8 -28 0
v -8 -27 0
v -7 -27 0
v -8 -28 0
v -9 -28 0
v -9 -27 0
v -8 -27 0
v -9 -28 0
v -10 -28 0
v -10 -27 0
v -9 -27 0
v -10 -28 0
v -11 -28 0
v -11 -27 0
v -10 -27 0
v -11 -28 0
v -12 -28 0
v -12 -27 0
v -11 -27 0
v -18 -28 0
v -19 -28 0
v -19 -27 0
v -18 -27 0
v -19 -28 0
v -20 -28 0
v -20 -27 0
v -19 -27 0
v -20 -28 0
v -21 -28 0
v -21 -27 0
v -20 -27 0
v -21 -28 0
v -22 -28 0
v -22 -27 0
v -21 -27 0
v -22 -28 0
v -23 -28 0
v -23 -27 0
v -22 -27 0
v -23 -28 0
v -24 -28 0
v -24 -27 0
v -23 -27 0
v -24 -28 0
v -25 -28 0
v -25 -27 0
v -24 -27 0
v -25 -28 0
v -26 -28 0
v -26 -27 0
v -25 -27 0
v -26 -28 0
v -27 -28 0
v -27 -27 0
v -26 -27 0
v -27 -28 0
v -28 -28 0
v -28 -27 0
v -27 -27 0
v -28 -28 0
v -29 -28 0
v -29 -27 0
v -28 -27 0
v -29 -28 0
v -30 -28 0
v -30 -27 0
v -29 -27 0
v 0 -29 0
v -1 -29 0
v -1 -28 0
v 0 -28 0
v -1 -29 0
v -2 -29 0
v -2 -28 0
v -1 -28 0
v -2 -29 0
v -3 -29 0
v -3 -28 0
v -2 -28 0
v -3 -29 0
v -4 -29 0
v -4 -28 0
v -3 -28 0
v -4 -29 0
v -5 -29 0
v -5 -28 0
v -4 -28 0
v -5 -29 0
v -6 -29 0
v -6 -28 0
v -5 -28 0
v -6 -29 0
v -7 -29 0
v -7 -28 0
v -6 -28 0
v -7 -29 0
v -8 -29 0
v -8 -28 0
v -7 -28 0
v -8 -29 0
v -9 -29 0
v -9 -28 0
v -8 -28 0
v -9 -29 0
v -10 -29 0
v -10 -28 0
v -9 -28 0
v -10 -29 0
v -11 -29 0
v -11 -28 0
v -10 -28 0
v -11 -29 0
v -12 -29 0
v -12 -28 0
v -11 -28 0
v -18 -29 0
v -19 -29 0
v -19 -28 0
v -18 -28 0
v -19 -29 0
v -20 -29 0
v -20 -28 0
v -19 -28 0
v -20 -29 0
v -21 -29 0
v -21 -28 0
v -20 -28 0
v -21 -29 0
v -22 -29 0
v -22 -28 0
v -21 -28 0
v -22 -29 0
v -23 -29 0
v -23 -28 0
v -22 -28 0
v -23 -29 0
v -24 -29 0
v -24 -28 0
v -23 -28 0
v -24 -29 0
v -25 -29 0
v -25 -28 0
v -24 -28 0
v -25 -29 0
v -26 -29 0
v -26 -28 0
v -25 -28 0
v -26 -29 0
v -27 -29 0
v -27 -28 0
v -26 -28 0
v -27 -29 0
v -28 -29 0
v -28 -28 0
v -27 -28 0
v -28 -29 0
v -29 -29 0
v -29 -28 0
v -28 -28 0
v -29 -29 0
v -30 -29 0
v -30 -28 0
v -29 -28 0
v 0 -30 0
v -1 -30 0
v -1 -29 0
v 0 -29 0
v -1 -30 0
v -2 -30 0
v -2 -29 0
v -1 -29 0
v -2 -30 0
v -3 -30 0
v -3 -29 0
v -2 -29 0
v -3 -30 0
v -4 -30 0
v -4 -29 0
v -3 -29 0
v -4 -30 0
v -5 -30 0
v -5 -29 0
v -4 -29 0
v -5 -30 0
v -6 -30 0
v -6 -29 0
v -5 -29 0
v -6 -30 0
v -7 -30 0
v -7 -29 0
v -6 -29 0
v -7 -30 0
v -8 -30 0
v -8 -29 0
v -7 -29 0
v -8 -30 0
v -9 -30 0
v -9 -29 0
v -8 -29 0
v -9 -30 0
v -10 -30 0
v -10 -29 0
v -9 -29 0
v -10 -30 0
v -11 -30 0
v -11 -29 0
v -10 -29 0
v -11 -30 0
v -12 -30 0
v -12 -29 0
v -11 -29 0
v -18 -30 0
v -19 -30 0
v -19 -29 0
v -18 -29 0
v -19 -30 0
v -20 -30 0
v -20 -29 0
v -19 -29 0
v -20 -30 0
v -21 -30 0
v -21 -29 0
v -20 -29 0
v -21 -30 0
v -22 -30 0
v -22 -29 0
v -21 -29 0
v -22 -30 0
v -23 -30 0
v -23 -29 0
v -22 -29 0
v -23 -30 0
v -24 -30 0
v -24 -29 0
v -23 -29 0
v -24 -30 0
v -25 -30 0
v -25 -29 0
v -24 -29 0
v -25 -30 0
v -26 -30 0
v -26 -29 0
v -25 -29 0
v -26 -30 0
v -27 -30 0
v -27 -29 0
v -26 -29 0
v -27 -30 0
v -28 -30 0
v -28 -29 0
v -27 -29 0
v -28 -30 0
v -29 -30 0
v -29 -29 0
v -28 -29 0
v -29 -30 0
v -30 -30 0
v -30 -29 0
v -29 -29 0

# Texture cooridinates (Count = 68)
vt 0.3076923 0.2307692
vt 0.3846154 0.2307692
vt 0.3846154 0.3076923
vt 0.3076923 0.3076923
vt 0.4615385 0.2307692
vt 0.4615385 0.3076923
vt 0.5384616 0.2307692
vt 0.5384616 0.3076923
vt 0.6153846 0.2307692
vt 0.6153846 0.3076923
vt 0.6923077 0.2307692
vt 0.6923077 0.3076923
vt 0.7692308 0.2307692
vt 0.7692308 0.3076923
vt 0.3076923 0.1538461
vt 0.3846154 0.1538461
vt 0.4615385 0.1538461
vt 0.5384616 0.1538461
vt 0.6153846 0.1538461
vt 0.6923077 0.1538461
vt 0.7692308 0.1538461
vt 0.3076923 0.07692307
vt 0.3846154 0.07692307
vt 0.4615385 0.07692307
vt 0.5384616 0.07692307
vt 0.6153846 0.07692307
vt 0.6923077 0.07692307
vt 0.7692308 0.07692307
vt 0.3076923 0
vt 0.3846154 0
vt 0.4615385 0
vt 0.5384616 0
vt 0 0.4615384
vt 0.07692308 0.4615384
vt 0.07692308 0.5384616
vt 0 0.5384616
vt 0.1538462 0.4615384
vt 0.1538462 0.5384616
vt 0.2307692 0.4615384
vt 0.2307692 0.5384616
vt 0.6153846 0
vt 0.6923077 0
vt 0.7692308 0
vt 0 0.3846154
vt 0.07692308 0.3846154
vt 0.1538462 0.3846154
vt 0.2307692 0.3846154
vt 0 0.3076923
vt 0.07692308 0.3076923
vt 0.1538462 0.3076923
vt 0.2307692 0.3076923
vt 0.2307692 0.6153846
vt 0.3076923 0.6153846
vt 0.3076923 0.6923077
vt 0.2307692 0.6923077
vt 0.3846154 0.6153846
vt 0.3846154 0.6923077
vt 0.4615385 0.6153846
vt 0.4615385 0.6923077
vt 0.3076923 0.5384616
vt 0.3846154 0.5384616
vt 0.4615385 0.5384616
vt 0.3076923 0.4615384
vt 0.3846154 0.4615384
vt 0.4615385 0.4615384
vt 0.3076923 0.3846154
vt 0.3846154 0.3846154
vt 0.4615385 0.3846154

# Normal
vn 0 0 -1

# Mesh description
g mapaNormal_mesh_0014

# Faces
f 1/1/1 2/2/1 3/3/1 4/4/1
f 5/2/1 6/5/1 7/6/1 8/3/1
f 9/5/1 10/7/1 11/8/1 12/6/1
f 13/1/1 14/2/1 15/3/1 16/4/1
f 17/2/1 18/5/1 19/6/1 20/3/1
f 21/5/1 22/7/1 23/8/1 24/6/1
f 25/7/1 26/9/1 27/10/1 28/8/1
f 29/9/1 30/11/1 31/12/1 32/10/1
f 33/11/1 34/13/1 35/14/1 36/12/1
f 37/15/1 38/16/1 39/2/1 40/1/1
f 41/16/1 42/17/1 43/5/1 44/2/1
f 45/17/1 46/18/1 47/7/1 48/5/1
f 49/7/1 50/9/1 51/10/1 52/8/1
f 53/9/1 54/11/1 55/12/1 56/10/1
f 57/11/1 58/13/1 59/14/1 60/12/1
f 61/15/1 62/16/1 63/2/1 64/1/1
f 65/16/1 66/17/1 67/5/1 68/2/1
f 69/17/1 70/18/1 71/7/1 72/5/1
f 73/7/1 74/9/1 75/10/1 76/8/1
f 77/9/1 78/11/1 79/12/1 80/10/1
f 81/11/1 82/13/1 83/14/1 84/12/1
f 85/18/1 86/19/1 87/9/1 88/7/1
f 89/19/1 90/20/1 91/11/1 92/9/1
f 93/20/1 94/21/1 95/13/1 96/11/1
f 97/22/1 98/23/1 99/16/1 100/15/1
f 101/23/1 102/24/1 103/17/1 104/16/1
f 105/24/1 106/25/1 107/18/1 108/17/1
f 109/18/1 110/19/1 111/9/1 112/7/1
f 113/19/1 114/20/1 115/11/1 116/9/1
f 117/20/1 118/21/1 119/13/1 120/11/1
f 121/22/1 122/23/1 123/16/1 124/15/1
f 125/23/1 126/24/1 127/17/1 128/16/1
f 129/24/1 130/25/1 131/18/1 132/17/1
f 133/18/1 134/19/1 135/9/1 136/7/1
f 137/19/1 138/20/1 139/11/1 140/9/1
f 141/20/1 142/21/1 143/13/1 144/11/1
f 145/25/1 146/26/1 147/19/1 148/18/1
f 149/26/1 150/27/1 151/20/1 152/19/1
f 153/27/1 154/28/1 155/21/1 156/20/1
f 157/29/1 158/30/1 159/23/1 160/22/1
f 161/30/1 162/31/1 163/24/1 164/23/1
f 165/31/1 166/32/1 167/25/1 168/24/1
f 169/25/1 170/26/1 171/19/1 172/18/1
f 173/26/1 174/27/1 175/20/1 176/19/1
f 177/27/1 178/28/1 179/21/1 180/20/1
f 181/29/1 182/30/1 183/23/1 184/22/1
f 185/30/1 186/31/1 187/24/1 188/23/1
f 189/31/1 190/32/1 191/25/1 192/24/1
f 193/25/1 194/26/1 195/19/1 196/18/1
f 197/26/1 198/27/1 199/20/1 200/19/1
f 201/27/1 202/28/1 203/21/1 204/20/1
f 205/33/1 206/34/1 207/35/1 208/36/1
f 209/34/1 210/37/1 211/38/1 212/35/1
f 213/37/1 214/39/1 215/40/1 216/38/1
f 217/32/1 218/41/1 219/26/1 220/25/1
f 221/41/1 222/42/1 223/27/1 224/26/1
f 225/42/1 226/43/1 227/28/1 228/27/1
f 229/32/1 230/41/1 231/26/1 232/25/1
f 233/41/1 234/42/1 235/27/1 236/26/1
f 237/42/1 238/43/1 239/28/1 240/27/1
f 241/32/1 242/41/1 243/26/1 244/25/1
f 245/41/1 246/42/1 247/27/1 248/26/1
f 249/42/1 250/43/1 251/28/1 252/27/1
f 253/44/1 254/45/1 255/34/1 256/33/1
f 257/45/1 258/46/1 259/37/1 260/34/1
f 261/46/1 262/47/1 263/39/1 264/37/1
f 265/48/1 266/49/1 267/45/1 268/44/1
f 269/49/1 270/50/1 271/46/1 272/45/1
f 273/50/1 274/51/1 275/47/1 276/46/1
f 277/52/1 278/53/1 279/54/1 280/55/1
f 281/53/1 282/56/1 283/57/1 284/54/1
f 285/56/1 286/58/1 287/59/1 288/57/1
f 289/40/1 290/60/1 291/53/1 292/52/1
f 293/60/1 294/61/1 295/56/1 296/53/1
f 297/61/1 298/62/1 299/58/1 300/56/1
f 301/39/1 302/63/1 303/60/1 304/40/1
f 305/63/1 306/64/1 307/61/1 308/60/1
f 309/64/1 310/65/1 311/62/1 312/61/1
f 313/47/1 314/66/1 315/63/1 316/39/1
f 317/66/1 318/67/1 319/64/1 320/63/1
f 321/67/1 322/68/1 323/65/1 324/64/1
f 325/51/1 326/4/1 327/66/1 328/47/1
f 329/4/1 330/3/1 331/67/1 332/66/1
f 333/3/1 334/6/1 335/68/1 336/67/1
f 337/52/1 338/53/1 339/54/1 340/55/1
f 341/53/1 342/56/1 343/57/1 344/54/1
f 345/56/1 346/58/1 347/59/1 348/57/1
f 349/52/1 350/53/1 351/54/1 352/55/1
f 353/53/1 354/56/1 355/57/1 356/54/1
f 357/56/1 358/58/1 359/59/1 360/57/1
f 361/52/1 362/53/1 363/54/1 364/55/1
f 365/53/1 366/56/1 367/57/1 368/54/1
f 369/56/1 370/58/1 371/59/1 372/57/1
f 373/52/1 374/53/1 375/54/1 376/55/1
f 377/53/1 378/56/1 379/57/1 380/54/1
f 381/56/1 382/58/1 383/59/1 384/57/1
f 385/52/1 386/53/1 387/54/1 388/55/1
f 389/53/1 390/56/1 391/57/1 392/54/1
f 393/56/1 394/58/1 395/59/1 396/57/1
f 397/52/1 398/53/1 399/54/1 400/55/1
f 401/53/1 402/56/1 403/57/1 404/54/1
f 405/56/1 406/58/1 407/59/1 408/57/1
f 409/52/1 410/53/1 411/54/1 412/55/1
f 413/53/1 414/56/1 415/57/1 416/54/1
f 417/56/1 418/58/1 419/59/1 420/57/1
f 421/52/1 422/53/1 423/54/1 424/55/1
f 425/53/1 426/56/1 427/57/1 428/54/1
f 429/56/1 430/58/1 431/59/1 432/57/1
f 433/40/1 434/60/1 435/53/1 436/52/1
f 437/60/1 438/61/1 439/56/1 440/53/1
f 441/61/1 442/62/1 443/58/1 444/56/1
f 445/40/1 446/60/1 447/53/1 448/52/1
f 449/60/1 450/61/1 451/56/1 452/53/1
f 453/61/1 454/62/1 455/58/1 456/56/1
f 457/40/1 458/60/1 459/53/1 460/52/1
f 461/60/1 462/61/1 463/56/1 464/53/1
f 465/61/1 466/62/1 467/58/1 468/56/1
f 469/40/1 470/60/1 471/53/1 472/52/1
f 473/60/1 474/61/1 475/56/1 476/53/1
f 477/61/1 478/62/1 479/58/1 480/56/1
f 481/40/1 482/60/1 483/53/1 484/52/1
f 485/60/1 486/61/1 487/56/1 488/53/1
f 489/61/1 490/62/1 491/58/1 492/56/1
f 493/40/1 494/60/1 495/53/1 496/52/1
f 497/60/1 498/61/1 499/56/1 500/53/1
f 501/61/1 502/62/1 503/58/1 504/56/1
f 505/40/1 506/60/1 507/53/1 508/52/1
f 509/60/1 510/61/1 511/56/1 512/53/1
f 513/61/1 514/62/1 515/58/1 516/56/1
f 517/40/1 518/60/1 519/53/1 520/52/1
f 521/60/1 522/61/1 523/56/1 524/53/1
f 525/61/1 526/62/1 527/58/1 528/56/1
f 529/39/1 530/63/1 531/60/1 532/40/1
f 533/63/1 534/64/1 535/61/1 536/60/1
f 537/64/1 538/65/1 539/62/1 540/61/1
f 541/39/1 542/63/1 543/60/1 544/40/1
f 545/63/1 546/64/1 547/61/1 548/60/1
f 549/64/1 550/65/1 551/62/1 552/61/1
f 553/39/1 554/63/1 555/60/1 556/40/1
f 557/63/1 558/64/1 559/61/1 560/60/1
f 561/64/1 562/65/1 563/62/1 564/61/1
f 565/39/1 566/63/1 567/60/1 568/40/1
f 569/63/1 570/64/1 571/61/1 572/60/1
f 573/64/1 574/65/1 575/62/1 576/61/1
f 577/39/1 578/63/1 579/60/1 580/40/1
f 581/63/1 582/64/1 583/61/1 584/60/1
f 585/64/1 586/65/1 587/62/1 588/61/1
f 589/39/1 590/63/1 591/60/1 592/40/1
f 593/63/1 594/64/1 595/61/1 596/60/1
f 597/64/1 598/65/1 599/62/1 600/61/1
f 601/39/1 602/63/1 603/60/1 604/40/1
f 605/63/1 606/64/1 607/61/1 608/60/1
f 609/64/1 610/65/1 611/62/1 612/61/1
f 613/39/1 614/63/1 615/60/1 616/40/1
f 617/63/1 618/64/1 619/61/1 620/60/1
f 621/64/1 622/65/1 623/62/1 624/61/1
f 625/47/1 626/66/1 627/63/1 628/39/1
f 629/66/1 630/67/1 631/64/1 632/63/1
f 633/67/1 634/68/1 635/65/1 636/64/1
f 637/47/1 638/66/1 639/63/1 640/39/1
f 641/66/1 642/67/1 643/64/1 644/63/1
f 645/67/1 646/68/1 647/65/1 648/64/1
f 649/47/1 650/66/1 651/63/1 652/39/1
f 653/66/1 654/67/1 655/64/1 656/63/1
f 657/67/1 658/68/1 659/65/1 660/64/1
f 661/47/1 662/66/1 663/63/1 664/39/1
f 665/66/1 666/67/1 667/64/1 668/63/1
f 669/67/1 670/68/1 671/65/1 672/64/1
f 673/47/1 674/66/1 675/63/1 676/39/1
f 677/66/1 678/67/1 679/64/1 680/63/1
f 681/67/1 682/68/1 683/65/1 684/64/1
f 685/47/1 686/66/1 687/63/1 688/39/1
f 689/66/1 690/67/1 691/64/1 692/63/1
f 693/67/1 694/68/1 695/65/1 696/64/1
f 697/47/1 698/66/1 699/63/1 700/39/1
f 701/66/1 702/67/1 703/64/1 704/63/1
f 705/67/1 706/68/1 707/65/1 708/64/1
f 709/47/1 710/66/1 711/63/1 712/39/1
f 713/66/1 714/67/1 715/64/1 716/63/1
f 717/67/1 718/68/1 719/65/1 720/64/1
f 721/51/1 722/4/1 723/66/1 724/47/1
f 725/4/1 726/3/1 727/67/1 728/66/1
f 729/3/1 730/6/1 731/68/1 732/67/1
f 733/51/1 734/4/1 735/66/1 736/47/1
f 737/4/1 738/3/1 739/67/1 740/66/1
f 741/3/1 742/6/1 743/68/1 744/67/1
f 745/51/1 746/4/1 747/66/1 748/47/1
f 749/4/1 750/3/1 751/67/1 752/66/1
f 753/3/1 754/6/1 755/68/1 756/67/1
f 757/51/1 758/4/1 759/66/1 760/47/1
f 761/4/1 762/3/1 763/67/1 764/66/1
f 765/3/1 766/6/1 767/68/1 768/67/1
f 769/51/1 770/4/1 771/66/1 772/47/1
f 773/4/1 774/3/1 775/67/1 776/66/1
f 777/3/1 778/6/1 779/68/1 780/67/1
f 781/51/1 782/4/1 783/66/1 784/47/1
f 785/4/1 786/3/1 787/67/1 788/66/1
f 789/3/1 790/6/1 791/68/1 792/67/1
f 793/51/1 794/4/1 795/66/1 796/47/1
f 797/4/1 798/3/1 799/67/1 800/66/1
f 801/3/1 802/6/1 803/68/1 804/67/1
f 805/51/1 806/4/1 807/66/1 808/47/1
f 809/4/1 810/3/1 811/67/1 812/66/1
f 813/3/1 814/6/1 815/68/1 816/67/1

