# Tiled2Unity generated file. Do not modify by hand.
# Wavefront file for 'DummyMap2_mesh_0004.obj'

# Vertices (Count = 672)
v -5 -3 0
v -6 -3 0
v -6 -2 0
v -5 -2 0
v -6 -3 0
v -7 -3 0
v -7 -2 0
v -6 -2 0
v -7 -3 0
v -8 -3 0
v -8 -2 0
v -7 -2 0
v -8 -3 0
v -9 -3 0
v -9 -2 0
v -8 -2 0
v -9 -3 0
v -10 -3 0
v -10 -2 0
v -9 -2 0
v -10 -3 0
v -11 -3 0
v -11 -2 0
v -10 -2 0
v -11 -3 0
v -12 -3 0
v -12 -2 0
v -11 -2 0
v -12 -3 0
v -13 -3 0
v -13 -2 0
v -12 -2 0
v -13 -3 0
v -14 -3 0
v -14 -2 0
v -13 -2 0
v -14 -3 0
v -15 -3 0
v -15 -2 0
v -14 -2 0
v -15 -3 0
v -16 -3 0
v -16 -2 0
v -15 -2 0
v -16 -3 0
v -17 -3 0
v -17 -2 0
v -16 -2 0
v -17 -3 0
v -18 -3 0
v -18 -2 0
v -17 -2 0
v -18 -3 0
v -19 -3 0
v -19 -2 0
v -18 -2 0
v -19 -3 0
v -20 -3 0
v -20 -2 0
v -19 -2 0
v -20 -3 0
v -21 -3 0
v -21 -2 0
v -20 -2 0
v -21 -3 0
v -22 -3 0
v -22 -2 0
v -21 -2 0
v -4 -4 0
v -5 -4 0
v -5 -3 0
v -4 -3 0
v -5 -4 0
v -6 -4 0
v -6 -3 0
v -5 -3 0
v -6 -4 0
v -7 -4 0
v -7 -3 0
v -6 -3 0
v -7 -4 0
v -8 -4 0
v -8 -3 0
v -7 -3 0
v -8 -4 0
v -9 -4 0
v -9 -3 0
v -8 -3 0
v -9 -4 0
v -10 -4 0
v -10 -3 0
v -9 -3 0
v -10 -4 0
v -11 -4 0
v -11 -3 0
v -10 -3 0
v -11 -4 0
v -12 -4 0
v -12 -3 0
v -11 -3 0
v -12 -4 0
v -13 -4 0
v -13 -3 0
v -12 -3 0
v -13 -4 0
v -14 -4 0
v -14 -3 0
v -13 -3 0
v -14 -4 0
v -15 -4 0
v -15 -3 0
v -14 -3 0
v -15 -4 0
v -16 -4 0
v -16 -3 0
v -15 -3 0
v -16 -4 0
v -17 -4 0
v -17 -3 0
v -16 -3 0
v -17 -4 0
v -18 -4 0
v -18 -3 0
v -17 -3 0
v -18 -4 0
v -19 -4 0
v -19 -3 0
v -18 -3 0
v -19 -4 0
v -20 -4 0
v -20 -3 0
v -19 -3 0
v -20 -4 0
v -21 -4 0
v -21 -3 0
v -20 -3 0
v -21 -4 0
v -22 -4 0
v -22 -3 0
v -21 -3 0
v -4 -5 0
v -5 -5 0
v -5 -4 0
v -4 -4 0
v -5 -5 0
v -6 -5 0
v -6 -4 0
v -5 -4 0
v -4 -6 0
v -5 -6 0
v -5 -5 0
v -4 -5 0
v -5 -6 0
v -6 -6 0
v -6 -5 0
v -5 -5 0
v -6 -6 0
v -7 -6 0
v -7 -5 0
v -6 -5 0
v -7 -6 0
v -8 -6 0
v -8 -5 0
v -7 -5 0
v -8 -6 0
v -9 -6 0
v -9 -5 0
v -8 -5 0
v -9 -6 0
v -10 -6 0
v -10 -5 0
v -9 -5 0
v -4 -7 0
v -5 -7 0
v -5 -6 0
v -4 -6 0
v -5 -7 0
v -6 -7 0
v -6 -6 0
v -5 -6 0
v -6 -7 0
v -7 -7 0
v -7 -6 0
v -6 -6 0
v -7 -7 0
v -8 -7 0
v -8 -6 0
v -7 -6 0
v -8 -7 0
v -9 -7 0
v -9 -6 0
v -8 -6 0
v -9 -7 0
v -10 -7 0
v -10 -6 0
v -9 -6 0
v -4 -8 0
v -5 -8 0
v -5 -7 0
v -4 -7 0
v -5 -8 0
v -6 -8 0
v -6 -7 0
v -5 -7 0
v -6 -8 0
v -7 -8 0
v -7 -7 0
v -6 -7 0
v -7 -8 0
v -8 -8 0
v -8 -7 0
v -7 -7 0
v -8 -8 0
v -9 -8 0
v -9 -7 0
v -8 -7 0
v -9 -8 0
v -10 -8 0
v -10 -7 0
v -9 -7 0
v -13 -8 0
v -14 -8 0
v -14 -7 0
v -13 -7 0
v -14 -8 0
v -15 -8 0
v -15 -7 0
v -14 -7 0
v -15 -8 0
v -16 -8 0
v -16 -7 0
v -15 -7 0
v -16 -8 0
v -17 -8 0
v -17 -7 0
v -16 -7 0
v -4 -9 0
v -5 -9 0
v -5 -8 0
v -4 -8 0
v -5 -9 0
v -6 -9 0
v -6 -8 0
v -5 -8 0
v -6 -9 0
v -7 -9 0
v -7 -8 0
v -6 -8 0
v -7 -9 0
v -8 -9 0
v -8 -8 0
v -7 -8 0
v -8 -9 0
v -9 -9 0
v -9 -8 0
v -8 -8 0
v -9 -9 0
v -10 -9 0
v -10 -8 0
v -9 -8 0
v -13 -9 0
v -14 -9 0
v -14 -8 0
v -13 -8 0
v -14 -9 0
v -15 -9 0
v -15 -8 0
v -14 -8 0
v -15 -9 0
v -16 -9 0
v -16 -8 0
v -15 -8 0
v -16 -9 0
v -17 -9 0
v -17 -8 0
v -16 -8 0
v -4 -10 0
v -5 -10 0
v -5 -9 0
v -4 -9 0
v -5 -10 0
v -6 -10 0
v -6 -9 0
v -5 -9 0
v -13 -10 0
v -14 -10 0
v -14 -9 0
v -13 -9 0
v -14 -10 0
v -15 -10 0
v -15 -9 0
v -14 -9 0
v -15 -10 0
v -16 -10 0
v -16 -9 0
v -15 -9 0
v -16 -10 0
v -17 -10 0
v -17 -9 0
v -16 -9 0
v -4 -11 0
v -5 -11 0
v -5 -10 0
v -4 -10 0
v -5 -11 0
v -6 -11 0
v -6 -10 0
v -5 -10 0
v -13 -11 0
v -14 -11 0
v -14 -10 0
v -13 -10 0
v -14 -11 0
v -15 -11 0
v -15 -10 0
v -14 -10 0
v -15 -11 0
v -16 -11 0
v -16 -10 0
v -15 -10 0
v -16 -11 0
v -17 -11 0
v -17 -10 0
v -16 -10 0
v -4 -12 0
v -5 -12 0
v -5 -11 0
v -4 -11 0
v -5 -12 0
v -6 -12 0
v -6 -11 0
v -5 -11 0
v -4 -13 0
v -5 -13 0
v -5 -12 0
v -4 -12 0
v -5 -13 0
v -6 -13 0
v -6 -12 0
v -5 -12 0
v -22 -13 0
v -23 -13 0
v -23 -12 0
v -22 -12 0
v -23 -13 0
v -24 -13 0
v -24 -12 0
v -23 -12 0
v -24 -13 0
v -25 -13 0
v -25 -12 0
v -24 -12 0
v -25 -13 0
v -26 -13 0
v -26 -12 0
v -25 -12 0
v -26 -13 0
v -27 -13 0
v -27 -12 0
v -26 -12 0
v -4 -14 0
v -5 -14 0
v -5 -13 0
v -4 -13 0
v -5 -14 0
v -6 -14 0
v -6 -13 0
v -5 -13 0
v -22 -14 0
v -23 -14 0
v -23 -13 0
v -22 -13 0
v -23 -14 0
v -24 -14 0
v -24 -13 0
v -23 -13 0
v -24 -14 0
v -25 -14 0
v -25 -13 0
v -24 -13 0
v -25 -14 0
v -26 -14 0
v -26 -13 0
v -25 -13 0
v -26 -14 0
v -27 -14 0
v -27 -13 0
v -26 -13 0
v -4 -15 0
v -5 -15 0
v -5 -14 0
v -4 -14 0
v -5 -15 0
v -6 -15 0
v -6 -14 0
v -5 -14 0
v -4 -16 0
v -5 -16 0
v -5 -15 0
v -4 -15 0
v -5 -16 0
v -6 -16 0
v -6 -15 0
v -5 -15 0
v -4 -17 0
v -5 -17 0
v -5 -16 0
v -4 -16 0
v -5 -17 0
v -6 -17 0
v -6 -16 0
v -5 -16 0
v -21 -17 0
v -22 -17 0
v -22 -16 0
v -21 -16 0
v -22 -17 0
v -23 -17 0
v -23 -16 0
v -22 -16 0
v -23 -17 0
v -24 -17 0
v -24 -16 0
v -23 -16 0
v -24 -17 0
v -25 -17 0
v -25 -16 0
v -24 -16 0
v -25 -17 0
v -26 -17 0
v -26 -16 0
v -25 -16 0
v -26 -17 0
v -27 -17 0
v -27 -16 0
v -26 -16 0
v -4 -18 0
v -5 -18 0
v -5 -17 0
v -4 -17 0
v -5 -18 0
v -6 -18 0
v -6 -17 0
v -5 -17 0
v -14 -18 0
v -15 -18 0
v -15 -17 0
v -14 -17 0
v -15 -18 0
v -16 -18 0
v -16 -17 0
v -15 -17 0
v -16 -18 0
v -17 -18 0
v -17 -17 0
v -16 -17 0
v -21 -18 0
v -22 -18 0
v -22 -17 0
v -21 -17 0
v -22 -18 0
v -23 -18 0
v -23 -17 0
v -22 -17 0
v -23 -18 0
v -24 -18 0
v -24 -17 0
v -23 -17 0
v -24 -18 0
v -25 -18 0
v -25 -17 0
v -24 -17 0
v -25 -18 0
v -26 -18 0
v -26 -17 0
v -25 -17 0
v -26 -18 0
v -27 -18 0
v -27 -17 0
v -26 -17 0
v -4 -19 0
v -5 -19 0
v -5 -18 0
v -4 -18 0
v -5 -19 0
v -6 -19 0
v -6 -18 0
v -5 -18 0
v -14 -19 0
v -15 -19 0
v -15 -18 0
v -14 -18 0
v -15 -19 0
v -16 -19 0
v -16 -18 0
v -15 -18 0
v -16 -19 0
v -17 -19 0
v -17 -18 0
v -16 -18 0
v -21 -19 0
v -22 -19 0
v -22 -18 0
v -21 -18 0
v -22 -19 0
v -23 -19 0
v -23 -18 0
v -22 -18 0
v -4 -20 0
v -5 -20 0
v -5 -19 0
v -4 -19 0
v -5 -20 0
v -6 -20 0
v -6 -19 0
v -5 -19 0
v -14 -20 0
v -15 -20 0
v -15 -19 0
v -14 -19 0
v -15 -20 0
v -16 -20 0
v -16 -19 0
v -15 -19 0
v -16 -20 0
v -17 -20 0
v -17 -19 0
v -16 -19 0
v -21 -20 0
v -22 -20 0
v -22 -19 0
v -21 -19 0
v -22 -20 0
v -23 -20 0
v -23 -19 0
v -22 -19 0
v -5 -21 0
v -6 -21 0
v -6 -20 0
v -5 -20 0
v -6 -21 0
v -7 -21 0
v -7 -20 0
v -6 -20 0
v -7 -21 0
v -8 -21 0
v -8 -20 0
v -7 -20 0
v -8 -21 0
v -9 -21 0
v -9 -20 0
v -8 -20 0
v -9 -21 0
v -10 -21 0
v -10 -20 0
v -9 -20 0
v -10 -21 0
v -11 -21 0
v -11 -20 0
v -10 -20 0
v -11 -21 0
v -12 -21 0
v -12 -20 0
v -11 -20 0
v -12 -21 0
v -13 -21 0
v -13 -20 0
v -12 -20 0
v -13 -21 0
v -14 -21 0
v -14 -20 0
v -13 -20 0
v -14 -21 0
v -15 -21 0
v -15 -20 0
v -14 -20 0
v -15 -21 0
v -16 -21 0
v -16 -20 0
v -15 -20 0
v -16 -21 0
v -17 -21 0
v -17 -20 0
v -16 -20 0
v -17 -21 0
v -18 -21 0
v -18 -20 0
v -17 -20 0
v -18 -21 0
v -19 -21 0
v -19 -20 0
v -18 -20 0
v -19 -21 0
v -20 -21 0
v -20 -20 0
v -19 -20 0
v -20 -21 0
v -21 -21 0
v -21 -20 0
v -20 -20 0
v -21 -21 0
v -22 -21 0
v -22 -20 0
v -21 -20 0
v -5 -22 0
v -6 -22 0
v -6 -21 0
v -5 -21 0
v -6 -22 0
v -7 -22 0
v -7 -21 0
v -6 -21 0
v -7 -22 0
v -8 -22 0
v -8 -21 0
v -7 -21 0
v -8 -22 0
v -9 -22 0
v -9 -21 0
v -8 -21 0
v -9 -22 0
v -10 -22 0
v -10 -21 0
v -9 -21 0
v -10 -22 0
v -11 -22 0
v -11 -21 0
v -10 -21 0
v -11 -22 0
v -12 -22 0
v -12 -21 0
v -11 -21 0
v -12 -22 0
v -13 -22 0
v -13 -21 0
v -12 -21 0
v -13 -22 0
v -14 -22 0
v -14 -21 0
v -13 -21 0
v -14 -22 0
v -15 -22 0
v -15 -21 0
v -14 -21 0
v -15 -22 0
v -16 -22 0
v -16 -21 0
v -15 -21 0
v -16 -22 0
v -17 -22 0
v -17 -21 0
v -16 -21 0
v -17 -22 0
v -18 -22 0
v -18 -21 0
v -17 -21 0
v -18 -22 0
v -19 -22 0
v -19 -21 0
v -18 -21 0
v -19 -22 0
v -20 -22 0
v -20 -21 0
v -19 -21 0
v -20 -22 0
v -21 -22 0
v -21 -21 0
v -20 -21 0
v -21 -22 0
v -22 -22 0
v -22 -21 0
v -21 -21 0

# Texture cooridinates (Count = 60)
vt 0.6923077 0.9230769
vt 0.7692308 0.9230769
vt 0.7692308 1
vt 0.6923077 1
vt 0.8461539 0.9230769
vt 0.8461539 1
vt 0.9230769 0.9230769
vt 0.9230769 1
vt 1 0.9230769
vt 1 1
vt 0.6923077 0.7692308
vt 0.7692308 0.7692308
vt 0.7692308 0.8461539
vt 0.6923077 0.8461539
vt 0.8461539 0.8461539
vt 0.9230769 0.8461539
vt 1 0.8461539
vt 0.6923077 0.6923077
vt 0.7692308 0.6923077
vt 0.8461539 0.6923077
vt 0.8461539 0.7692308
vt 0.6923077 0.6153846
vt 0.7692308 0.6153846
vt 0.8461539 0.6153846
vt 0.1538462 0.9230769
vt 0.2307692 0.9230769
vt 0.2307692 1
vt 0.1538462 1
vt 0.3076923 0.9230769
vt 0.3076923 1
vt 0.3846154 0.9230769
vt 0.3846154 1
vt 0.4615385 0.9230769
vt 0.4615385 1
vt 0.6923077 0.5384616
vt 0.7692308 0.5384616
vt 0.8461539 0.5384616
vt 0.1538462 0.8461539
vt 0.2307692 0.8461539
vt 0.3076923 0.8461539
vt 0.3846154 0.8461539
vt 0.4615385 0.8461539
vt 0.1538462 0.7692308
vt 0.2307692 0.7692308
vt 0.3076923 0.7692308
vt 0.3846154 0.7692308
vt 0.4615385 0.7692308
vt 0.1538462 0.6923077
vt 0.2307692 0.6923077
vt 0.3076923 0.6923077
vt 0.3846154 0.6923077
vt 0.4615385 0.6923077
vt 0.5384616 0.9230769
vt 0.5384616 1
vt 0.6153846 0.9230769
vt 0.6153846 1
vt 0.5384616 0.8461539
vt 0.6153846 0.8461539
vt 0.5384616 0.7692308
vt 0.6153846 0.7692308

# Normal
vn 0 0 -1

# Mesh description
g DummyMap2_mesh_0004

# Faces
f 1/1/1 2/2/1 3/3/1 4/4/1
f 5/2/1 6/5/1 7/6/1 8/3/1
f 9/5/1 10/7/1 11/8/1 12/6/1
f 13/7/1 14/9/1 15/10/1 16/8/1
f 17/7/1 18/9/1 19/10/1 20/8/1
f 21/7/1 22/9/1 23/10/1 24/8/1
f 25/7/1 26/9/1 27/10/1 28/8/1
f 29/7/1 30/9/1 31/10/1 32/8/1
f 33/7/1 34/9/1 35/10/1 36/8/1
f 37/7/1 38/9/1 39/10/1 40/8/1
f 41/7/1 42/9/1 43/10/1 44/8/1
f 45/7/1 46/9/1 47/10/1 48/8/1
f 49/7/1 50/9/1 51/10/1 52/8/1
f 53/7/1 54/9/1 55/10/1 56/8/1
f 57/7/1 58/9/1 59/10/1 60/8/1
f 61/7/1 62/9/1 63/10/1 64/8/1
f 65/7/1 66/9/1 67/10/1 68/8/1
f 69/11/1 70/12/1 71/13/1 72/14/1
f 73/14/1 74/13/1 75/2/1 76/1/1
f 77/13/1 78/15/1 79/5/1 80/2/1
f 81/15/1 82/16/1 83/7/1 84/5/1
f 85/16/1 86/17/1 87/9/1 88/7/1
f 89/16/1 90/17/1 91/9/1 92/7/1
f 93/16/1 94/17/1 95/9/1 96/7/1
f 97/16/1 98/17/1 99/9/1 100/7/1
f 101/16/1 102/17/1 103/9/1 104/7/1
f 105/16/1 106/17/1 107/9/1 108/7/1
f 109/16/1 110/17/1 111/9/1 112/7/1
f 113/16/1 114/17/1 115/9/1 116/7/1
f 117/16/1 118/17/1 119/9/1 120/7/1
f 121/16/1 122/17/1 123/9/1 124/7/1
f 125/16/1 126/17/1 127/9/1 128/7/1
f 129/16/1 130/17/1 131/9/1 132/7/1
f 133/16/1 134/17/1 135/9/1 136/7/1
f 137/16/1 138/17/1 139/9/1 140/7/1
f 141/18/1 142/19/1 143/12/1 144/11/1
f 145/19/1 146/20/1 147/21/1 148/12/1
f 149/22/1 150/23/1 151/19/1 152/18/1
f 153/23/1 154/24/1 155/20/1 156/19/1
f 157/25/1 158/26/1 159/27/1 160/28/1
f 161/26/1 162/29/1 163/30/1 164/27/1
f 165/29/1 166/31/1 167/32/1 168/30/1
f 169/31/1 170/33/1 171/34/1 172/32/1
f 173/35/1 174/36/1 175/23/1 176/22/1
f 177/36/1 178/37/1 179/24/1 180/23/1
f 181/38/1 182/39/1 183/26/1 184/25/1
f 185/39/1 186/40/1 187/29/1 188/26/1
f 189/40/1 190/41/1 191/31/1 192/29/1
f 193/41/1 194/42/1 195/33/1 196/31/1
f 197/35/1 198/36/1 199/23/1 200/22/1
f 201/36/1 202/37/1 203/24/1 204/23/1
f 205/43/1 206/44/1 207/39/1 208/38/1
f 209/44/1 210/45/1 211/40/1 212/39/1
f 213/45/1 214/46/1 215/41/1 216/40/1
f 217/46/1 218/47/1 219/42/1 220/41/1
f 221/25/1 222/26/1 223/27/1 224/28/1
f 225/26/1 226/29/1 227/30/1 228/27/1
f 229/29/1 230/31/1 231/32/1 232/30/1
f 233/31/1 234/33/1 235/34/1 236/32/1
f 237/35/1 238/36/1 239/23/1 240/22/1
f 241/36/1 242/37/1 243/24/1 244/23/1
f 245/48/1 246/49/1 247/44/1 248/43/1
f 249/49/1 250/50/1 251/45/1 252/44/1
f 253/50/1 254/51/1 255/46/1 256/45/1
f 257/51/1 258/52/1 259/47/1 260/46/1
f 261/38/1 262/39/1 263/26/1 264/25/1
f 265/39/1 266/40/1 267/29/1 268/26/1
f 269/40/1 270/41/1 271/31/1 272/29/1
f 273/41/1 274/42/1 275/33/1 276/31/1
f 277/35/1 278/36/1 279/23/1 280/22/1
f 281/36/1 282/37/1 283/24/1 284/23/1
f 285/43/1 286/44/1 287/39/1 288/38/1
f 289/44/1 290/45/1 291/40/1 292/39/1
f 293/45/1 294/46/1 295/41/1 296/40/1
f 297/46/1 298/47/1 299/42/1 300/41/1
f 301/35/1 302/36/1 303/23/1 304/22/1
f 305/36/1 306/37/1 307/24/1 308/23/1
f 309/48/1 310/49/1 311/44/1 312/43/1
f 313/49/1 314/50/1 315/45/1 316/44/1
f 317/50/1 318/51/1 319/46/1 320/45/1
f 321/51/1 322/52/1 323/47/1 324/46/1
f 325/35/1 326/36/1 327/23/1 328/22/1
f 329/36/1 330/37/1 331/24/1 332/23/1
f 333/35/1 334/36/1 335/23/1 336/22/1
f 337/36/1 338/37/1 339/24/1 340/23/1
f 341/1/1 342/2/1 343/3/1 344/4/1
f 345/2/1 346/5/1 347/6/1 348/3/1
f 349/5/1 350/7/1 351/8/1 352/6/1
f 353/7/1 354/9/1 355/10/1 356/8/1
f 357/7/1 358/9/1 359/10/1 360/8/1
f 361/35/1 362/36/1 363/23/1 364/22/1
f 365/36/1 366/37/1 367/24/1 368/23/1
f 369/14/1 370/13/1 371/2/1 372/1/1
f 373/13/1 374/15/1 375/5/1 376/2/1
f 377/15/1 378/16/1 379/7/1 380/5/1
f 381/16/1 382/17/1 383/9/1 384/7/1
f 385/16/1 386/17/1 387/9/1 388/7/1
f 389/35/1 390/36/1 391/23/1 392/22/1
f 393/36/1 394/37/1 395/24/1 396/23/1
f 397/35/1 398/36/1 399/23/1 400/22/1
f 401/36/1 402/37/1 403/24/1 404/23/1
f 405/35/1 406/36/1 407/23/1 408/22/1
f 409/36/1 410/37/1 411/24/1 412/23/1
f 413/11/1 414/12/1 415/13/1 416/14/1
f 417/1/1 418/2/1 419/3/1 420/4/1
f 421/2/1 422/5/1 423/6/1 424/3/1
f 425/5/1 426/7/1 427/8/1 428/6/1
f 429/7/1 430/9/1 431/10/1 432/8/1
f 433/7/1 434/9/1 435/10/1 436/8/1
f 437/35/1 438/36/1 439/23/1 440/22/1
f 441/36/1 442/37/1 443/24/1 444/23/1
f 445/33/1 446/53/1 447/54/1 448/34/1
f 449/53/1 450/55/1 451/56/1 452/54/1
f 453/55/1 454/1/1 455/4/1 456/56/1
f 457/18/1 458/19/1 459/12/1 460/11/1
f 461/14/1 462/13/1 463/2/1 464/1/1
f 465/13/1 466/15/1 467/5/1 468/2/1
f 469/15/1 470/16/1 471/7/1 472/5/1
f 473/16/1 474/17/1 475/9/1 476/7/1
f 477/16/1 478/17/1 479/9/1 480/7/1
f 481/35/1 482/36/1 483/23/1 484/22/1
f 485/36/1 486/37/1 487/24/1 488/23/1
f 489/42/1 490/57/1 491/53/1 492/33/1
f 493/57/1 494/58/1 495/55/1 496/53/1
f 497/58/1 498/14/1 499/1/1 500/55/1
f 501/22/1 502/23/1 503/19/1 504/18/1
f 505/23/1 506/24/1 507/20/1 508/19/1
f 509/35/1 510/36/1 511/23/1 512/22/1
f 513/36/1 514/37/1 515/24/1 516/23/1
f 517/47/1 518/59/1 519/57/1 520/42/1
f 521/59/1 522/60/1 523/58/1 524/57/1
f 525/60/1 526/11/1 527/14/1 528/58/1
f 529/35/1 530/36/1 531/23/1 532/22/1
f 533/36/1 534/37/1 535/24/1 536/23/1
f 537/2/1 538/5/1 539/6/1 540/3/1
f 541/5/1 542/7/1 543/8/1 544/6/1
f 545/7/1 546/9/1 547/10/1 548/8/1
f 549/7/1 550/9/1 551/10/1 552/8/1
f 553/7/1 554/9/1 555/10/1 556/8/1
f 557/7/1 558/9/1 559/10/1 560/8/1
f 561/7/1 562/9/1 563/10/1 564/8/1
f 565/7/1 566/9/1 567/10/1 568/8/1
f 569/7/1 570/9/1 571/10/1 572/8/1
f 573/7/1 574/9/1 575/10/1 576/8/1
f 577/7/1 578/9/1 579/10/1 580/8/1
f 581/7/1 582/9/1 583/10/1 584/8/1
f 585/7/1 586/9/1 587/10/1 588/8/1
f 589/7/1 590/9/1 591/10/1 592/8/1
f 593/7/1 594/9/1 595/10/1 596/8/1
f 597/7/1 598/9/1 599/10/1 600/8/1
f 601/7/1 602/9/1 603/10/1 604/8/1
f 605/13/1 606/15/1 607/5/1 608/2/1
f 609/15/1 610/16/1 611/7/1 612/5/1
f 613/16/1 614/17/1 615/9/1 616/7/1
f 617/16/1 618/17/1 619/9/1 620/7/1
f 621/16/1 622/17/1 623/9/1 624/7/1
f 625/16/1 626/17/1 627/9/1 628/7/1
f 629/16/1 630/17/1 631/9/1 632/7/1
f 633/16/1 634/17/1 635/9/1 636/7/1
f 637/16/1 638/17/1 639/9/1 640/7/1
f 641/16/1 642/17/1 643/9/1 644/7/1
f 645/16/1 646/17/1 647/9/1 648/7/1
f 649/16/1 650/17/1 651/9/1 652/7/1
f 653/16/1 654/17/1 655/9/1 656/7/1
f 657/16/1 658/17/1 659/9/1 660/7/1
f 661/16/1 662/17/1 663/9/1 664/7/1
f 665/16/1 666/17/1 667/9/1 668/7/1
f 669/16/1 670/17/1 671/9/1 672/7/1

