# Tiled2Unity generated file. Do not modify by hand.
# Wavefront file for 'DummyMap2_mesh_0002.obj'

# Vertices (Count = 520)
v -5 -4 0
v -6 -4 0
v -6 -3 0
v -5 -3 0
v -21 -4 0
v -22 -4 0
v -22 -3 0
v -21 -3 0
v -5 -5 0
v -6 -5 0
v -6 -4 0
v -5 -4 0
v -17 -5 0
v -18 -5 0
v -18 -4 0
v -17 -4 0
v -18 -5 0
v -19 -5 0
v -19 -4 0
v -18 -4 0
v -19 -5 0
v -20 -5 0
v -20 -4 0
v -19 -4 0
v -21 -5 0
v -22 -5 0
v -22 -4 0
v -21 -4 0
v -5 -6 0
v -6 -6 0
v -6 -5 0
v -5 -5 0
v -6 -6 0
v -7 -6 0
v -7 -5 0
v -6 -5 0
v -7 -6 0
v -8 -6 0
v -8 -5 0
v -7 -5 0
v -8 -6 0
v -9 -6 0
v -9 -5 0
v -8 -5 0
v -9 -6 0
v -10 -6 0
v -10 -5 0
v -9 -5 0
v -17 -6 0
v -18 -6 0
v -18 -5 0
v -17 -5 0
v -18 -6 0
v -19 -6 0
v -19 -5 0
v -18 -5 0
v -19 -6 0
v -20 -6 0
v -20 -5 0
v -19 -5 0
v -21 -6 0
v -22 -6 0
v -22 -5 0
v -21 -5 0
v -5 -7 0
v -6 -7 0
v -6 -6 0
v -5 -6 0
v -6 -7 0
v -7 -7 0
v -7 -6 0
v -6 -6 0
v -7 -7 0
v -8 -7 0
v -8 -6 0
v -7 -6 0
v -8 -7 0
v -9 -7 0
v -9 -6 0
v -8 -6 0
v -9 -7 0
v -10 -7 0
v -10 -6 0
v -9 -6 0
v -17 -7 0
v -18 -7 0
v -18 -6 0
v -17 -6 0
v -18 -7 0
v -19 -7 0
v -19 -6 0
v -18 -6 0
v -19 -7 0
v -20 -7 0
v -20 -6 0
v -19 -6 0
v -21 -7 0
v -22 -7 0
v -22 -6 0
v -21 -6 0
v -5 -8 0
v -6 -8 0
v -6 -7 0
v -5 -7 0
v -6 -8 0
v -7 -8 0
v -7 -7 0
v -6 -7 0
v -7 -8 0
v -8 -8 0
v -8 -7 0
v -7 -7 0
v -8 -8 0
v -9 -8 0
v -9 -7 0
v -8 -7 0
v -9 -8 0
v -10 -8 0
v -10 -7 0
v -9 -7 0
v -13 -8 0
v -14 -8 0
v -14 -7 0
v -13 -7 0
v -14 -8 0
v -15 -8 0
v -15 -7 0
v -14 -7 0
v -15 -8 0
v -16 -8 0
v -16 -7 0
v -15 -7 0
v -16 -8 0
v -17 -8 0
v -17 -7 0
v -16 -7 0
v -17 -8 0
v -18 -8 0
v -18 -7 0
v -17 -7 0
v -18 -8 0
v -19 -8 0
v -19 -7 0
v -18 -7 0
v -19 -8 0
v -20 -8 0
v -20 -7 0
v -19 -7 0
v -21 -8 0
v -22 -8 0
v -22 -7 0
v -21 -7 0
v -5 -9 0
v -6 -9 0
v -6 -8 0
v -5 -8 0
v -6 -9 0
v -7 -9 0
v -7 -8 0
v -6 -8 0
v -7 -9 0
v -8 -9 0
v -8 -8 0
v -7 -8 0
v -8 -9 0
v -9 -9 0
v -9 -8 0
v -8 -8 0
v -9 -9 0
v -10 -9 0
v -10 -8 0
v -9 -8 0
v -13 -9 0
v -14 -9 0
v -14 -8 0
v -13 -8 0
v -14 -9 0
v -15 -9 0
v -15 -8 0
v -14 -8 0
v -15 -9 0
v -16 -9 0
v -16 -8 0
v -15 -8 0
v -16 -9 0
v -17 -9 0
v -17 -8 0
v -16 -8 0
v -21 -9 0
v -22 -9 0
v -22 -8 0
v -21 -8 0
v -5 -10 0
v -6 -10 0
v -6 -9 0
v -5 -9 0
v -13 -10 0
v -14 -10 0
v -14 -9 0
v -13 -9 0
v -14 -10 0
v -15 -10 0
v -15 -9 0
v -14 -9 0
v -15 -10 0
v -16 -10 0
v -16 -9 0
v -15 -9 0
v -16 -10 0
v -17 -10 0
v -17 -9 0
v -16 -9 0
v -21 -10 0
v -22 -10 0
v -22 -9 0
v -21 -9 0
v -5 -11 0
v -6 -11 0
v -6 -10 0
v -5 -10 0
v -13 -11 0
v -14 -11 0
v -14 -10 0
v -13 -10 0
v -14 -11 0
v -15 -11 0
v -15 -10 0
v -14 -10 0
v -15 -11 0
v -16 -11 0
v -16 -10 0
v -15 -10 0
v -16 -11 0
v -17 -11 0
v -17 -10 0
v -16 -10 0
v -21 -11 0
v -22 -11 0
v -22 -10 0
v -21 -10 0
v -5 -12 0
v -6 -12 0
v -6 -11 0
v -5 -11 0
v -21 -12 0
v -22 -12 0
v -22 -11 0
v -21 -11 0
v -5 -13 0
v -6 -13 0
v -6 -12 0
v -5 -12 0
v -21 -13 0
v -22 -13 0
v -22 -12 0
v -21 -12 0
v -5 -14 0
v -6 -14 0
v -6 -13 0
v -5 -13 0
v -21 -14 0
v -22 -14 0
v -22 -13 0
v -21 -13 0
v -22 -14 0
v -23 -14 0
v -23 -13 0
v -22 -13 0
v -5 -15 0
v -6 -15 0
v -6 -14 0
v -5 -14 0
v -5 -16 0
v -6 -16 0
v -6 -15 0
v -5 -15 0
v -5 -17 0
v -6 -17 0
v -6 -16 0
v -5 -16 0
v -21 -17 0
v -22 -17 0
v -22 -16 0
v -21 -16 0
v -22 -17 0
v -23 -17 0
v -23 -16 0
v -22 -16 0
v -23 -17 0
v -24 -17 0
v -24 -16 0
v -23 -16 0
v -24 -17 0
v -25 -17 0
v -25 -16 0
v -24 -16 0
v -25 -17 0
v -26 -17 0
v -26 -16 0
v -25 -16 0
v -26 -17 0
v -27 -17 0
v -27 -16 0
v -26 -16 0
v -5 -18 0
v -6 -18 0
v -6 -17 0
v -5 -17 0
v -14 -18 0
v -15 -18 0
v -15 -17 0
v -14 -17 0
v -15 -18 0
v -16 -18 0
v -16 -17 0
v -15 -17 0
v -16 -18 0
v -17 -18 0
v -17 -17 0
v -16 -17 0
v -21 -18 0
v -22 -18 0
v -22 -17 0
v -21 -17 0
v -22 -18 0
v -23 -18 0
v -23 -17 0
v -22 -17 0
v -23 -18 0
v -24 -18 0
v -24 -17 0
v -23 -17 0
v -24 -18 0
v -25 -18 0
v -25 -17 0
v -24 -17 0
v -25 -18 0
v -26 -18 0
v -26 -17 0
v -25 -17 0
v -26 -18 0
v -27 -18 0
v -27 -17 0
v -26 -17 0
v -5 -19 0
v -6 -19 0
v -6 -18 0
v -5 -18 0
v -14 -19 0
v -15 -19 0
v -15 -18 0
v -14 -18 0
v -15 -19 0
v -16 -19 0
v -16 -18 0
v -15 -18 0
v -16 -19 0
v -17 -19 0
v -17 -18 0
v -16 -18 0
v -21 -19 0
v -22 -19 0
v -22 -18 0
v -21 -18 0
v -5 -20 0
v -6 -20 0
v -6 -19 0
v -5 -19 0
v -14 -20 0
v -15 -20 0
v -15 -19 0
v -14 -19 0
v -15 -20 0
v -16 -20 0
v -16 -19 0
v -15 -19 0
v -16 -20 0
v -17 -20 0
v -17 -19 0
v -16 -19 0
v -21 -20 0
v -22 -20 0
v -22 -19 0
v -21 -19 0
v -5 -21 0
v -6 -21 0
v -6 -20 0
v -5 -20 0
v -6 -21 0
v -7 -21 0
v -7 -20 0
v -6 -20 0
v -7 -21 0
v -8 -21 0
v -8 -20 0
v -7 -20 0
v -8 -21 0
v -9 -21 0
v -9 -20 0
v -8 -20 0
v -9 -21 0
v -10 -21 0
v -10 -20 0
v -9 -20 0
v -10 -21 0
v -11 -21 0
v -11 -20 0
v -10 -20 0
v -11 -21 0
v -12 -21 0
v -12 -20 0
v -11 -20 0
v -12 -21 0
v -13 -21 0
v -13 -20 0
v -12 -20 0
v -13 -21 0
v -14 -21 0
v -14 -20 0
v -13 -20 0
v -14 -21 0
v -15 -21 0
v -15 -20 0
v -14 -20 0
v -15 -21 0
v -16 -21 0
v -16 -20 0
v -15 -20 0
v -16 -21 0
v -17 -21 0
v -17 -20 0
v -16 -20 0
v -17 -21 0
v -18 -21 0
v -18 -20 0
v -17 -20 0
v -18 -21 0
v -19 -21 0
v -19 -20 0
v -18 -20 0
v -19 -21 0
v -20 -21 0
v -20 -20 0
v -19 -20 0
v -20 -21 0
v -21 -21 0
v -21 -20 0
v -20 -20 0
v -21 -21 0
v -22 -21 0
v -22 -20 0
v -21 -20 0
v -5 -22 0
v -6 -22 0
v -6 -21 0
v -5 -21 0
v -6 -22 0
v -7 -22 0
v -7 -21 0
v -6 -21 0
v -7 -22 0
v -8 -22 0
v -8 -21 0
v -7 -21 0
v -8 -22 0
v -9 -22 0
v -9 -21 0
v -8 -21 0
v -9 -22 0
v -10 -22 0
v -10 -21 0
v -9 -21 0
v -10 -22 0
v -11 -22 0
v -11 -21 0
v -10 -21 0
v -11 -22 0
v -12 -22 0
v -12 -21 0
v -11 -21 0
v -12 -22 0
v -13 -22 0
v -13 -21 0
v -12 -21 0
v -13 -22 0
v -14 -22 0
v -14 -21 0
v -13 -21 0
v -14 -22 0
v -15 -22 0
v -15 -21 0
v -14 -21 0
v -15 -22 0
v -16 -22 0
v -16 -21 0
v -15 -21 0
v -16 -22 0
v -17 -22 0
v -17 -21 0
v -16 -21 0
v -17 -22 0
v -18 -22 0
v -18 -21 0
v -17 -21 0
v -18 -22 0
v -19 -22 0
v -19 -21 0
v -18 -21 0
v -19 -22 0
v -20 -22 0
v -20 -21 0
v -19 -21 0
v -20 -22 0
v -21 -22 0
v -21 -21 0
v -20 -21 0
v -21 -22 0
v -22 -22 0
v -22 -21 0
v -21 -21 0

# Texture cooridinates (Count = 80)
vt 0.7692308 0.6923077
vt 0.8461539 0.6923077
vt 0.8461539 0.7692308
vt 0.7692308 0.7692308
vt 0.6923077 0.6923077
vt 0.6923077 0.7692308
vt 0.5384616 0.2307692
vt 0.6153846 0.2307692
vt 0.6153846 0.3076923
vt 0.5384616 0.3076923
vt 0.6923077 0.2307692
vt 0.6923077 0.3076923
vt 0.7692308 0.2307692
vt 0.7692308 0.3076923
vt 0.7692308 0.6153846
vt 0.8461539 0.6153846
vt 0.1538462 0.9230769
vt 0.2307692 0.9230769
vt 0.2307692 1
vt 0.1538462 1
vt 0.3076923 0.9230769
vt 0.3076923 1
vt 0.3846154 0.9230769
vt 0.3846154 1
vt 0.4615385 0.9230769
vt 0.4615385 1
vt 0.5384616 0.1538461
vt 0.6153846 0.1538461
vt 0.6923077 0.1538461
vt 0.7692308 0.1538461
vt 0.6923077 0.6153846
vt 0.1538462 0.8461539
vt 0.2307692 0.8461539
vt 0.3076923 0.8461539
vt 0.3846154 0.8461539
vt 0.4615385 0.8461539
vt 0.5384616 0.07692307
vt 0.6153846 0.07692307
vt 0.6923077 0.07692307
vt 0.7692308 0.07692307
vt 0.1538462 0.7692308
vt 0.2307692 0.7692308
vt 0.3076923 0.7692308
vt 0.3846154 0.7692308
vt 0.4615385 0.7692308
vt 0.5384616 0
vt 0.6153846 0
vt 0.6923077 0
vt 0.7692308 0
vt 0.1538462 0.6923077
vt 0.2307692 0.6923077
vt 0.3076923 0.6923077
vt 0.3846154 0.6923077
vt 0.4615385 0.6923077
vt 0.6923077 0.5384616
vt 0.7692308 0.5384616
vt 0.8461539 0.5384616
vt 0.7692308 0.8461539
vt 0.6923077 0.8461539
vt 0.6923077 0.9230769
vt 0.7692308 0.9230769
vt 0.7692308 1
vt 0.6923077 1
vt 0.8461539 0.9230769
vt 0.8461539 1
vt 0.9230769 0.9230769
vt 0.9230769 1
vt 1 0.9230769
vt 1 1
vt 0.5384616 0.9230769
vt 0.5384616 1
vt 0.6153846 0.9230769
vt 0.6153846 1
vt 0.8461539 0.8461539
vt 0.9230769 0.8461539
vt 1 0.8461539
vt 0.5384616 0.8461539
vt 0.6153846 0.8461539
vt 0.5384616 0.7692308
vt 0.6153846 0.7692308

# Normal
vn 0 0 -1

# Mesh description
g DummyMap2_mesh_0002

# Faces
f 1/1/1 2/2/1 3/3/1 4/4/1
f 5/5/1 6/1/1 7/4/1 8/6/1
f 9/1/1 10/2/1 11/3/1 12/4/1
f 13/7/1 14/8/1 15/9/1 16/10/1
f 17/8/1 18/11/1 19/12/1 20/9/1
f 21/11/1 22/13/1 23/14/1 24/12/1
f 25/5/1 26/1/1 27/4/1 28/6/1
f 29/15/1 30/16/1 31/2/1 32/1/1
f 33/17/1 34/18/1 35/19/1 36/20/1
f 37/18/1 38/21/1 39/22/1 40/19/1
f 41/21/1 42/23/1 43/24/1 44/22/1
f 45/23/1 46/25/1 47/26/1 48/24/1
f 49/27/1 50/28/1 51/8/1 52/7/1
f 53/28/1 54/29/1 55/11/1 56/8/1
f 57/29/1 58/30/1 59/13/1 60/11/1
f 61/31/1 62/15/1 63/1/1 64/5/1
f 65/15/1 66/16/1 67/2/1 68/1/1
f 69/32/1 70/33/1 71/18/1 72/17/1
f 73/33/1 74/34/1 75/21/1 76/18/1
f 77/34/1 78/35/1 79/23/1 80/21/1
f 81/35/1 82/36/1 83/25/1 84/23/1
f 85/37/1 86/38/1 87/28/1 88/27/1
f 89/38/1 90/39/1 91/29/1 92/28/1
f 93/39/1 94/40/1 95/30/1 96/29/1
f 97/31/1 98/15/1 99/1/1 100/5/1
f 101/15/1 102/16/1 103/2/1 104/1/1
f 105/41/1 106/42/1 107/33/1 108/32/1
f 109/42/1 110/43/1 111/34/1 112/33/1
f 113/43/1 114/44/1 115/35/1 116/34/1
f 117/44/1 118/45/1 119/36/1 120/35/1
f 121/17/1 122/18/1 123/19/1 124/20/1
f 125/18/1 126/21/1 127/22/1 128/19/1
f 129/21/1 130/23/1 131/24/1 132/22/1
f 133/23/1 134/25/1 135/26/1 136/24/1
f 137/46/1 138/47/1 139/38/1 140/37/1
f 141/47/1 142/48/1 143/39/1 144/38/1
f 145/48/1 146/49/1 147/40/1 148/39/1
f 149/31/1 150/15/1 151/1/1 152/5/1
f 153/15/1 154/16/1 155/2/1 156/1/1
f 157/50/1 158/51/1 159/42/1 160/41/1
f 161/51/1 162/52/1 163/43/1 164/42/1
f 165/52/1 166/53/1 167/44/1 168/43/1
f 169/53/1 170/54/1 171/45/1 172/44/1
f 173/32/1 174/33/1 175/18/1 176/17/1
f 177/33/1 178/34/1 179/21/1 180/18/1
f 181/34/1 182/35/1 183/23/1 184/21/1
f 185/35/1 186/36/1 187/25/1 188/23/1
f 189/31/1 190/15/1 191/1/1 192/5/1
f 193/15/1 194/16/1 195/2/1 196/1/1
f 197/41/1 198/42/1 199/33/1 200/32/1
f 201/42/1 202/43/1 203/34/1 204/33/1
f 205/43/1 206/44/1 207/35/1 208/34/1
f 209/44/1 210/45/1 211/36/1 212/35/1
f 213/31/1 214/15/1 215/1/1 216/5/1
f 217/15/1 218/16/1 219/2/1 220/1/1
f 221/50/1 222/51/1 223/42/1 224/41/1
f 225/51/1 226/52/1 227/43/1 228/42/1
f 229/52/1 230/53/1 231/44/1 232/43/1
f 233/53/1 234/54/1 235/45/1 236/44/1
f 237/31/1 238/15/1 239/1/1 240/5/1
f 241/15/1 242/16/1 243/2/1 244/1/1
f 245/31/1 246/15/1 247/1/1 248/5/1
f 249/15/1 250/16/1 251/2/1 252/1/1
f 253/31/1 254/15/1 255/1/1 256/5/1
f 257/15/1 258/16/1 259/2/1 260/1/1
f 261/55/1 262/56/1 263/15/1 264/31/1
f 265/56/1 266/57/1 267/16/1 268/15/1
f 269/15/1 270/16/1 271/2/1 272/1/1
f 273/15/1 274/16/1 275/2/1 276/1/1
f 277/15/1 278/16/1 279/2/1 280/1/1
f 281/6/1 282/4/1 283/58/1 284/59/1
f 285/60/1 286/61/1 287/62/1 288/63/1
f 289/61/1 290/64/1 291/65/1 292/62/1
f 293/64/1 294/66/1 295/67/1 296/65/1
f 297/66/1 298/68/1 299/69/1 300/67/1
f 301/66/1 302/68/1 303/69/1 304/67/1
f 305/15/1 306/16/1 307/2/1 308/1/1
f 309/25/1 310/70/1 311/71/1 312/26/1
f 313/70/1 314/72/1 315/73/1 316/71/1
f 317/72/1 318/60/1 319/63/1 320/73/1
f 321/31/1 322/15/1 323/1/1 324/5/1
f 325/15/1 326/16/1 327/2/1 328/1/1
f 329/58/1 330/74/1 331/64/1 332/61/1
f 333/74/1 334/75/1 335/66/1 336/64/1
f 337/75/1 338/76/1 339/68/1 340/66/1
f 341/75/1 342/76/1 343/68/1 344/66/1
f 345/15/1 346/16/1 347/2/1 348/1/1
f 349/36/1 350/77/1 351/70/1 352/25/1
f 353/77/1 354/78/1 355/72/1 356/70/1
f 357/78/1 358/59/1 359/60/1 360/72/1
f 361/31/1 362/15/1 363/1/1 364/5/1
f 365/15/1 366/16/1 367/2/1 368/1/1
f 369/45/1 370/79/1 371/77/1 372/36/1
f 373/79/1 374/80/1 375/78/1 376/77/1
f 377/80/1 378/6/1 379/59/1 380/78/1
f 381/31/1 382/15/1 383/1/1 384/5/1
f 385/15/1 386/16/1 387/2/1 388/1/1
f 389/64/1 390/66/1 391/67/1 392/65/1
f 393/66/1 394/68/1 395/69/1 396/67/1
f 397/66/1 398/68/1 399/69/1 400/67/1
f 401/66/1 402/68/1 403/69/1 404/67/1
f 405/66/1 406/68/1 407/69/1 408/67/1
f 409/66/1 410/68/1 411/69/1 412/67/1
f 413/66/1 414/68/1 415/69/1 416/67/1
f 417/66/1 418/68/1 419/69/1 420/67/1
f 421/66/1 422/68/1 423/69/1 424/67/1
f 425/66/1 426/68/1 427/69/1 428/67/1
f 429/66/1 430/68/1 431/69/1 432/67/1
f 433/66/1 434/68/1 435/69/1 436/67/1
f 437/66/1 438/68/1 439/69/1 440/67/1
f 441/66/1 442/68/1 443/69/1 444/67/1
f 445/66/1 446/68/1 447/69/1 448/67/1
f 449/31/1 450/15/1 451/1/1 452/5/1
f 453/58/1 454/74/1 455/64/1 456/61/1
f 457/74/1 458/75/1 459/66/1 460/64/1
f 461/75/1 462/76/1 463/68/1 464/66/1
f 465/75/1 466/76/1 467/68/1 468/66/1
f 469/75/1 470/76/1 471/68/1 472/66/1
f 473/75/1 474/76/1 475/68/1 476/66/1
f 477/75/1 478/76/1 479/68/1 480/66/1
f 481/75/1 482/76/1 483/68/1 484/66/1
f 485/75/1 486/76/1 487/68/1 488/66/1
f 489/75/1 490/76/1 491/68/1 492/66/1
f 493/75/1 494/76/1 495/68/1 496/66/1
f 497/75/1 498/76/1 499/68/1 500/66/1
f 501/75/1 502/76/1 503/68/1 504/66/1
f 505/75/1 506/76/1 507/68/1 508/66/1
f 509/75/1 510/76/1 511/68/1 512/66/1
f 513/75/1 514/76/1 515/68/1 516/66/1
f 517/75/1 518/76/1 519/68/1 520/66/1

