# Tiled2Unity generated file. Do not modify by hand.
# Wavefront file for 'DummyMap2_mesh_0006.obj'

# Vertices (Count = 660)
v -4 -3 0
v -5 -3 0
v -5 -2 0
v -4 -2 0
v -22 -3 0
v -23 -3 0
v -23 -2 0
v -22 -2 0
v -4 -4 0
v -5 -4 0
v -5 -3 0
v -4 -3 0
v -5 -4 0
v -6 -4 0
v -6 -3 0
v -5 -3 0
v -21 -4 0
v -22 -4 0
v -22 -3 0
v -21 -3 0
v -22 -4 0
v -23 -4 0
v -23 -3 0
v -22 -3 0
v -4 -5 0
v -5 -5 0
v -5 -4 0
v -4 -4 0
v -5 -5 0
v -6 -5 0
v -6 -4 0
v -5 -4 0
v -17 -5 0
v -18 -5 0
v -18 -4 0
v -17 -4 0
v -18 -5 0
v -19 -5 0
v -19 -4 0
v -18 -4 0
v -19 -5 0
v -20 -5 0
v -20 -4 0
v -19 -4 0
v -21 -5 0
v -22 -5 0
v -22 -4 0
v -21 -4 0
v -22 -5 0
v -23 -5 0
v -23 -4 0
v -22 -4 0
v -4 -6 0
v -5 -6 0
v -5 -5 0
v -4 -5 0
v -5 -6 0
v -6 -6 0
v -6 -5 0
v -5 -5 0
v -6 -6 0
v -7 -6 0
v -7 -5 0
v -6 -5 0
v -7 -6 0
v -8 -6 0
v -8 -5 0
v -7 -5 0
v -8 -6 0
v -9 -6 0
v -9 -5 0
v -8 -5 0
v -9 -6 0
v -10 -6 0
v -10 -5 0
v -9 -5 0
v -17 -6 0
v -18 -6 0
v -18 -5 0
v -17 -5 0
v -18 -6 0
v -19 -6 0
v -19 -5 0
v -18 -5 0
v -19 -6 0
v -20 -6 0
v -20 -5 0
v -19 -5 0
v -21 -6 0
v -22 -6 0
v -22 -5 0
v -21 -5 0
v -22 -6 0
v -23 -6 0
v -23 -5 0
v -22 -5 0
v -4 -7 0
v -5 -7 0
v -5 -6 0
v -4 -6 0
v -5 -7 0
v -6 -7 0
v -6 -6 0
v -5 -6 0
v -6 -7 0
v -7 -7 0
v -7 -6 0
v -6 -6 0
v -7 -7 0
v -8 -7 0
v -8 -6 0
v -7 -6 0
v -8 -7 0
v -9 -7 0
v -9 -6 0
v -8 -6 0
v -9 -7 0
v -10 -7 0
v -10 -6 0
v -9 -6 0
v -17 -7 0
v -18 -7 0
v -18 -6 0
v -17 -6 0
v -18 -7 0
v -19 -7 0
v -19 -6 0
v -18 -6 0
v -19 -7 0
v -20 -7 0
v -20 -6 0
v -19 -6 0
v -21 -7 0
v -22 -7 0
v -22 -6 0
v -21 -6 0
v -22 -7 0
v -23 -7 0
v -23 -6 0
v -22 -6 0
v -4 -8 0
v -5 -8 0
v -5 -7 0
v -4 -7 0
v -5 -8 0
v -6 -8 0
v -6 -7 0
v -5 -7 0
v -6 -8 0
v -7 -8 0
v -7 -7 0
v -6 -7 0
v -7 -8 0
v -8 -8 0
v -8 -7 0
v -7 -7 0
v -8 -8 0
v -9 -8 0
v -9 -7 0
v -8 -7 0
v -9 -8 0
v -10 -8 0
v -10 -7 0
v -9 -7 0
v -13 -8 0
v -14 -8 0
v -14 -7 0
v -13 -7 0
v -14 -8 0
v -15 -8 0
v -15 -7 0
v -14 -7 0
v -15 -8 0
v -16 -8 0
v -16 -7 0
v -15 -7 0
v -16 -8 0
v -17 -8 0
v -17 -7 0
v -16 -7 0
v -17 -8 0
v -18 -8 0
v -18 -7 0
v -17 -7 0
v -18 -8 0
v -19 -8 0
v -19 -7 0
v -18 -7 0
v -19 -8 0
v -20 -8 0
v -20 -7 0
v -19 -7 0
v -21 -8 0
v -22 -8 0
v -22 -7 0
v -21 -7 0
v -22 -8 0
v -23 -8 0
v -23 -7 0
v -22 -7 0
v -4 -9 0
v -5 -9 0
v -5 -8 0
v -4 -8 0
v -5 -9 0
v -6 -9 0
v -6 -8 0
v -5 -8 0
v -6 -9 0
v -7 -9 0
v -7 -8 0
v -6 -8 0
v -7 -9 0
v -8 -9 0
v -8 -8 0
v -7 -8 0
v -8 -9 0
v -9 -9 0
v -9 -8 0
v -8 -8 0
v -9 -9 0
v -10 -9 0
v -10 -8 0
v -9 -8 0
v -13 -9 0
v -14 -9 0
v -14 -8 0
v -13 -8 0
v -14 -9 0
v -15 -9 0
v -15 -8 0
v -14 -8 0
v -15 -9 0
v -16 -9 0
v -16 -8 0
v -15 -8 0
v -16 -9 0
v -17 -9 0
v -17 -8 0
v -16 -8 0
v -21 -9 0
v -22 -9 0
v -22 -8 0
v -21 -8 0
v -22 -9 0
v -23 -9 0
v -23 -8 0
v -22 -8 0
v -4 -10 0
v -5 -10 0
v -5 -9 0
v -4 -9 0
v -5 -10 0
v -6 -10 0
v -6 -9 0
v -5 -9 0
v -13 -10 0
v -14 -10 0
v -14 -9 0
v -13 -9 0
v -14 -10 0
v -15 -10 0
v -15 -9 0
v -14 -9 0
v -15 -10 0
v -16 -10 0
v -16 -9 0
v -15 -9 0
v -16 -10 0
v -17 -10 0
v -17 -9 0
v -16 -9 0
v -21 -10 0
v -22 -10 0
v -22 -9 0
v -21 -9 0
v -22 -10 0
v -23 -10 0
v -23 -9 0
v -22 -9 0
v -4 -11 0
v -5 -11 0
v -5 -10 0
v -4 -10 0
v -5 -11 0
v -6 -11 0
v -6 -10 0
v -5 -10 0
v -13 -11 0
v -14 -11 0
v -14 -10 0
v -13 -10 0
v -14 -11 0
v -15 -11 0
v -15 -10 0
v -14 -10 0
v -15 -11 0
v -16 -11 0
v -16 -10 0
v -15 -10 0
v -16 -11 0
v -17 -11 0
v -17 -10 0
v -16 -10 0
v -21 -11 0
v -22 -11 0
v -22 -10 0
v -21 -10 0
v -22 -11 0
v -23 -11 0
v -23 -10 0
v -22 -10 0
v -4 -12 0
v -5 -12 0
v -5 -11 0
v -4 -11 0
v -5 -12 0
v -6 -12 0
v -6 -11 0
v -5 -11 0
v -21 -12 0
v -22 -12 0
v -22 -11 0
v -21 -11 0
v -22 -12 0
v -23 -12 0
v -23 -11 0
v -22 -11 0
v -4 -13 0
v -5 -13 0
v -5 -12 0
v -4 -12 0
v -5 -13 0
v -6 -13 0
v -6 -12 0
v -5 -12 0
v -21 -13 0
v -22 -13 0
v -22 -12 0
v -21 -12 0
v -22 -13 0
v -23 -13 0
v -23 -12 0
v -22 -12 0
v -4 -14 0
v -5 -14 0
v -5 -13 0
v -4 -13 0
v -5 -14 0
v -6 -14 0
v -6 -13 0
v -5 -13 0
v -21 -14 0
v -22 -14 0
v -22 -13 0
v -21 -13 0
v -22 -14 0
v -23 -14 0
v -23 -13 0
v -22 -13 0
v -4 -15 0
v -5 -15 0
v -5 -14 0
v -4 -14 0
v -5 -15 0
v -6 -15 0
v -6 -14 0
v -5 -14 0
v -4 -16 0
v -5 -16 0
v -5 -15 0
v -4 -15 0
v -5 -16 0
v -6 -16 0
v -6 -15 0
v -5 -15 0
v -4 -17 0
v -5 -17 0
v -5 -16 0
v -4 -16 0
v -5 -17 0
v -6 -17 0
v -6 -16 0
v -5 -16 0
v -21 -17 0
v -22 -17 0
v -22 -16 0
v -21 -16 0
v -22 -17 0
v -23 -17 0
v -23 -16 0
v -22 -16 0
v -23 -17 0
v -24 -17 0
v -24 -16 0
v -23 -16 0
v -24 -17 0
v -25 -17 0
v -25 -16 0
v -24 -16 0
v -25 -17 0
v -26 -17 0
v -26 -16 0
v -25 -16 0
v -26 -17 0
v -27 -17 0
v -27 -16 0
v -26 -16 0
v -4 -18 0
v -5 -18 0
v -5 -17 0
v -4 -17 0
v -5 -18 0
v -6 -18 0
v -6 -17 0
v -5 -17 0
v -14 -18 0
v -15 -18 0
v -15 -17 0
v -14 -17 0
v -15 -18 0
v -16 -18 0
v -16 -17 0
v -15 -17 0
v -16 -18 0
v -17 -18 0
v -17 -17 0
v -16 -17 0
v -21 -18 0
v -22 -18 0
v -22 -17 0
v -21 -17 0
v -22 -18 0
v -23 -18 0
v -23 -17 0
v -22 -17 0
v -23 -18 0
v -24 -18 0
v -24 -17 0
v -23 -17 0
v -24 -18 0
v -25 -18 0
v -25 -17 0
v -24 -17 0
v -25 -18 0
v -26 -18 0
v -26 -17 0
v -25 -17 0
v -26 -18 0
v -27 -18 0
v -27 -17 0
v -26 -17 0
v -4 -19 0
v -5 -19 0
v -5 -18 0
v -4 -18 0
v -5 -19 0
v -6 -19 0
v -6 -18 0
v -5 -18 0
v -14 -19 0
v -15 -19 0
v -15 -18 0
v -14 -18 0
v -15 -19 0
v -16 -19 0
v -16 -18 0
v -15 -18 0
v -16 -19 0
v -17 -19 0
v -17 -18 0
v -16 -18 0
v -21 -19 0
v -22 -19 0
v -22 -18 0
v -21 -18 0
v -22 -19 0
v -23 -19 0
v -23 -18 0
v -22 -18 0
v -4 -20 0
v -5 -20 0
v -5 -19 0
v -4 -19 0
v -5 -20 0
v -6 -20 0
v -6 -19 0
v -5 -19 0
v -14 -20 0
v -15 -20 0
v -15 -19 0
v -14 -19 0
v -15 -20 0
v -16 -20 0
v -16 -19 0
v -15 -19 0
v -16 -20 0
v -17 -20 0
v -17 -19 0
v -16 -19 0
v -21 -20 0
v -22 -20 0
v -22 -19 0
v -21 -19 0
v -22 -20 0
v -23 -20 0
v -23 -19 0
v -22 -19 0
v -4 -21 0
v -5 -21 0
v -5 -20 0
v -4 -20 0
v -5 -21 0
v -6 -21 0
v -6 -20 0
v -5 -20 0
v -6 -21 0
v -7 -21 0
v -7 -20 0
v -6 -20 0
v -7 -21 0
v -8 -21 0
v -8 -20 0
v -7 -20 0
v -8 -21 0
v -9 -21 0
v -9 -20 0
v -8 -20 0
v -9 -21 0
v -10 -21 0
v -10 -20 0
v -9 -20 0
v -10 -21 0
v -11 -21 0
v -11 -20 0
v -10 -20 0
v -11 -21 0
v -12 -21 0
v -12 -20 0
v -11 -20 0
v -12 -21 0
v -13 -21 0
v -13 -20 0
v -12 -20 0
v -13 -21 0
v -14 -21 0
v -14 -20 0
v -13 -20 0
v -14 -21 0
v -15 -21 0
v -15 -20 0
v -14 -20 0
v -15 -21 0
v -16 -21 0
v -16 -20 0
v -15 -20 0
v -16 -21 0
v -17 -21 0
v -17 -20 0
v -16 -20 0
v -17 -21 0
v -18 -21 0
v -18 -20 0
v -17 -20 0
v -18 -21 0
v -19 -21 0
v -19 -20 0
v -18 -20 0
v -19 -21 0
v -20 -21 0
v -20 -20 0
v -19 -20 0
v -20 -21 0
v -21 -21 0
v -21 -20 0
v -20 -20 0
v -21 -21 0
v -22 -21 0
v -22 -20 0
v -21 -20 0
v -22 -21 0
v -23 -21 0
v -23 -20 0
v -22 -20 0
v -4 -22 0
v -5 -22 0
v -5 -21 0
v -4 -21 0
v -5 -22 0
v -6 -22 0
v -6 -21 0
v -5 -21 0
v -6 -22 0
v -7 -22 0
v -7 -21 0
v -6 -21 0
v -7 -22 0
v -8 -22 0
v -8 -21 0
v -7 -21 0
v -8 -22 0
v -9 -22 0
v -9 -21 0
v -8 -21 0
v -9 -22 0
v -10 -22 0
v -10 -21 0
v -9 -21 0
v -10 -22 0
v -11 -22 0
v -11 -21 0
v -10 -21 0
v -11 -22 0
v -12 -22 0
v -12 -21 0
v -11 -21 0
v -12 -22 0
v -13 -22 0
v -13 -21 0
v -12 -21 0
v -13 -22 0
v -14 -22 0
v -14 -21 0
v -13 -21 0
v -14 -22 0
v -15 -22 0
v -15 -21 0
v -14 -21 0
v -15 -22 0
v -16 -22 0
v -16 -21 0
v -15 -21 0
v -16 -22 0
v -17 -22 0
v -17 -21 0
v -16 -21 0
v -17 -22 0
v -18 -22 0
v -18 -21 0
v -17 -21 0
v -18 -22 0
v -19 -22 0
v -19 -21 0
v -18 -21 0
v -19 -22 0
v -20 -22 0
v -20 -21 0
v -19 -21 0
v -20 -22 0
v -21 -22 0
v -21 -21 0
v -20 -21 0
v -21 -22 0
v -22 -22 0
v -22 -21 0
v -21 -21 0
v -22 -22 0
v -23 -22 0
v -23 -21 0
v -22 -21 0

# Texture cooridinates (Count = 80)
vt 0.6923077 0.7692308
vt 0.7692308 0.7692308
vt 0.7692308 0.8461539
vt 0.6923077 0.8461539
vt 0.8461539 0.7692308
vt 0.8461539 0.8461539
vt 0.6923077 0.6923077
vt 0.7692308 0.6923077
vt 0.8461539 0.6923077
vt 0.5384616 0.2307692
vt 0.6153846 0.2307692
vt 0.6153846 0.3076923
vt 0.5384616 0.3076923
vt 0.6923077 0.2307692
vt 0.6923077 0.3076923
vt 0.7692308 0.2307692
vt 0.7692308 0.3076923
vt 0.6923077 0.6153846
vt 0.7692308 0.6153846
vt 0.8461539 0.6153846
vt 0.1538462 0.9230769
vt 0.2307692 0.9230769
vt 0.2307692 1
vt 0.1538462 1
vt 0.3076923 0.9230769
vt 0.3076923 1
vt 0.3846154 0.9230769
vt 0.3846154 1
vt 0.4615385 0.9230769
vt 0.4615385 1
vt 0.5384616 0.1538461
vt 0.6153846 0.1538461
vt 0.6923077 0.1538461
vt 0.7692308 0.1538461
vt 0.1538462 0.8461539
vt 0.2307692 0.8461539
vt 0.3076923 0.8461539
vt 0.3846154 0.8461539
vt 0.4615385 0.8461539
vt 0.5384616 0.07692307
vt 0.6153846 0.07692307
vt 0.6923077 0.07692307
vt 0.7692308 0.07692307
vt 0.1538462 0.7692308
vt 0.2307692 0.7692308
vt 0.3076923 0.7692308
vt 0.3846154 0.7692308
vt 0.4615385 0.7692308
vt 0.5384616 0
vt 0.6153846 0
vt 0.6923077 0
vt 0.7692308 0
vt 0.1538462 0.6923077
vt 0.2307692 0.6923077
vt 0.3076923 0.6923077
vt 0.3846154 0.6923077
vt 0.4615385 0.6923077
vt 0.6923077 0.5384616
vt 0.7692308 0.5384616
vt 0.8461539 0.5384616
vt 0.6923077 0.9230769
vt 0.7692308 0.9230769
vt 0.7692308 1
vt 0.6923077 1
vt 0.8461539 0.9230769
vt 0.8461539 1
vt 0.9230769 0.9230769
vt 0.9230769 1
vt 1 0.9230769
vt 1 1
vt 0.5384616 0.9230769
vt 0.5384616 1
vt 0.6153846 0.9230769
vt 0.6153846 1
vt 0.9230769 0.8461539
vt 1 0.8461539
vt 0.5384616 0.8461539
vt 0.6153846 0.8461539
vt 0.5384616 0.7692308
vt 0.6153846 0.7692308

# Normal
vn 0 0 -1

# Mesh description
g DummyMap2_mesh_0006

# Faces
f 1/1/1 2/2/1 3/3/1 4/4/1
f 5/2/1 6/5/1 7/6/1 8/3/1
f 9/7/1 10/8/1 11/2/1 12/1/1
f 13/8/1 14/9/1 15/5/1 16/2/1
f 17/7/1 18/8/1 19/2/1 20/1/1
f 21/8/1 22/9/1 23/5/1 24/2/1
f 25/7/1 26/8/1 27/2/1 28/1/1
f 29/8/1 30/9/1 31/5/1 32/2/1
f 33/10/1 34/11/1 35/12/1 36/13/1
f 37/11/1 38/14/1 39/15/1 40/12/1
f 41/14/1 42/16/1 43/17/1 44/15/1
f 45/7/1 46/8/1 47/2/1 48/1/1
f 49/8/1 50/9/1 51/5/1 52/2/1
f 53/18/1 54/19/1 55/8/1 56/7/1
f 57/19/1 58/20/1 59/9/1 60/8/1
f 61/21/1 62/22/1 63/23/1 64/24/1
f 65/22/1 66/25/1 67/26/1 68/23/1
f 69/25/1 70/27/1 71/28/1 72/26/1
f 73/27/1 74/29/1 75/30/1 76/28/1
f 77/31/1 78/32/1 79/11/1 80/10/1
f 81/32/1 82/33/1 83/14/1 84/11/1
f 85/33/1 86/34/1 87/16/1 88/14/1
f 89/18/1 90/19/1 91/8/1 92/7/1
f 93/19/1 94/20/1 95/9/1 96/8/1
f 97/18/1 98/19/1 99/8/1 100/7/1
f 101/19/1 102/20/1 103/9/1 104/8/1
f 105/35/1 106/36/1 107/22/1 108/21/1
f 109/36/1 110/37/1 111/25/1 112/22/1
f 113/37/1 114/38/1 115/27/1 116/25/1
f 117/38/1 118/39/1 119/29/1 120/27/1
f 121/40/1 122/41/1 123/32/1 124/31/1
f 125/41/1 126/42/1 127/33/1 128/32/1
f 129/42/1 130/43/1 131/34/1 132/33/1
f 133/18/1 134/19/1 135/8/1 136/7/1
f 137/19/1 138/20/1 139/9/1 140/8/1
f 141/18/1 142/19/1 143/8/1 144/7/1
f 145/19/1 146/20/1 147/9/1 148/8/1
f 149/44/1 150/45/1 151/36/1 152/35/1
f 153/45/1 154/46/1 155/37/1 156/36/1
f 157/46/1 158/47/1 159/38/1 160/37/1
f 161/47/1 162/48/1 163/39/1 164/38/1
f 165/21/1 166/22/1 167/23/1 168/24/1
f 169/22/1 170/25/1 171/26/1 172/23/1
f 173/25/1 174/27/1 175/28/1 176/26/1
f 177/27/1 178/29/1 179/30/1 180/28/1
f 181/49/1 182/50/1 183/41/1 184/40/1
f 185/50/1 186/51/1 187/42/1 188/41/1
f 189/51/1 190/52/1 191/43/1 192/42/1
f 193/18/1 194/19/1 195/8/1 196/7/1
f 197/19/1 198/20/1 199/9/1 200/8/1
f 201/18/1 202/19/1 203/8/1 204/7/1
f 205/19/1 206/20/1 207/9/1 208/8/1
f 209/53/1 210/54/1 211/45/1 212/44/1
f 213/54/1 214/55/1 215/46/1 216/45/1
f 217/55/1 218/56/1 219/47/1 220/46/1
f 221/56/1 222/57/1 223/48/1 224/47/1
f 225/35/1 226/36/1 227/22/1 228/21/1
f 229/36/1 230/37/1 231/25/1 232/22/1
f 233/37/1 234/38/1 235/27/1 236/25/1
f 237/38/1 238/39/1 239/29/1 240/27/1
f 241/18/1 242/19/1 243/8/1 244/7/1
f 245/19/1 246/20/1 247/9/1 248/8/1
f 249/18/1 250/19/1 251/8/1 252/7/1
f 253/19/1 254/20/1 255/9/1 256/8/1
f 257/44/1 258/45/1 259/36/1 260/35/1
f 261/45/1 262/46/1 263/37/1 264/36/1
f 265/46/1 266/47/1 267/38/1 268/37/1
f 269/47/1 270/48/1 271/39/1 272/38/1
f 273/18/1 274/19/1 275/8/1 276/7/1
f 277/19/1 278/20/1 279/9/1 280/8/1
f 281/18/1 282/19/1 283/8/1 284/7/1
f 285/19/1 286/20/1 287/9/1 288/8/1
f 289/53/1 290/54/1 291/45/1 292/44/1
f 293/54/1 294/55/1 295/46/1 296/45/1
f 297/55/1 298/56/1 299/47/1 300/46/1
f 301/56/1 302/57/1 303/48/1 304/47/1
f 305/18/1 306/19/1 307/8/1 308/7/1
f 309/19/1 310/20/1 311/9/1 312/8/1
f 313/18/1 314/19/1 315/8/1 316/7/1
f 317/19/1 318/20/1 319/9/1 320/8/1
f 321/18/1 322/19/1 323/8/1 324/7/1
f 325/19/1 326/20/1 327/9/1 328/8/1
f 329/18/1 330/19/1 331/8/1 332/7/1
f 333/19/1 334/20/1 335/9/1 336/8/1
f 337/18/1 338/19/1 339/8/1 340/7/1
f 341/19/1 342/20/1 343/9/1 344/8/1
f 345/18/1 346/19/1 347/8/1 348/7/1
f 349/19/1 350/20/1 351/9/1 352/8/1
f 353/58/1 354/59/1 355/19/1 356/18/1
f 357/59/1 358/60/1 359/20/1 360/19/1
f 361/18/1 362/19/1 363/8/1 364/7/1
f 365/19/1 366/20/1 367/9/1 368/8/1
f 369/18/1 370/19/1 371/8/1 372/7/1
f 373/19/1 374/20/1 375/9/1 376/8/1
f 377/18/1 378/19/1 379/8/1 380/7/1
f 381/19/1 382/20/1 383/9/1 384/8/1
f 385/1/1 386/2/1 387/3/1 388/4/1
f 389/61/1 390/62/1 391/63/1 392/64/1
f 393/62/1 394/65/1 395/66/1 396/63/1
f 397/65/1 398/67/1 399/68/1 400/66/1
f 401/67/1 402/69/1 403/70/1 404/68/1
f 405/67/1 406/69/1 407/70/1 408/68/1
f 409/18/1 410/19/1 411/8/1 412/7/1
f 413/19/1 414/20/1 415/9/1 416/8/1
f 417/29/1 418/71/1 419/72/1 420/30/1
f 421/71/1 422/73/1 423/74/1 424/72/1
f 425/73/1 426/61/1 427/64/1 428/74/1
f 429/18/1 430/19/1 431/8/1 432/7/1
f 433/19/1 434/20/1 435/9/1 436/8/1
f 437/3/1 438/6/1 439/65/1 440/62/1
f 441/6/1 442/75/1 443/67/1 444/65/1
f 445/75/1 446/76/1 447/69/1 448/67/1
f 449/75/1 450/76/1 451/69/1 452/67/1
f 453/18/1 454/19/1 455/8/1 456/7/1
f 457/19/1 458/20/1 459/9/1 460/8/1
f 461/39/1 462/77/1 463/71/1 464/29/1
f 465/77/1 466/78/1 467/73/1 468/71/1
f 469/78/1 470/4/1 471/61/1 472/73/1
f 473/18/1 474/19/1 475/8/1 476/7/1
f 477/19/1 478/20/1 479/9/1 480/8/1
f 481/18/1 482/19/1 483/8/1 484/7/1
f 485/19/1 486/20/1 487/9/1 488/8/1
f 489/48/1 490/79/1 491/77/1 492/39/1
f 493/79/1 494/80/1 495/78/1 496/77/1
f 497/80/1 498/1/1 499/4/1 500/78/1
f 501/18/1 502/19/1 503/8/1 504/7/1
f 505/19/1 506/20/1 507/9/1 508/8/1
f 509/18/1 510/19/1 511/8/1 512/7/1
f 513/19/1 514/20/1 515/9/1 516/8/1
f 517/65/1 518/67/1 519/68/1 520/66/1
f 521/67/1 522/69/1 523/70/1 524/68/1
f 525/67/1 526/69/1 527/70/1 528/68/1
f 529/67/1 530/69/1 531/70/1 532/68/1
f 533/67/1 534/69/1 535/70/1 536/68/1
f 537/67/1 538/69/1 539/70/1 540/68/1
f 541/67/1 542/69/1 543/70/1 544/68/1
f 545/67/1 546/69/1 547/70/1 548/68/1
f 549/67/1 550/69/1 551/70/1 552/68/1
f 553/67/1 554/69/1 555/70/1 556/68/1
f 557/67/1 558/69/1 559/70/1 560/68/1
f 561/67/1 562/69/1 563/70/1 564/68/1
f 565/67/1 566/69/1 567/70/1 568/68/1
f 569/67/1 570/69/1 571/70/1 572/68/1
f 573/67/1 574/69/1 575/70/1 576/68/1
f 577/18/1 578/19/1 579/8/1 580/7/1
f 581/19/1 582/20/1 583/9/1 584/8/1
f 585/58/1 586/59/1 587/19/1 588/18/1
f 589/3/1 590/6/1 591/65/1 592/62/1
f 593/6/1 594/75/1 595/67/1 596/65/1
f 597/75/1 598/76/1 599/69/1 600/67/1
f 601/75/1 602/76/1 603/69/1 604/67/1
f 605/75/1 606/76/1 607/69/1 608/67/1
f 609/75/1 610/76/1 611/69/1 612/67/1
f 613/75/1 614/76/1 615/69/1 616/67/1
f 617/75/1 618/76/1 619/69/1 620/67/1
f 621/75/1 622/76/1 623/69/1 624/67/1
f 625/75/1 626/76/1 627/69/1 628/67/1
f 629/75/1 630/76/1 631/69/1 632/67/1
f 633/75/1 634/76/1 635/69/1 636/67/1
f 637/75/1 638/76/1 639/69/1 640/67/1
f 641/75/1 642/76/1 643/69/1 644/67/1
f 645/75/1 646/76/1 647/69/1 648/67/1
f 649/75/1 650/76/1 651/69/1 652/67/1
f 653/75/1 654/76/1 655/69/1 656/67/1
f 657/59/1 658/60/1 659/20/1 660/19/1

