# Tiled2Unity generated file. Do not modify by hand.
# Wavefront file for 'Intro-Cinematic_mesh_0004.obj'

# Vertices (Count = 624)
v -1 -1 0
v -2 -1 0
v -2 0 0
v -1 0 0
v -2 -1 0
v -3 -1 0
v -3 0 0
v -2 0 0
v -3 -1 0
v -4 -1 0
v -4 0 0
v -3 0 0
v -19 -1 0
v -20 -1 0
v -20 0 0
v -19 0 0
v -20 -1 0
v -21 -1 0
v -21 0 0
v -20 0 0
v -1 -2 0
v -2 -2 0
v -2 -1 0
v -1 -1 0
v -2 -2 0
v -3 -2 0
v -3 -1 0
v -2 -1 0
v -3 -2 0
v -4 -2 0
v -4 -1 0
v -3 -1 0
v -19 -2 0
v -20 -2 0
v -20 -1 0
v -19 -1 0
v -20 -2 0
v -21 -2 0
v -21 -1 0
v -20 -1 0
v -1 -3 0
v -2 -3 0
v -2 -2 0
v -1 -2 0
v -2 -3 0
v -3 -3 0
v -3 -2 0
v -2 -2 0
v -3 -3 0
v -4 -3 0
v -4 -2 0
v -3 -2 0
v -7 -3 0
v -8 -3 0
v -8 -2 0
v -7 -2 0
v -8 -3 0
v -9 -3 0
v -9 -2 0
v -8 -2 0
v -19 -3 0
v -20 -3 0
v -20 -2 0
v -19 -2 0
v -20 -3 0
v -21 -3 0
v -21 -2 0
v -20 -2 0
v -1 -4 0
v -2 -4 0
v -2 -3 0
v -1 -3 0
v -2 -4 0
v -3 -4 0
v -3 -3 0
v -2 -3 0
v -3 -4 0
v -4 -4 0
v -4 -3 0
v -3 -3 0
v -7 -4 0
v -8 -4 0
v -8 -3 0
v -7 -3 0
v -8 -4 0
v -9 -4 0
v -9 -3 0
v -8 -3 0
v -26 -4 0
v -27 -4 0
v -27 -3 0
v -26 -3 0
v -27 -4 0
v -28 -4 0
v -28 -3 0
v -27 -3 0
v -7 -5 0
v -8 -5 0
v -8 -4 0
v -7 -4 0
v -8 -5 0
v -9 -5 0
v -9 -4 0
v -8 -4 0
v -23 -5 0
v -24 -5 0
v -24 -4 0
v -23 -4 0
v -24 -5 0
v -25 -5 0
v -25 -4 0
v -24 -4 0
v -25 -5 0
v -26 -5 0
v -26 -4 0
v -25 -4 0
v -26 -5 0
v -27 -5 0
v -27 -4 0
v -26 -4 0
v -27 -5 0
v -28 -5 0
v -28 -4 0
v -27 -4 0
v -23 -6 0
v -24 -6 0
v -24 -5 0
v -23 -5 0
v -24 -6 0
v -25 -6 0
v -25 -5 0
v -24 -5 0
v -25 -6 0
v -26 -6 0
v -26 -5 0
v -25 -5 0
v -26 -6 0
v -27 -6 0
v -27 -5 0
v -26 -5 0
v -27 -6 0
v -28 -6 0
v -28 -5 0
v -27 -5 0
v -2 -7 0
v -3 -7 0
v -3 -6 0
v -2 -6 0
v -3 -7 0
v -4 -7 0
v -4 -6 0
v -3 -6 0
v -4 -7 0
v -5 -7 0
v -5 -6 0
v -4 -6 0
v -7 -7 0
v -8 -7 0
v -8 -6 0
v -7 -6 0
v -8 -7 0
v -9 -7 0
v -9 -6 0
v -8 -6 0
v -9 -7 0
v -10 -7 0
v -10 -6 0
v -9 -6 0
v -23 -7 0
v -24 -7 0
v -24 -6 0
v -23 -6 0
v -24 -7 0
v -25 -7 0
v -25 -6 0
v -24 -6 0
v -25 -7 0
v -26 -7 0
v -26 -6 0
v -25 -6 0
v -2 -8 0
v -3 -8 0
v -3 -7 0
v -2 -7 0
v -3 -8 0
v -4 -8 0
v -4 -7 0
v -3 -7 0
v -4 -8 0
v -5 -8 0
v -5 -7 0
v -4 -7 0
v -7 -8 0
v -8 -8 0
v -8 -7 0
v -7 -7 0
v -8 -8 0
v -9 -8 0
v -9 -7 0
v -8 -7 0
v -9 -8 0
v -10 -8 0
v -10 -7 0
v -9 -7 0
v -13 -8 0
v -14 -8 0
v -14 -7 0
v -13 -7 0
v -14 -8 0
v -15 -8 0
v -15 -7 0
v -14 -7 0
v -23 -8 0
v -24 -8 0
v -24 -7 0
v -23 -7 0
v -24 -8 0
v -25 -8 0
v -25 -7 0
v -24 -7 0
v -25 -8 0
v -26 -8 0
v -26 -7 0
v -25 -7 0
v -2 -9 0
v -3 -9 0
v -3 -8 0
v -2 -8 0
v -3 -9 0
v -4 -9 0
v -4 -8 0
v -3 -8 0
v -4 -9 0
v -5 -9 0
v -5 -8 0
v -4 -8 0
v -7 -9 0
v -8 -9 0
v -8 -8 0
v -7 -8 0
v -8 -9 0
v -9 -9 0
v -9 -8 0
v -8 -8 0
v -9 -9 0
v -10 -9 0
v -10 -8 0
v -9 -8 0
v -13 -9 0
v -14 -9 0
v -14 -8 0
v -13 -8 0
v -14 -9 0
v -15 -9 0
v -15 -8 0
v -14 -8 0
v -2 -10 0
v -3 -10 0
v -3 -9 0
v -2 -9 0
v -3 -10 0
v -4 -10 0
v -4 -9 0
v -3 -9 0
v -4 -10 0
v -5 -10 0
v -5 -9 0
v -4 -9 0
v -7 -10 0
v -8 -10 0
v -8 -9 0
v -7 -9 0
v -8 -10 0
v -9 -10 0
v -9 -9 0
v -8 -9 0
v -9 -10 0
v -10 -10 0
v -10 -9 0
v -9 -9 0
v -13 -10 0
v -14 -10 0
v -14 -9 0
v -13 -9 0
v -14 -10 0
v -15 -10 0
v -15 -9 0
v -14 -9 0
v -7 -11 0
v -8 -11 0
v -8 -10 0
v -7 -10 0
v -8 -11 0
v -9 -11 0
v -9 -10 0
v -8 -10 0
v -16 -11 0
v -17 -11 0
v -17 -10 0
v -16 -10 0
v -17 -11 0
v -18 -11 0
v -18 -10 0
v -17 -10 0
v -7 -12 0
v -8 -12 0
v -8 -11 0
v -7 -11 0
v -8 -12 0
v -9 -12 0
v -9 -11 0
v -8 -11 0
v -16 -12 0
v -17 -12 0
v -17 -11 0
v -16 -11 0
v -17 -12 0
v -18 -12 0
v -18 -11 0
v -17 -11 0
v -16 -13 0
v -17 -13 0
v -17 -12 0
v -16 -12 0
v -17 -13 0
v -18 -13 0
v -18 -12 0
v -17 -12 0
v -15 -15 0
v -16 -15 0
v -16 -14 0
v -15 -14 0
v -16 -15 0
v -17 -15 0
v -17 -14 0
v -16 -14 0
v -17 -15 0
v -18 -15 0
v -18 -14 0
v -17 -14 0
v -15 -16 0
v -16 -16 0
v -16 -15 0
v -15 -15 0
v -16 -16 0
v -17 -16 0
v -17 -15 0
v -16 -15 0
v -17 -16 0
v -18 -16 0
v -18 -15 0
v -17 -15 0
v -18 -16 0
v -19 -16 0
v -19 -15 0
v -18 -15 0
v -19 -16 0
v -20 -16 0
v -20 -15 0
v -19 -15 0
v -9 -17 0
v -10 -17 0
v -10 -16 0
v -9 -16 0
v -10 -17 0
v -11 -17 0
v -11 -16 0
v -10 -16 0
v -15 -17 0
v -16 -17 0
v -16 -16 0
v -15 -16 0
v -16 -17 0
v -17 -17 0
v -17 -16 0
v -16 -16 0
v -17 -17 0
v -18 -17 0
v -18 -16 0
v -17 -16 0
v -18 -17 0
v -19 -17 0
v -19 -16 0
v -18 -16 0
v -19 -17 0
v -20 -17 0
v -20 -16 0
v -19 -16 0
v -22 -17 0
v -23 -17 0
v -23 -16 0
v -22 -16 0
v -23 -17 0
v -24 -17 0
v -24 -16 0
v -23 -16 0
v -24 -17 0
v -25 -17 0
v -25 -16 0
v -24 -16 0
v -9 -18 0
v -10 -18 0
v -10 -17 0
v -9 -17 0
v -10 -18 0
v -11 -18 0
v -11 -17 0
v -10 -17 0
v -15 -18 0
v -16 -18 0
v -16 -17 0
v -15 -17 0
v -16 -18 0
v -17 -18 0
v -17 -17 0
v -16 -17 0
v -17 -18 0
v -18 -18 0
v -18 -17 0
v -17 -17 0
v -18 -18 0
v -19 -18 0
v -19 -17 0
v -18 -17 0
v -19 -18 0
v -20 -18 0
v -20 -17 0
v -19 -17 0
v -22 -18 0
v -23 -18 0
v -23 -17 0
v -22 -17 0
v -23 -18 0
v -24 -18 0
v -24 -17 0
v -23 -17 0
v -24 -18 0
v -25 -18 0
v -25 -17 0
v -24 -17 0
v -5 -19 0
v -6 -19 0
v -6 -18 0
v -5 -18 0
v -6 -19 0
v -7 -19 0
v -7 -18 0
v -6 -18 0
v -9 -19 0
v -10 -19 0
v -10 -18 0
v -9 -18 0
v -10 -19 0
v -11 -19 0
v -11 -18 0
v -10 -18 0
v -22 -19 0
v -23 -19 0
v -23 -18 0
v -22 -18 0
v -23 -19 0
v -24 -19 0
v -24 -18 0
v -23 -18 0
v -24 -19 0
v -25 -19 0
v -25 -18 0
v -24 -18 0
v -1 -20 0
v -2 -20 0
v -2 -19 0
v -1 -19 0
v -2 -20 0
v -3 -20 0
v -3 -19 0
v -2 -19 0
v -3 -20 0
v -4 -20 0
v -4 -19 0
v -3 -19 0
v -5 -20 0
v -6 -20 0
v -6 -19 0
v -5 -19 0
v -6 -20 0
v -7 -20 0
v -7 -19 0
v -6 -19 0
v -13 -20 0
v -14 -20 0
v -14 -19 0
v -13 -19 0
v -14 -20 0
v -15 -20 0
v -15 -19 0
v -14 -19 0
v -15 -20 0
v -16 -20 0
v -16 -19 0
v -15 -19 0
v -22 -20 0
v -23 -20 0
v -23 -19 0
v -22 -19 0
v -23 -20 0
v -24 -20 0
v -24 -19 0
v -23 -19 0
v -24 -20 0
v -25 -20 0
v -25 -19 0
v -24 -19 0
v -1 -21 0
v -2 -21 0
v -2 -20 0
v -1 -20 0
v -2 -21 0
v -3 -21 0
v -3 -20 0
v -2 -20 0
v -3 -21 0
v -4 -21 0
v -4 -20 0
v -3 -20 0
v -5 -21 0
v -6 -21 0
v -6 -20 0
v -5 -20 0
v -6 -21 0
v -7 -21 0
v -7 -20 0
v -6 -20 0
v -13 -21 0
v -14 -21 0
v -14 -20 0
v -13 -20 0
v -14 -21 0
v -15 -21 0
v -15 -20 0
v -14 -20 0
v -15 -21 0
v -16 -21 0
v -16 -20 0
v -15 -20 0
v -16 -21 0
v -17 -21 0
v -17 -20 0
v -16 -20 0
v -17 -21 0
v -18 -21 0
v -18 -20 0
v -17 -20 0
v -1 -22 0
v -2 -22 0
v -2 -21 0
v -1 -21 0
v -2 -22 0
v -3 -22 0
v -3 -21 0
v -2 -21 0
v -3 -22 0
v -4 -22 0
v -4 -21 0
v -3 -21 0
v -13 -22 0
v -14 -22 0
v -14 -21 0
v -13 -21 0
v -14 -22 0
v -15 -22 0
v -15 -21 0
v -14 -21 0
v -15 -22 0
v -16 -22 0
v -16 -21 0
v -15 -21 0
v -16 -22 0
v -17 -22 0
v -17 -21 0
v -16 -21 0
v -17 -22 0
v -18 -22 0
v -18 -21 0
v -17 -21 0
v -1 -23 0
v -2 -23 0
v -2 -22 0
v -1 -22 0
v -2 -23 0
v -3 -23 0
v -3 -22 0
v -2 -22 0
v -3 -23 0
v -4 -23 0
v -4 -22 0
v -3 -22 0
v -13 -23 0
v -14 -23 0
v -14 -22 0
v -13 -22 0
v -14 -23 0
v -15 -23 0
v -15 -22 0
v -14 -22 0
v -15 -23 0
v -16 -23 0
v -16 -22 0
v -15 -22 0
v -16 -23 0
v -17 -23 0
v -17 -22 0
v -16 -22 0
v -17 -23 0
v -18 -23 0
v -18 -22 0
v -17 -22 0
v -16 -24 0
v -17 -24 0
v -17 -23 0
v -16 -23 0
v -17 -24 0
v -18 -24 0
v -18 -23 0
v -17 -23 0

# Texture cooridinates (Count = 32)
vt 0.3076923 0.2307692
vt 0.3846154 0.2307692
vt 0.3846154 0.3076923
vt 0.3076923 0.3076923
vt 0.4615385 0.2307692
vt 0.4615385 0.3076923
vt 0.5384616 0.2307692
vt 0.5384616 0.3076923
vt 0.6923077 0.4615384
vt 0.7692308 0.4615384
vt 0.7692308 0.5384616
vt 0.6923077 0.5384616
vt 0.8461539 0.4615384
vt 0.8461539 0.5384616
vt 0.3076923 0.1538461
vt 0.3846154 0.1538461
vt 0.4615385 0.1538461
vt 0.5384616 0.1538461
vt 0.6923077 0.3846154
vt 0.7692308 0.3846154
vt 0.8461539 0.3846154
vt 0.3076923 0.07692307
vt 0.3846154 0.07692307
vt 0.4615385 0.07692307
vt 0.5384616 0.07692307
vt 0.6923077 0.3076923
vt 0.7692308 0.3076923
vt 0.8461539 0.3076923
vt 0.3076923 0
vt 0.3846154 0
vt 0.4615385 0
vt 0.5384616 0

# Normal
vn 0 0 -1

# Mesh description
g Intro-Cinematic_mesh_0004

# Faces
f 1/1/1 2/2/1 3/3/1 4/4/1
f 5/2/1 6/5/1 7/6/1 8/3/1
f 9/5/1 10/7/1 11/8/1 12/6/1
f 13/9/1 14/10/1 15/11/1 16/12/1
f 17/10/1 18/13/1 19/14/1 20/11/1
f 21/15/1 22/16/1 23/2/1 24/1/1
f 25/16/1 26/17/1 27/5/1 28/2/1
f 29/17/1 30/18/1 31/7/1 32/5/1
f 33/19/1 34/20/1 35/10/1 36/9/1
f 37/20/1 38/21/1 39/13/1 40/10/1
f 41/22/1 42/23/1 43/16/1 44/15/1
f 45/23/1 46/24/1 47/17/1 48/16/1
f 49/24/1 50/25/1 51/18/1 52/17/1
f 53/9/1 54/10/1 55/11/1 56/12/1
f 57/10/1 58/13/1 59/14/1 60/11/1
f 61/26/1 62/27/1 63/20/1 64/19/1
f 65/27/1 66/28/1 67/21/1 68/20/1
f 69/29/1 70/30/1 71/23/1 72/22/1
f 73/30/1 74/31/1 75/24/1 76/23/1
f 77/31/1 78/32/1 79/25/1 80/24/1
f 81/19/1 82/20/1 83/10/1 84/9/1
f 85/20/1 86/21/1 87/13/1 88/10/1
f 89/9/1 90/10/1 91/11/1 92/12/1
f 93/10/1 94/13/1 95/14/1 96/11/1
f 97/26/1 98/27/1 99/20/1 100/19/1
f 101/27/1 102/28/1 103/21/1 104/20/1
f 105/1/1 106/2/1 107/3/1 108/4/1
f 109/2/1 110/5/1 111/6/1 112/3/1
f 113/5/1 114/7/1 115/8/1 116/6/1
f 117/19/1 118/20/1 119/10/1 120/9/1
f 121/20/1 122/21/1 123/13/1 124/10/1
f 125/15/1 126/16/1 127/2/1 128/1/1
f 129/16/1 130/17/1 131/5/1 132/2/1
f 133/17/1 134/18/1 135/7/1 136/5/1
f 137/26/1 138/27/1 139/20/1 140/19/1
f 141/27/1 142/28/1 143/21/1 144/20/1
f 145/1/1 146/2/1 147/3/1 148/4/1
f 149/2/1 150/5/1 151/6/1 152/3/1
f 153/5/1 154/7/1 155/8/1 156/6/1
f 157/1/1 158/2/1 159/3/1 160/4/1
f 161/2/1 162/5/1 163/6/1 164/3/1
f 165/5/1 166/7/1 167/8/1 168/6/1
f 169/22/1 170/23/1 171/16/1 172/15/1
f 173/23/1 174/24/1 175/17/1 176/16/1
f 177/24/1 178/25/1 179/18/1 180/17/1
f 181/15/1 182/16/1 183/2/1 184/1/1
f 185/16/1 186/17/1 187/5/1 188/2/1
f 189/17/1 190/18/1 191/7/1 192/5/1
f 193/15/1 194/16/1 195/2/1 196/1/1
f 197/16/1 198/17/1 199/5/1 200/2/1
f 201/17/1 202/18/1 203/7/1 204/5/1
f 205/9/1 206/10/1 207/11/1 208/12/1
f 209/10/1 210/13/1 211/14/1 212/11/1
f 213/29/1 214/30/1 215/23/1 216/22/1
f 217/30/1 218/31/1 219/24/1 220/23/1
f 221/31/1 222/32/1 223/25/1 224/24/1
f 225/22/1 226/23/1 227/16/1 228/15/1
f 229/23/1 230/24/1 231/17/1 232/16/1
f 233/24/1 234/25/1 235/18/1 236/17/1
f 237/22/1 238/23/1 239/16/1 240/15/1
f 241/23/1 242/24/1 243/17/1 244/16/1
f 245/24/1 246/25/1 247/18/1 248/17/1
f 249/19/1 250/20/1 251/10/1 252/9/1
f 253/20/1 254/21/1 255/13/1 256/10/1
f 257/29/1 258/30/1 259/23/1 260/22/1
f 261/30/1 262/31/1 263/24/1 264/23/1
f 265/31/1 266/32/1 267/25/1 268/24/1
f 269/29/1 270/30/1 271/23/1 272/22/1
f 273/30/1 274/31/1 275/24/1 276/23/1
f 277/31/1 278/32/1 279/25/1 280/24/1
f 281/26/1 282/27/1 283/20/1 284/19/1
f 285/27/1 286/28/1 287/21/1 288/20/1
f 289/19/1 290/20/1 291/10/1 292/9/1
f 293/20/1 294/21/1 295/13/1 296/10/1
f 297/9/1 298/10/1 299/11/1 300/12/1
f 301/10/1 302/13/1 303/14/1 304/11/1
f 305/26/1 306/27/1 307/20/1 308/19/1
f 309/27/1 310/28/1 311/21/1 312/20/1
f 313/19/1 314/20/1 315/10/1 316/9/1
f 317/20/1 318/21/1 319/13/1 320/10/1
f 321/26/1 322/27/1 323/20/1 324/19/1
f 325/27/1 326/28/1 327/21/1 328/20/1
f 329/1/1 330/2/1 331/3/1 332/4/1
f 333/2/1 334/5/1 335/6/1 336/3/1
f 337/5/1 338/7/1 339/8/1 340/6/1
f 341/15/1 342/16/1 343/2/1 344/1/1
f 345/16/1 346/17/1 347/5/1 348/2/1
f 349/17/1 350/18/1 351/7/1 352/5/1
f 353/9/1 354/10/1 355/11/1 356/12/1
f 357/10/1 358/13/1 359/14/1 360/11/1
f 361/9/1 362/10/1 363/11/1 364/12/1
f 365/10/1 366/13/1 367/14/1 368/11/1
f 369/22/1 370/23/1 371/16/1 372/15/1
f 373/23/1 374/24/1 375/17/1 376/16/1
f 377/24/1 378/25/1 379/18/1 380/17/1
f 381/19/1 382/20/1 383/10/1 384/9/1
f 385/20/1 386/21/1 387/13/1 388/10/1
f 389/1/1 390/2/1 391/3/1 392/4/1
f 393/2/1 394/5/1 395/6/1 396/3/1
f 397/5/1 398/7/1 399/8/1 400/6/1
f 401/19/1 402/20/1 403/10/1 404/9/1
f 405/20/1 406/21/1 407/13/1 408/10/1
f 409/29/1 410/30/1 411/23/1 412/22/1
f 413/30/1 414/31/1 415/24/1 416/23/1
f 417/31/1 418/32/1 419/25/1 420/24/1
f 421/26/1 422/27/1 423/20/1 424/19/1
f 425/27/1 426/28/1 427/21/1 428/20/1
f 429/15/1 430/16/1 431/2/1 432/1/1
f 433/16/1 434/17/1 435/5/1 436/2/1
f 437/17/1 438/18/1 439/7/1 440/5/1
f 441/9/1 442/10/1 443/11/1 444/12/1
f 445/10/1 446/13/1 447/14/1 448/11/1
f 449/26/1 450/27/1 451/20/1 452/19/1
f 453/27/1 454/28/1 455/21/1 456/20/1
f 457/22/1 458/23/1 459/16/1 460/15/1
f 461/23/1 462/24/1 463/17/1 464/16/1
f 465/24/1 466/25/1 467/18/1 468/17/1
f 469/1/1 470/2/1 471/3/1 472/4/1
f 473/2/1 474/5/1 475/6/1 476/3/1
f 477/5/1 478/7/1 479/8/1 480/6/1
f 481/19/1 482/20/1 483/10/1 484/9/1
f 485/20/1 486/21/1 487/13/1 488/10/1
f 489/1/1 490/2/1 491/3/1 492/4/1
f 493/2/1 494/5/1 495/6/1 496/3/1
f 497/5/1 498/7/1 499/8/1 500/6/1
f 501/29/1 502/30/1 503/23/1 504/22/1
f 505/30/1 506/31/1 507/24/1 508/23/1
f 509/31/1 510/32/1 511/25/1 512/24/1
f 513/15/1 514/16/1 515/2/1 516/1/1
f 517/16/1 518/17/1 519/5/1 520/2/1
f 521/17/1 522/18/1 523/7/1 524/5/1
f 525/26/1 526/27/1 527/20/1 528/19/1
f 529/27/1 530/28/1 531/21/1 532/20/1
f 533/15/1 534/16/1 535/2/1 536/1/1
f 537/16/1 538/17/1 539/5/1 540/2/1
f 541/17/1 542/18/1 543/7/1 544/5/1
f 545/9/1 546/10/1 547/11/1 548/12/1
f 549/10/1 550/13/1 551/14/1 552/11/1
f 553/22/1 554/23/1 555/16/1 556/15/1
f 557/23/1 558/24/1 559/17/1 560/16/1
f 561/24/1 562/25/1 563/18/1 564/17/1
f 565/22/1 566/23/1 567/16/1 568/15/1
f 569/23/1 570/24/1 571/17/1 572/16/1
f 573/24/1 574/25/1 575/18/1 576/17/1
f 577/19/1 578/20/1 579/10/1 580/9/1
f 581/20/1 582/21/1 583/13/1 584/10/1
f 585/29/1 586/30/1 587/23/1 588/22/1
f 589/30/1 590/31/1 591/24/1 592/23/1
f 593/31/1 594/32/1 595/25/1 596/24/1
f 597/29/1 598/30/1 599/23/1 600/22/1
f 601/30/1 602/31/1 603/24/1 604/23/1
f 605/31/1 606/32/1 607/25/1 608/24/1
f 609/26/1 610/27/1 611/20/1 612/19/1
f 613/27/1 614/28/1 615/21/1 616/20/1
f 617/26/1 618/27/1 619/20/1 620/19/1
f 621/27/1 622/28/1 623/21/1 624/20/1

